<svg xmlns="http://www.w3.org/2000/svg" xmlns:xlink="http://www.w3.org/1999/xlink" contentStyleType="text/css" height="814px" preserveAspectRatio="none" style="width:609px;height:814px;background:#FFFFFF;" version="1.1" viewBox="0 0 609 814" width="609px" zoomAndPan="magnify"><defs><filter height="300%" id="f1apgdpnbd6kif" width="300%" x="-1" y="-1"><feGaussianBlur result="blurOut" stdDeviation="2.0"/><feColorMatrix in="blurOut" result="blurOut2" type="matrix" values="0 0 0 0 0 0 0 0 0 0 0 0 0 0 0 0 0 0 .4 0"/><feOffset dx="4.0" dy="4.0" in="blurOut2" result="blurOut3"/><feBlend in="SourceGraphic" in2="blurOut3" mode="normal"/></filter></defs><g><text fill="#000000" font-family="sans-serif" font-size="14" font-weight="bold" lengthAdjust="spacing" textLength="83" x="256" y="24.5332">Deployment</text><!--cluster DeploymentNode_netlify--><g id="cluster_DeploymentNode_netlify"><rect fill="#FFFFFF" height="355" rx="2.5" ry="2.5" style="stroke:#A2A2A2;stroke-width:1.0;" width="310" x="150" y="45.6094"/><text fill="#000000" font-family="sans-serif" font-size="16" font-weight="bold" lengthAdjust="spacing" textLength="48" x="281" y="64.2188">Netlify</text></g><!--cluster DeploymentNode_app_netlify_app--><g id="cluster_DeploymentNode_app_netlify_app"><rect fill="#FFFFFF" height="284" rx="2.5" ry="2.5" style="stroke:#A2A2A2;stroke-width:1.0;" width="262" x="174" y="92.6094"/><text fill="#000000" font-family="sans-serif" font-size="16" font-weight="bold" lengthAdjust="spacing" textLength="112" x="249" y="111.2188">app.netlify.app</text></g><!--cluster ContainerInstance_auto_7a8d2e9a_6ad4_4466_8d28_f07b441539ed--><g id="cluster_ContainerInstance_auto_7a8d2e9a_6ad4_4466_8d28_f07b441539ed"><rect fill="#FFFFFF" height="213" rx="2.5" ry="2.5" style="stroke:#A2A2A2;stroke-width:1.0;" width="214" x="198" y="139.6094"/><text fill="#000000" font-family="sans-serif" font-size="16" font-weight="bold" lengthAdjust="spacing" textLength="4" x="303" y="158.2188">&#160;</text></g><!--cluster DeploymentNode_fly_io--><g id="cluster_DeploymentNode_fly_io"><rect fill="#FFFFFF" height="384" rx="2.5" ry="2.5" style="stroke:#A2A2A2;stroke-width:1.0;" width="596" x="7" y="424.6094"/><text fill="#000000" font-family="sans-serif" font-size="16" font-weight="bold" lengthAdjust="spacing" textLength="36" x="287" y="443.2188">fly.io</text></g><!--cluster DeploymentNode_app_fly_io--><g id="cluster_DeploymentNode_app_fly_io"><rect fill="#FFFFFF" height="313" rx="2.5" ry="2.5" style="stroke:#A2A2A2;stroke-width:1.0;" width="548" x="31" y="471.6094"/><text fill="#000000" font-family="sans-serif" font-size="16" font-weight="bold" lengthAdjust="spacing" textLength="69" x="270.5" y="490.2188">app.fly.io</text></g><!--cluster DeploymentNode_Application_Server--><g id="cluster_DeploymentNode_Application_Server"><rect fill="#FFFFFF" height="242" rx="2.5" ry="2.5" style="stroke:#A2A2A2;stroke-width:1.0;" width="500" x="55" y="518.6094"/><text fill="#000000" font-family="sans-serif" font-size="16" font-weight="bold" lengthAdjust="spacing" textLength="140" x="235" y="537.2188">Application Server</text></g><!--cluster ContainerInstance_auto_ccf1ea3b_cce7_4c80_a5be_d03a11a3ac7f--><g id="cluster_ContainerInstance_auto_ccf1ea3b_cce7_4c80_a5be_d03a11a3ac7f"><rect fill="#FFFFFF" height="171" rx="2.5" ry="2.5" style="stroke:#A2A2A2;stroke-width:1.0;" width="214" x="317" y="565.6094"/><text fill="#000000" font-family="sans-serif" font-size="16" font-weight="bold" lengthAdjust="spacing" textLength="4" x="422" y="584.2188">&#160;</text></g><!--cluster ContainerInstance_auto_6e79bfd9_d6ab_432d_8e49_18850d7de05a--><g id="cluster_ContainerInstance_auto_6e79bfd9_d6ab_432d_8e49_18850d7de05a"><rect fill="#FFFFFF" height="171" rx="2.5" ry="2.5" style="stroke:#A2A2A2;stroke-width:1.0;" width="214" x="79" y="565.6094"/><text fill="#000000" font-family="sans-serif" font-size="16" font-weight="bold" lengthAdjust="spacing" textLength="4" x="184" y="584.2188">&#160;</text></g><!--entity Container_reader_frontend--><g id="elem_Container_reader_frontend"><ellipse cx="305" cy="199.6094" fill="#FF0000" filter="url(#f1apgdpnbd6kif)" rx="16" ry="16" style="stroke:#FFA500;stroke-width:5.0;stroke-dasharray:1.0,1.0;"/><path d="M305,219.6094 C309,219.6094 312,219.6094 316,215.6094 C324,215.6094 332,223.6094 332,231.6094 L332,235.6094 C332,239.6094 328,243.6094 324,243.6094 L286,243.6094 C282,243.6094 278,239.6094 278,235.6094 L278,231.6094 C278,223.6094 286,215.6094 294,215.6094 C298,219.6094 301,219.6094 305,219.6094 " fill="#FF0000" filter="url(#f1apgdpnbd6kif)" style="stroke:#FFA500;stroke-width:5.0;stroke-dasharray:1.0,1.0;"/><text fill="#FF0000" font-family="sans-serif" font-size="16" font-weight="bold" lengthAdjust="spacing" textLength="48" x="214.5" y="265.2188">Single</text><text fill="#FF0000" font-family="sans-serif" font-size="16" font-weight="bold" lengthAdjust="spacing" textLength="4" x="262.5" y="265.2188">&#160;</text><text fill="#FF0000" font-family="sans-serif" font-size="16" font-weight="bold" lengthAdjust="spacing" textLength="39" x="266.5" y="265.2188">Page</text><text fill="#FF0000" font-family="sans-serif" font-size="16" font-weight="bold" lengthAdjust="spacing" textLength="4" x="305.5" y="265.2188">&#160;</text><text fill="#FF0000" font-family="sans-serif" font-size="16" font-weight="bold" lengthAdjust="spacing" textLength="86" x="309.5" y="265.2188">Application</text><text fill="#FF0000" font-family="sans-serif" font-size="12" font-style="italic" lengthAdjust="spacing" textLength="57" x="238.5" y="281.1914">[Awesome</text><text fill="#FF0000" font-family="sans-serif" font-size="12" font-style="italic" lengthAdjust="spacing" textLength="3" x="295.5" y="281.1914">&#160;</text><text fill="#FF0000" font-family="sans-serif" font-size="12" font-style="italic" lengthAdjust="spacing" textLength="73" x="298.5" y="281.1914">technologies]</text><text fill="#FF0000" font-family="sans-serif" font-size="14" lengthAdjust="spacing" textLength="4" x="303" y="298.3613">&#160;</text><text fill="#FF0000" font-family="sans-serif" font-size="14" lengthAdjust="spacing" textLength="39" x="221.5" y="315.9707">Allows</text><text fill="#FF0000" font-family="sans-serif" font-size="14" lengthAdjust="spacing" textLength="4" x="260.5" y="315.9707">&#160;</text><text fill="#FF0000" font-family="sans-serif" font-size="14" lengthAdjust="spacing" textLength="35" x="264.5" y="315.9707">users</text><text fill="#FF0000" font-family="sans-serif" font-size="14" lengthAdjust="spacing" textLength="4" x="299.5" y="315.9707">&#160;</text><text fill="#FF0000" font-family="sans-serif" font-size="14" lengthAdjust="spacing" textLength="12" x="303.5" y="315.9707">to</text><text fill="#FF0000" font-family="sans-serif" font-size="14" lengthAdjust="spacing" textLength="4" x="315.5" y="315.9707">&#160;</text><text fill="#FF0000" font-family="sans-serif" font-size="14" lengthAdjust="spacing" textLength="23" x="319.5" y="315.9707">use</text><text fill="#FF0000" font-family="sans-serif" font-size="14" lengthAdjust="spacing" textLength="4" x="342.5" y="315.9707">&#160;</text><text fill="#FF0000" font-family="sans-serif" font-size="14" lengthAdjust="spacing" textLength="42" x="346.5" y="315.9707">reader</text><text fill="#FF0000" font-family="sans-serif" font-size="14" lengthAdjust="spacing" textLength="86" x="262" y="333.5801">functionalities</text></g><!--entity Container_reader_backend--><g id="elem_Container_reader_backend"><ellipse cx="424" cy="621.1094" fill="#438DD5" rx="16" ry="16" style="stroke:#3C7FC0;stroke-width:0.5;"/><path d="M424,641.1094 C428,641.1094 431,641.1094 435,637.1094 C443,637.1094 451,645.1094 451,653.1094 L451,657.1094 C451,661.1094 447,665.1094 443,665.1094 L405,665.1094 C401,665.1094 397,661.1094 397,657.1094 L397,653.1094 C397,645.1094 405,637.1094 413,637.1094 C417,641.1094 420,641.1094 424,641.1094 " fill="#438DD5" style="stroke:#3C7FC0;stroke-width:0.5;"/><text fill="#438DD5" font-family="sans-serif" font-size="16" font-weight="bold" lengthAdjust="spacing" textLength="68" x="390" y="682.2188">Backend</text><text fill="#438DD5" font-family="sans-serif" font-size="14" lengthAdjust="spacing" textLength="4" x="422" y="700.2676">&#160;</text><text fill="#438DD5" font-family="sans-serif" font-size="14" lengthAdjust="spacing" textLength="57" x="333.5" y="717.877">Business</text><text fill="#438DD5" font-family="sans-serif" font-size="14" lengthAdjust="spacing" textLength="4" x="390.5" y="717.877">&#160;</text><text fill="#438DD5" font-family="sans-serif" font-size="14" lengthAdjust="spacing" textLength="34" x="394.5" y="717.877">Logic</text><text fill="#438DD5" font-family="sans-serif" font-size="14" lengthAdjust="spacing" textLength="4" x="428.5" y="717.877">&#160;</text><text fill="#438DD5" font-family="sans-serif" font-size="14" lengthAdjust="spacing" textLength="12" x="432.5" y="717.877">of</text><text fill="#438DD5" font-family="sans-serif" font-size="14" lengthAdjust="spacing" textLength="4" x="444.5" y="717.877">&#160;</text><text fill="#438DD5" font-family="sans-serif" font-size="14" lengthAdjust="spacing" textLength="20" x="448.5" y="717.877">the</text><text fill="#438DD5" font-family="sans-serif" font-size="14" lengthAdjust="spacing" textLength="4" x="468.5" y="717.877">&#160;</text><text fill="#438DD5" font-family="sans-serif" font-size="14" lengthAdjust="spacing" textLength="42" x="472.5" y="717.877">reader</text></g><!--entity Container_reader_backend_1--><g id="elem_Container_reader_backend_1"><ellipse cx="186" cy="621.1094" fill="#438DD5" rx="16" ry="16" style="stroke:#3C7FC0;stroke-width:0.5;"/><path d="M186,641.1094 C190,641.1094 193,641.1094 197,637.1094 C205,637.1094 213,645.1094 213,653.1094 L213,657.1094 C213,661.1094 209,665.1094 205,665.1094 L167,665.1094 C163,665.1094 159,661.1094 159,657.1094 L159,653.1094 C159,645.1094 167,637.1094 175,637.1094 C179,641.1094 182,641.1094 186,641.1094 " fill="#438DD5" style="stroke:#3C7FC0;stroke-width:0.5;"/><text fill="#438DD5" font-family="sans-serif" font-size="16" font-weight="bold" lengthAdjust="spacing" textLength="68" x="152" y="682.2188">Backend</text><text fill="#438DD5" font-family="sans-serif" font-size="14" lengthAdjust="spacing" textLength="4" x="184" y="700.2676">&#160;</text><text fill="#438DD5" font-family="sans-serif" font-size="14" lengthAdjust="spacing" textLength="57" x="95.5" y="717.877">Business</text><text fill="#438DD5" font-family="sans-serif" font-size="14" lengthAdjust="spacing" textLength="4" x="152.5" y="717.877">&#160;</text><text fill="#438DD5" font-family="sans-serif" font-size="14" lengthAdjust="spacing" textLength="34" x="156.5" y="717.877">Logic</text><text fill="#438DD5" font-family="sans-serif" font-size="14" lengthAdjust="spacing" textLength="4" x="190.5" y="717.877">&#160;</text><text fill="#438DD5" font-family="sans-serif" font-size="14" lengthAdjust="spacing" textLength="12" x="194.5" y="717.877">of</text><text fill="#438DD5" font-family="sans-serif" font-size="14" lengthAdjust="spacing" textLength="4" x="206.5" y="717.877">&#160;</text><text fill="#438DD5" font-family="sans-serif" font-size="14" lengthAdjust="spacing" textLength="20" x="210.5" y="717.877">the</text><text fill="#438DD5" font-family="sans-serif" font-size="14" lengthAdjust="spacing" textLength="4" x="230.5" y="717.877">&#160;</text><text fill="#438DD5" font-family="sans-serif" font-size="14" lengthAdjust="spacing" textLength="42" x="234.5" y="717.877">reader</text></g><!--link Container_reader_frontend to Container_reader_backend--><g id="link_Container_reader_frontend_Container_reader_backend"><path d="M364.5,336.6594 C364.5,415.2694 364.5,526.0294 364.5,596.3994 " fill="none" id="Container_reader_frontend-to-Container_reader_backend" style="stroke:#666666;stroke-width:1.0;"/><polygon fill="#666666" points="364.5,604.3994,367.5,596.3994,361.5,596.3994,364.5,604.3994" style="stroke:#666666;stroke-width:1.0;"/><text fill="#666666" font-family="sans-serif" font-size="0" lengthAdjust="spacing" textLength="0" x="348.5" y="429.5294">.</text><text fill="#666666" font-family="sans-serif" font-size="12" lengthAdjust="spacing" textLength="3" x="347" y="451.9864">&#160;</text><text fill="#666666" font-family="sans-serif" font-size="12" lengthAdjust="spacing" textLength="30" x="333.5" y="467.0802">Uses</text></g><!--link Container_reader_frontend to Container_reader_backend_1--><g id="link_Container_reader_frontend_Container_reader_backend_1"><path d="M245.5,336.6594 C245.5,415.2694 245.5,526.0294 245.5,596.3994 " fill="none" id="Container_reader_frontend-to-Container_reader_backend_1" style="stroke:#666666;stroke-width:1.0;"/><polygon fill="#666666" points="245.5,604.3994,248.5,596.3994,242.5,596.3994,245.5,604.3994" style="stroke:#666666;stroke-width:1.0;"/><text fill="#666666" font-family="sans-serif" font-size="0" lengthAdjust="spacing" textLength="0" x="229.5" y="429.5294">.</text><text fill="#666666" font-family="sans-serif" font-size="12" lengthAdjust="spacing" textLength="3" x="228" y="451.9864">&#160;</text><text fill="#666666" font-family="sans-serif" font-size="12" lengthAdjust="spacing" textLength="30" x="214.5" y="467.0802">Uses</text></g></g></svg>