<svg xmlns="http://www.w3.org/2000/svg" xmlns:xlink="http://www.w3.org/1999/xlink" contentStyleType="text/css" height="790px" preserveAspectRatio="none" style="width:371px;height:790px;background:#FFFFFF;" version="1.1" viewBox="0 0 371 790" width="371px" zoomAndPan="magnify"><defs/><g><text fill="#000000" font-family="sans-serif" font-size="14" font-weight="bold" lengthAdjust="spacing" textLength="83" x="137" y="24.5332">Deployment</text><!--cluster DeploymentNode_netlify--><g id="cluster_DeploymentNode_netlify"><rect fill="#FFFFFF" height="331" rx="2.5" ry="2.5" style="stroke:#A2A2A2;stroke-width:1.0;" width="310" x="31" y="45.6094"/><text fill="#000000" font-family="sans-serif" font-size="16" font-weight="bold" lengthAdjust="spacing" textLength="48" x="162" y="64.2188">Netlify</text></g><!--cluster DeploymentNode_app_netlify_app--><g id="cluster_DeploymentNode_app_netlify_app"><rect fill="#FFFFFF" height="260" rx="2.5" ry="2.5" style="stroke:#A2A2A2;stroke-width:1.0;" width="262" x="55" y="92.6094"/><text fill="#000000" font-family="sans-serif" font-size="16" font-weight="bold" lengthAdjust="spacing" textLength="112" x="130" y="111.2188">app.netlify.app</text></g><!--cluster ContainerInstance_auto_f6dba2c1_cb8d_4345_8893_cdeebf4f0aaf--><g id="cluster_ContainerInstance_auto_f6dba2c1_cb8d_4345_8893_cdeebf4f0aaf"><rect fill="#FFFFFF" height="189" rx="2.5" ry="2.5" style="stroke:#A2A2A2;stroke-width:1.0;" width="214" x="79" y="139.6094"/><text fill="#000000" font-family="sans-serif" font-size="16" font-weight="bold" lengthAdjust="spacing" textLength="4" x="184" y="158.2188">&#160;</text></g><!--cluster DeploymentNode_fly_io--><g id="cluster_DeploymentNode_fly_io"><rect fill="#FFFFFF" height="384" rx="2.5" ry="2.5" style="stroke:#A2A2A2;stroke-width:1.0;" width="358" x="7" y="400.6094"/><text fill="#000000" font-family="sans-serif" font-size="16" font-weight="bold" lengthAdjust="spacing" textLength="36" x="168" y="419.2188">fly.io</text></g><!--cluster DeploymentNode_app_fly_io--><g id="cluster_DeploymentNode_app_fly_io"><rect fill="#FFFFFF" height="313" rx="2.5" ry="2.5" style="stroke:#A2A2A2;stroke-width:1.0;" width="310" x="31" y="447.6094"/><text fill="#000000" font-family="sans-serif" font-size="16" font-weight="bold" lengthAdjust="spacing" textLength="69" x="151.5" y="466.2188">app.fly.io</text></g><!--cluster DeploymentNode_Application_Server--><g id="cluster_DeploymentNode_Application_Server"><rect fill="#FFFFFF" height="242" rx="2.5" ry="2.5" style="stroke:#A2A2A2;stroke-width:1.0;" width="262" x="55" y="494.6094"/><text fill="#000000" font-family="sans-serif" font-size="16" font-weight="bold" lengthAdjust="spacing" textLength="140" x="116" y="513.2188">Application Server</text></g><!--cluster ContainerInstance_auto_7bf31898_075c_4c4c_bad8_4e79b4939507--><g id="cluster_ContainerInstance_auto_7bf31898_075c_4c4c_bad8_4e79b4939507"><rect fill="#FFFFFF" height="171" rx="2.5" ry="2.5" style="stroke:#A2A2A2;stroke-width:1.0;" width="214" x="79" y="541.6094"/><text fill="#000000" font-family="sans-serif" font-size="16" font-weight="bold" lengthAdjust="spacing" textLength="4" x="184" y="560.2188">&#160;</text></g><!--entity Container_reader_frontend--><g id="elem_Container_reader_frontend"><ellipse cx="186" cy="195.1094" fill="#006DAA" rx="16" ry="16" style="stroke:#004C76;stroke-width:0.5;"/><path d="M186,215.1094 C190,215.1094 193,215.1094 197,211.1094 C205,211.1094 213,219.1094 213,227.1094 L213,231.1094 C213,235.1094 209,239.1094 205,239.1094 L167,239.1094 C163,239.1094 159,235.1094 159,231.1094 L159,227.1094 C159,219.1094 167,211.1094 175,211.1094 C179,215.1094 182,215.1094 186,215.1094 " fill="#006DAA" style="stroke:#004C76;stroke-width:0.5;"/><text fill="#006DAA" font-family="sans-serif" font-size="16" font-weight="bold" lengthAdjust="spacing" textLength="48" x="95.5" y="256.2188">Single</text><text fill="#006DAA" font-family="sans-serif" font-size="16" font-weight="bold" lengthAdjust="spacing" textLength="4" x="143.5" y="256.2188">&#160;</text><text fill="#006DAA" font-family="sans-serif" font-size="16" font-weight="bold" lengthAdjust="spacing" textLength="39" x="147.5" y="256.2188">Page</text><text fill="#006DAA" font-family="sans-serif" font-size="16" font-weight="bold" lengthAdjust="spacing" textLength="4" x="186.5" y="256.2188">&#160;</text><text fill="#006DAA" font-family="sans-serif" font-size="16" font-weight="bold" lengthAdjust="spacing" textLength="86" x="190.5" y="256.2188">Application</text><text fill="#006DAA" font-family="sans-serif" font-size="14" lengthAdjust="spacing" textLength="4" x="184" y="274.2676">&#160;</text><text fill="#006DAA" font-family="sans-serif" font-size="14" lengthAdjust="spacing" textLength="39" x="102.5" y="291.877">Allows</text><text fill="#006DAA" font-family="sans-serif" font-size="14" lengthAdjust="spacing" textLength="4" x="141.5" y="291.877">&#160;</text><text fill="#006DAA" font-family="sans-serif" font-size="14" lengthAdjust="spacing" textLength="35" x="145.5" y="291.877">users</text><text fill="#006DAA" font-family="sans-serif" font-size="14" lengthAdjust="spacing" textLength="4" x="180.5" y="291.877">&#160;</text><text fill="#006DAA" font-family="sans-serif" font-size="14" lengthAdjust="spacing" textLength="12" x="184.5" y="291.877">to</text><text fill="#006DAA" font-family="sans-serif" font-size="14" lengthAdjust="spacing" textLength="4" x="196.5" y="291.877">&#160;</text><text fill="#006DAA" font-family="sans-serif" font-size="14" lengthAdjust="spacing" textLength="23" x="200.5" y="291.877">use</text><text fill="#006DAA" font-family="sans-serif" font-size="14" lengthAdjust="spacing" textLength="4" x="223.5" y="291.877">&#160;</text><text fill="#006DAA" font-family="sans-serif" font-size="14" lengthAdjust="spacing" textLength="42" x="227.5" y="291.877">reader</text><text fill="#006DAA" font-family="sans-serif" font-size="14" lengthAdjust="spacing" textLength="86" x="143" y="309.4863">functionalities</text></g><!--entity Container_reader_backend--><g id="elem_Container_reader_backend"><ellipse cx="186" cy="597.1094" fill="#006DAA" rx="16" ry="16" style="stroke:#004C76;stroke-width:0.5;"/><path d="M186,617.1094 C190,617.1094 193,617.1094 197,613.1094 C205,613.1094 213,621.1094 213,629.1094 L213,633.1094 C213,637.1094 209,641.1094 205,641.1094 L167,641.1094 C163,641.1094 159,637.1094 159,633.1094 L159,629.1094 C159,621.1094 167,613.1094 175,613.1094 C179,617.1094 182,617.1094 186,617.1094 " fill="#006DAA" style="stroke:#004C76;stroke-width:0.5;"/><text fill="#006DAA" font-family="sans-serif" font-size="16" font-weight="bold" lengthAdjust="spacing" textLength="68" x="152" y="658.2188">Backend</text><text fill="#006DAA" font-family="sans-serif" font-size="14" lengthAdjust="spacing" textLength="4" x="184" y="676.2676">&#160;</text><text fill="#006DAA" font-family="sans-serif" font-size="14" lengthAdjust="spacing" textLength="57" x="95.5" y="693.877">Business</text><text fill="#006DAA" font-family="sans-serif" font-size="14" lengthAdjust="spacing" textLength="4" x="152.5" y="693.877">&#160;</text><text fill="#006DAA" font-family="sans-serif" font-size="14" lengthAdjust="spacing" textLength="34" x="156.5" y="693.877">Logic</text><text fill="#006DAA" font-family="sans-serif" font-size="14" lengthAdjust="spacing" textLength="4" x="190.5" y="693.877">&#160;</text><text fill="#006DAA" font-family="sans-serif" font-size="14" lengthAdjust="spacing" textLength="12" x="194.5" y="693.877">of</text><text fill="#006DAA" font-family="sans-serif" font-size="14" lengthAdjust="spacing" textLength="4" x="206.5" y="693.877">&#160;</text><text fill="#006DAA" font-family="sans-serif" font-size="14" lengthAdjust="spacing" textLength="20" x="210.5" y="693.877">the</text><text fill="#006DAA" font-family="sans-serif" font-size="14" lengthAdjust="spacing" textLength="4" x="230.5" y="693.877">&#160;</text><text fill="#006DAA" font-family="sans-serif" font-size="14" lengthAdjust="spacing" textLength="42" x="234.5" y="693.877">reader</text></g><!--link Container_reader_frontend to Container_reader_backend--><g id="link_Container_reader_frontend_Container_reader_backend"><path d="M186,312.7194 C186,388.0294 186,500.9694 186,572.4194 " fill="none" id="Container_reader_frontend-to-Container_reader_backend" style="stroke:#666666;stroke-width:1.0;"/><polygon fill="#666666" points="186,580.4194,189,572.4194,183,572.4194,186,580.4194" style="stroke:#666666;stroke-width:1.0;"/><text fill="#666666" font-family="sans-serif" font-size="12" font-weight="bold" lengthAdjust="spacing" textLength="29" x="156" y="443.0264">Uses</text></g></g></svg>