<svg xmlns="http://www.w3.org/2000/svg" xmlns:xlink="http://www.w3.org/1999/xlink" contentStyleType="text/css" height="630px" preserveAspectRatio="none" style="width:703px;height:630px;background:#FFFFFF;" version="1.1" viewBox="0 0 703 630" width="703px" zoomAndPan="magnify"><defs><filter height="300%" id="f1f6dexbsc5woj" width="300%" x="-1" y="-1"><feGaussianBlur result="blurOut" stdDeviation="2.0"/><feColorMatrix in="blurOut" result="blurOut2" type="matrix" values="0 0 0 0 0 0 0 0 0 0 0 0 0 0 0 0 0 0 .4 0"/><feOffset dx="4.0" dy="4.0" in="blurOut2" result="blurOut3"/><feBlend in="SourceGraphic" in2="blurOut3" mode="normal"/></filter></defs><g><text fill="#000000" font-family="sans-serif" font-size="14" font-weight="bold" lengthAdjust="spacing" textLength="83" x="303" y="24.5332">Deployment</text><!--cluster DeploymentNode_netlify--><g id="cluster_DeploymentNode_netlify"><rect fill="#FFFFFF" height="355" rx="2.5" ry="2.5" style="stroke:#A2A2A2;stroke-width:1.0;" width="309" x="7" y="169.6094"/><text fill="#000000" font-family="sans-serif" font-size="16" font-weight="bold" lengthAdjust="spacing" textLength="48" x="137.5" y="188.2188">Netlify</text></g><!--cluster DeploymentNode_app_netlify_app--><g id="cluster_DeploymentNode_app_netlify_app"><rect fill="#FFFFFF" height="284" rx="2.5" ry="2.5" style="stroke:#A2A2A2;stroke-width:1.0;" width="261" x="31" y="216.6094"/><text fill="#000000" font-family="sans-serif" font-size="16" font-weight="bold" lengthAdjust="spacing" textLength="112" x="105.5" y="235.2188">app.netlify.app</text></g><!--cluster ContainerInstance_auto_409e01d1_1f45_480f_b5b3_db98896a264a--><g id="cluster_ContainerInstance_auto_409e01d1_1f45_480f_b5b3_db98896a264a"><rect fill="#FFFFFF" height="213" rx="2.5" ry="2.5" style="stroke:#A2A2A2;stroke-width:1.0;" width="213" x="55" y="263.6094"/><text fill="#000000" font-family="sans-serif" font-size="16" font-weight="bold" lengthAdjust="spacing" textLength="4" x="159.5" y="282.2188">&#160;</text></g><!--cluster DeploymentNode_auto_f9976b15_63d3_4a85_a3ac_d6f1830449cf--><g id="cluster_DeploymentNode_auto_f9976b15_63d3_4a85_a3ac_d6f1830449cf"><rect fill="#FFFFFF" height="579" rx="2.5" ry="2.5" style="stroke:#A2A2A2;stroke-width:1.0;" width="357" x="340" y="45.6094"/><text fill="#000000" font-family="sans-serif" font-size="16" font-weight="bold" lengthAdjust="spacing" textLength="36" x="500.5" y="64.2188">fly.io</text></g><!--cluster DeploymentNode_app_fly_io--><g id="cluster_DeploymentNode_app_fly_io"><rect fill="#FFFFFF" height="508" rx="2.5" ry="2.5" style="stroke:#A2A2A2;stroke-width:1.0;" width="309" x="364" y="92.6094"/><text fill="#000000" font-family="sans-serif" font-size="16" font-weight="bold" lengthAdjust="spacing" textLength="69" x="484" y="111.2188">app.fly.io</text></g><!--cluster DeploymentNode_Application_Server--><g id="cluster_DeploymentNode_Application_Server"><rect fill="#FFFFFF" height="437" rx="2.5" ry="2.5" style="stroke:#A2A2A2;stroke-width:1.0;" width="261" x="388" y="139.6094"/><text fill="#000000" font-family="sans-serif" font-size="16" font-weight="bold" lengthAdjust="spacing" textLength="140" x="448.5" y="158.2188">Application Server</text></g><!--cluster ContainerInstance_auto_e60f1099_f1fd_4ee8_a523_aa147fbea650--><g id="cluster_ContainerInstance_auto_e60f1099_f1fd_4ee8_a523_aa147fbea650"><rect fill="#FFFFFF" height="171" rx="2.5" ry="2.5" style="stroke:#A2A2A2;stroke-width:1.0;" width="213" x="412" y="186.6094"/><text fill="#000000" font-family="sans-serif" font-size="16" font-weight="bold" lengthAdjust="spacing" textLength="4" x="516.5" y="205.2188">&#160;</text></g><!--cluster ContainerInstance_auto_de2564af_05a4_4886_b4c3_2b9e5c5035ce--><g id="cluster_ContainerInstance_auto_de2564af_05a4_4886_b4c3_2b9e5c5035ce"><rect fill="#FFFFFF" height="171" rx="2.5" ry="2.5" style="stroke:#A2A2A2;stroke-width:1.0;" width="213" x="412" y="381.6094"/><text fill="#000000" font-family="sans-serif" font-size="16" font-weight="bold" lengthAdjust="spacing" textLength="4" x="516.5" y="400.2188">&#160;</text></g><!--entity Container_reader_frontend--><g id="elem_Container_reader_frontend"><ellipse cx="161.5" cy="323.6094" fill="#FF0000" filter="url(#f1f6dexbsc5woj)" rx="16" ry="16" style="stroke:#FFA500;stroke-width:5.0;stroke-dasharray:1.0,1.0;"/><path d="M161.5,343.6094 C165.5,343.6094 168.5,343.6094 172.5,339.6094 C180.5,339.6094 188.5,347.6094 188.5,355.6094 L188.5,359.6094 C188.5,363.6094 184.5,367.6094 180.5,367.6094 L142.5,367.6094 C138.5,367.6094 134.5,363.6094 134.5,359.6094 L134.5,355.6094 C134.5,347.6094 142.5,339.6094 150.5,339.6094 C154.5,343.6094 157.5,343.6094 161.5,343.6094 " fill="#FF0000" filter="url(#f1f6dexbsc5woj)" style="stroke:#FFA500;stroke-width:5.0;stroke-dasharray:1.0,1.0;"/><text fill="#FF0000" font-family="sans-serif" font-size="16" font-weight="bold" lengthAdjust="spacing" textLength="48" x="71" y="389.2188">Single</text><text fill="#FF0000" font-family="sans-serif" font-size="16" font-weight="bold" lengthAdjust="spacing" textLength="4" x="119" y="389.2188">&#160;</text><text fill="#FF0000" font-family="sans-serif" font-size="16" font-weight="bold" lengthAdjust="spacing" textLength="39" x="123" y="389.2188">Page</text><text fill="#FF0000" font-family="sans-serif" font-size="16" font-weight="bold" lengthAdjust="spacing" textLength="4" x="162" y="389.2188">&#160;</text><text fill="#FF0000" font-family="sans-serif" font-size="16" font-weight="bold" lengthAdjust="spacing" textLength="86" x="166" y="389.2188">Application</text><text fill="#FF0000" font-family="sans-serif" font-size="12" font-style="italic" lengthAdjust="spacing" textLength="57" x="95" y="405.1914">[Awesome</text><text fill="#FF0000" font-family="sans-serif" font-size="12" font-style="italic" lengthAdjust="spacing" textLength="3" x="152" y="405.1914">&#160;</text><text fill="#FF0000" font-family="sans-serif" font-size="12" font-style="italic" lengthAdjust="spacing" textLength="73" x="155" y="405.1914">technologies]</text><text fill="#FF0000" font-family="sans-serif" font-size="14" lengthAdjust="spacing" textLength="4" x="159.5" y="422.3613">&#160;</text><text fill="#FF0000" font-family="sans-serif" font-size="14" lengthAdjust="spacing" textLength="39" x="78" y="439.9707">Allows</text><text fill="#FF0000" font-family="sans-serif" font-size="14" lengthAdjust="spacing" textLength="4" x="117" y="439.9707">&#160;</text><text fill="#FF0000" font-family="sans-serif" font-size="14" lengthAdjust="spacing" textLength="35" x="121" y="439.9707">users</text><text fill="#FF0000" font-family="sans-serif" font-size="14" lengthAdjust="spacing" textLength="4" x="156" y="439.9707">&#160;</text><text fill="#FF0000" font-family="sans-serif" font-size="14" lengthAdjust="spacing" textLength="12" x="160" y="439.9707">to</text><text fill="#FF0000" font-family="sans-serif" font-size="14" lengthAdjust="spacing" textLength="4" x="172" y="439.9707">&#160;</text><text fill="#FF0000" font-family="sans-serif" font-size="14" lengthAdjust="spacing" textLength="23" x="176" y="439.9707">use</text><text fill="#FF0000" font-family="sans-serif" font-size="14" lengthAdjust="spacing" textLength="4" x="199" y="439.9707">&#160;</text><text fill="#FF0000" font-family="sans-serif" font-size="14" lengthAdjust="spacing" textLength="42" x="203" y="439.9707">reader</text><text fill="#FF0000" font-family="sans-serif" font-size="14" lengthAdjust="spacing" textLength="86" x="118.5" y="457.5801">functionalities</text></g><!--entity Container_reader_backend--><g id="elem_Container_reader_backend"><ellipse cx="518.5" cy="242.1094" fill="#438DD5" rx="16" ry="16" style="stroke:#3C7FC0;stroke-width:0.5;"/><path d="M518.5,262.1094 C522.5,262.1094 525.5,262.1094 529.5,258.1094 C537.5,258.1094 545.5,266.1094 545.5,274.1094 L545.5,278.1094 C545.5,282.1094 541.5,286.1094 537.5,286.1094 L499.5,286.1094 C495.5,286.1094 491.5,282.1094 491.5,278.1094 L491.5,274.1094 C491.5,266.1094 499.5,258.1094 507.5,258.1094 C511.5,262.1094 514.5,262.1094 518.5,262.1094 " fill="#438DD5" style="stroke:#3C7FC0;stroke-width:0.5;"/><text fill="#438DD5" font-family="sans-serif" font-size="16" font-weight="bold" lengthAdjust="spacing" textLength="68" x="484.5" y="303.2188">Backend</text><text fill="#438DD5" font-family="sans-serif" font-size="14" lengthAdjust="spacing" textLength="4" x="516.5" y="321.2676">&#160;</text><text fill="#438DD5" font-family="sans-serif" font-size="14" lengthAdjust="spacing" textLength="57" x="428" y="338.877">Business</text><text fill="#438DD5" font-family="sans-serif" font-size="14" lengthAdjust="spacing" textLength="4" x="485" y="338.877">&#160;</text><text fill="#438DD5" font-family="sans-serif" font-size="14" lengthAdjust="spacing" textLength="34" x="489" y="338.877">Logic</text><text fill="#438DD5" font-family="sans-serif" font-size="14" lengthAdjust="spacing" textLength="4" x="523" y="338.877">&#160;</text><text fill="#438DD5" font-family="sans-serif" font-size="14" lengthAdjust="spacing" textLength="12" x="527" y="338.877">of</text><text fill="#438DD5" font-family="sans-serif" font-size="14" lengthAdjust="spacing" textLength="4" x="539" y="338.877">&#160;</text><text fill="#438DD5" font-family="sans-serif" font-size="14" lengthAdjust="spacing" textLength="20" x="543" y="338.877">the</text><text fill="#438DD5" font-family="sans-serif" font-size="14" lengthAdjust="spacing" textLength="4" x="563" y="338.877">&#160;</text><text fill="#438DD5" font-family="sans-serif" font-size="14" lengthAdjust="spacing" textLength="42" x="567" y="338.877">reader</text></g><!--entity Container_reader_backend_1--><g id="elem_Container_reader_backend_1"><ellipse cx="518.5" cy="437.1094" fill="#438DD5" rx="16" ry="16" style="stroke:#3C7FC0;stroke-width:0.5;"/><path d="M518.5,457.1094 C522.5,457.1094 525.5,457.1094 529.5,453.1094 C537.5,453.1094 545.5,461.1094 545.5,469.1094 L545.5,473.1094 C545.5,477.1094 541.5,481.1094 537.5,481.1094 L499.5,481.1094 C495.5,481.1094 491.5,477.1094 491.5,473.1094 L491.5,469.1094 C491.5,461.1094 499.5,453.1094 507.5,453.1094 C511.5,457.1094 514.5,457.1094 518.5,457.1094 " fill="#438DD5" style="stroke:#3C7FC0;stroke-width:0.5;"/><text fill="#438DD5" font-family="sans-serif" font-size="16" font-weight="bold" lengthAdjust="spacing" textLength="68" x="484.5" y="498.2188">Backend</text><text fill="#438DD5" font-family="sans-serif" font-size="14" lengthAdjust="spacing" textLength="4" x="516.5" y="516.2676">&#160;</text><text fill="#438DD5" font-family="sans-serif" font-size="14" lengthAdjust="spacing" textLength="57" x="428" y="533.877">Business</text><text fill="#438DD5" font-family="sans-serif" font-size="14" lengthAdjust="spacing" textLength="4" x="485" y="533.877">&#160;</text><text fill="#438DD5" font-family="sans-serif" font-size="14" lengthAdjust="spacing" textLength="34" x="489" y="533.877">Logic</text><text fill="#438DD5" font-family="sans-serif" font-size="14" lengthAdjust="spacing" textLength="4" x="523" y="533.877">&#160;</text><text fill="#438DD5" font-family="sans-serif" font-size="14" lengthAdjust="spacing" textLength="12" x="527" y="533.877">of</text><text fill="#438DD5" font-family="sans-serif" font-size="14" lengthAdjust="spacing" textLength="4" x="539" y="533.877">&#160;</text><text fill="#438DD5" font-family="sans-serif" font-size="14" lengthAdjust="spacing" textLength="20" x="543" y="533.877">the</text><text fill="#438DD5" font-family="sans-serif" font-size="14" lengthAdjust="spacing" textLength="4" x="563" y="533.877">&#160;</text><text fill="#438DD5" font-family="sans-serif" font-size="14" lengthAdjust="spacing" textLength="42" x="567" y="533.877">reader</text></g><!--link Container_reader_frontend to Container_reader_backend--><g id="link_Container_reader_frontend_Container_reader_backend"><path d="M252.05,322.1094 C305.86,322.1094 365.89,322.1094 419.74,322.1094 " fill="none" id="Container_reader_frontend-to-Container_reader_backend" style="stroke:#666666;stroke-width:1.0;"/><polygon fill="#666666" points="427.74,322.1094,419.74,319.1094,419.74,325.1094,427.74,322.1094" style="stroke:#666666;stroke-width:1.0;"/><text fill="#666666" font-family="sans-serif" font-size="0" lengthAdjust="spacing" textLength="0" x="323.89" y="323.1094">.</text><text fill="#666666" font-family="sans-serif" font-size="12" lengthAdjust="spacing" textLength="3" x="322.39" y="345.5664">&#160;</text><text fill="#666666" font-family="sans-serif" font-size="12" lengthAdjust="spacing" textLength="30" x="308.89" y="360.6602">Uses</text></g><!--link Container_reader_frontend to Container_reader_backend_1--><g id="link_Container_reader_frontend_Container_reader_backend_1"><path d="M252.05,440.6094 C305.86,440.6094 365.89,440.6094 419.74,440.6094 " fill="none" id="Container_reader_frontend-to-Container_reader_backend_1" style="stroke:#666666;stroke-width:1.0;"/><polygon fill="#666666" points="427.74,440.6094,419.74,437.6094,419.74,443.6094,427.74,440.6094" style="stroke:#666666;stroke-width:1.0;"/><text fill="#666666" font-family="sans-serif" font-size="0" lengthAdjust="spacing" textLength="0" x="323.89" y="441.6094">.</text><text fill="#666666" font-family="sans-serif" font-size="12" lengthAdjust="spacing" textLength="3" x="322.39" y="464.0664">&#160;</text><text fill="#666666" font-family="sans-serif" font-size="12" lengthAdjust="spacing" textLength="30" x="308.89" y="479.1602">Uses</text></g></g></svg>