<svg xmlns="http://www.w3.org/2000/svg" xmlns:xlink="http://www.w3.org/1999/xlink" contentStyleType="text/css" height="777px" preserveAspectRatio="none" style="width:371px;height:777px;background:#FFFFFF;" version="1.1" viewBox="0 0 371 777" width="371px" zoomAndPan="magnify"><defs/><g><!--cluster DeploymentNode_netlify--><g id="cluster_DeploymentNode_netlify"><rect fill="#FFFFFF" height="331" rx="2.5" ry="2.5" style="stroke:#A2A2A2;stroke-width:1.0;" width="310" x="31" y="7"/><text fill="#000000" font-family="sans-serif" font-size="16" font-weight="bold" lengthAdjust="spacing" textLength="48" x="162" y="25.6094">Netlify</text></g><!--cluster DeploymentNode_app_netlify_app--><g id="cluster_DeploymentNode_app_netlify_app"><rect fill="#FFFFFF" height="260" rx="2.5" ry="2.5" style="stroke:#A2A2A2;stroke-width:1.0;" width="262" x="55" y="54"/><text fill="#000000" font-family="sans-serif" font-size="16" font-weight="bold" lengthAdjust="spacing" textLength="112" x="130" y="72.6094">app.netlify.app</text></g><!--cluster ContainerInstance_auto_f88e2bcc_dc7c_4032_ae18_79dfa7c1c3af--><g id="cluster_ContainerInstance_auto_f88e2bcc_dc7c_4032_ae18_79dfa7c1c3af"><rect fill="#FFFFFF" height="189" rx="2.5" ry="2.5" style="stroke:#A2A2A2;stroke-width:1.0;" width="214" x="79" y="101"/><text fill="#000000" font-family="sans-serif" font-size="16" font-weight="bold" lengthAdjust="spacing" textLength="4" x="184" y="119.6094">&#160;</text></g><!--cluster DeploymentNode_fly_io--><g id="cluster_DeploymentNode_fly_io"><rect fill="#FFFFFF" height="384" rx="2.5" ry="2.5" style="stroke:#A2A2A2;stroke-width:1.0;" width="358" x="7" y="387"/><text fill="#000000" font-family="sans-serif" font-size="16" font-weight="bold" lengthAdjust="spacing" textLength="36" x="168" y="405.6094">fly.io</text></g><!--cluster DeploymentNode_app_fly_io--><g id="cluster_DeploymentNode_app_fly_io"><rect fill="#FFFFFF" height="313" rx="2.5" ry="2.5" style="stroke:#A2A2A2;stroke-width:1.0;" width="310" x="31" y="434"/><text fill="#000000" font-family="sans-serif" font-size="16" font-weight="bold" lengthAdjust="spacing" textLength="69" x="151.5" y="452.6094">app.fly.io</text></g><!--cluster DeploymentNode_Application_Server--><g id="cluster_DeploymentNode_Application_Server"><rect fill="#FFFFFF" height="242" rx="2.5" ry="2.5" style="stroke:#A2A2A2;stroke-width:1.0;" width="262" x="55" y="481"/><text fill="#000000" font-family="sans-serif" font-size="16" font-weight="bold" lengthAdjust="spacing" textLength="140" x="116" y="499.6094">Application Server</text></g><!--cluster ContainerInstance_auto_9ebb089f_11e5_4374_a3ca_91eaf7f7c7d2--><g id="cluster_ContainerInstance_auto_9ebb089f_11e5_4374_a3ca_91eaf7f7c7d2"><rect fill="#FFFFFF" height="171" rx="2.5" ry="2.5" style="stroke:#A2A2A2;stroke-width:1.0;" width="214" x="79" y="528"/><text fill="#000000" font-family="sans-serif" font-size="16" font-weight="bold" lengthAdjust="spacing" textLength="4" x="184" y="546.6094">&#160;</text></g><!--entity Container_reader_frontend--><g id="elem_Container_reader_frontend"><ellipse cx="186" cy="156.5" fill="#006DAA" rx="16" ry="16" style="stroke:#004C76;stroke-width:0.5;"/><path d="M186,176.5 C190,176.5 193,176.5 197,172.5 C205,172.5 213,180.5 213,188.5 L213,192.5 C213,196.5 209,200.5 205,200.5 L167,200.5 C163,200.5 159,196.5 159,192.5 L159,188.5 C159,180.5 167,172.5 175,172.5 C179,176.5 182,176.5 186,176.5 " fill="#006DAA" style="stroke:#004C76;stroke-width:0.5;"/><text fill="#006DAA" font-family="sans-serif" font-size="16" font-weight="bold" lengthAdjust="spacing" textLength="48" x="95.5" y="217.6094">Single</text><text fill="#006DAA" font-family="sans-serif" font-size="16" font-weight="bold" lengthAdjust="spacing" textLength="4" x="143.5" y="217.6094">&#160;</text><text fill="#006DAA" font-family="sans-serif" font-size="16" font-weight="bold" lengthAdjust="spacing" textLength="39" x="147.5" y="217.6094">Page</text><text fill="#006DAA" font-family="sans-serif" font-size="16" font-weight="bold" lengthAdjust="spacing" textLength="4" x="186.5" y="217.6094">&#160;</text><text fill="#006DAA" font-family="sans-serif" font-size="16" font-weight="bold" lengthAdjust="spacing" textLength="86" x="190.5" y="217.6094">Application</text><text fill="#006DAA" font-family="sans-serif" font-size="14" lengthAdjust="spacing" textLength="4" x="184" y="235.6582">&#160;</text><text fill="#006DAA" font-family="sans-serif" font-size="14" lengthAdjust="spacing" textLength="39" x="102.5" y="253.2676">Allows</text><text fill="#006DAA" font-family="sans-serif" font-size="14" lengthAdjust="spacing" textLength="4" x="141.5" y="253.2676">&#160;</text><text fill="#006DAA" font-family="sans-serif" font-size="14" lengthAdjust="spacing" textLength="35" x="145.5" y="253.2676">users</text><text fill="#006DAA" font-family="sans-serif" font-size="14" lengthAdjust="spacing" textLength="4" x="180.5" y="253.2676">&#160;</text><text fill="#006DAA" font-family="sans-serif" font-size="14" lengthAdjust="spacing" textLength="12" x="184.5" y="253.2676">to</text><text fill="#006DAA" font-family="sans-serif" font-size="14" lengthAdjust="spacing" textLength="4" x="196.5" y="253.2676">&#160;</text><text fill="#006DAA" font-family="sans-serif" font-size="14" lengthAdjust="spacing" textLength="23" x="200.5" y="253.2676">use</text><text fill="#006DAA" font-family="sans-serif" font-size="14" lengthAdjust="spacing" textLength="4" x="223.5" y="253.2676">&#160;</text><text fill="#006DAA" font-family="sans-serif" font-size="14" lengthAdjust="spacing" textLength="42" x="227.5" y="253.2676">reader</text><text fill="#006DAA" font-family="sans-serif" font-size="14" lengthAdjust="spacing" textLength="86" x="143" y="270.877">functionalities</text></g><!--entity Container_reader_backend--><g id="elem_Container_reader_backend"><ellipse cx="186" cy="583.5" fill="#006DAA" rx="16" ry="16" style="stroke:#004C76;stroke-width:0.5;"/><path d="M186,603.5 C190,603.5 193,603.5 197,599.5 C205,599.5 213,607.5 213,615.5 L213,619.5 C213,623.5 209,627.5 205,627.5 L167,627.5 C163,627.5 159,623.5 159,619.5 L159,615.5 C159,607.5 167,599.5 175,599.5 C179,603.5 182,603.5 186,603.5 " fill="#006DAA" style="stroke:#004C76;stroke-width:0.5;"/><text fill="#006DAA" font-family="sans-serif" font-size="16" font-weight="bold" lengthAdjust="spacing" textLength="68" x="152" y="644.6094">Backend</text><text fill="#006DAA" font-family="sans-serif" font-size="14" lengthAdjust="spacing" textLength="4" x="184" y="662.6582">&#160;</text><text fill="#006DAA" font-family="sans-serif" font-size="14" lengthAdjust="spacing" textLength="57" x="95.5" y="680.2676">Business</text><text fill="#006DAA" font-family="sans-serif" font-size="14" lengthAdjust="spacing" textLength="4" x="152.5" y="680.2676">&#160;</text><text fill="#006DAA" font-family="sans-serif" font-size="14" lengthAdjust="spacing" textLength="34" x="156.5" y="680.2676">Logic</text><text fill="#006DAA" font-family="sans-serif" font-size="14" lengthAdjust="spacing" textLength="4" x="190.5" y="680.2676">&#160;</text><text fill="#006DAA" font-family="sans-serif" font-size="14" lengthAdjust="spacing" textLength="12" x="194.5" y="680.2676">of</text><text fill="#006DAA" font-family="sans-serif" font-size="14" lengthAdjust="spacing" textLength="4" x="206.5" y="680.2676">&#160;</text><text fill="#006DAA" font-family="sans-serif" font-size="14" lengthAdjust="spacing" textLength="20" x="210.5" y="680.2676">the</text><text fill="#006DAA" font-family="sans-serif" font-size="14" lengthAdjust="spacing" textLength="4" x="230.5" y="680.2676">&#160;</text><text fill="#006DAA" font-family="sans-serif" font-size="14" lengthAdjust="spacing" textLength="42" x="234.5" y="680.2676">reader</text></g><!--link Container_reader_frontend to Container_reader_backend--><g id="link_Container_reader_frontend_Container_reader_backend"><path d="M186,274.38 C186,355.24 186,482.48 186,558.89 " fill="none" id="Container_reader_frontend-to-Container_reader_backend" style="stroke:#666666;stroke-width:1.0;"/><polygon fill="#666666" points="186,566.89,189,558.89,183,558.89,186,566.89" style="stroke:#666666;stroke-width:1.0;"/><text fill="#666666" font-family="sans-serif" font-size="12" font-weight="bold" lengthAdjust="spacing" textLength="29" x="187" y="367.457">Uses</text></g></g></svg>