<svg xmlns="http://www.w3.org/2000/svg" xmlns:xlink="http://www.w3.org/1999/xlink" contentStyleType="text/css" height="534px" preserveAspectRatio="none" style="width:237px;height:534px;background:#FFFFFF;" version="1.1" viewBox="0 0 237 534" width="237px" zoomAndPan="magnify"><defs/><g><text fill="#000000" font-family="sans-serif" font-size="14" font-weight="bold" lengthAdjust="spacing" textLength="42" x="90.75" y="24.5332">Title 2</text><!--entity Person_user--><g id="elem_Person_user"><ellipse cx="91.5" cy="60.6094" fill="#006DAA" rx="16" ry="16" style="stroke:#004C76;stroke-width:0.5;"/><path d="M91.5,80.6094 C95.5,80.6094 98.5,80.6094 102.5,76.6094 C110.5,76.6094 118.5,84.6094 118.5,92.6094 L118.5,96.6094 C118.5,100.6094 114.5,104.6094 110.5,104.6094 L72.5,104.6094 C68.5,104.6094 64.5,100.6094 64.5,96.6094 L64.5,92.6094 C64.5,84.6094 72.5,76.6094 80.5,76.6094 C84.5,80.6094 87.5,80.6094 91.5,80.6094 " fill="#006DAA" style="stroke:#004C76;stroke-width:0.5;"/><text fill="#006DAA" font-family="sans-serif" font-size="16" font-weight="bold" lengthAdjust="spacing" textLength="36" x="73.5" y="121.7188">User</text></g><!--entity Person_sysadmin--><g id="elem_Person_sysadmin"><ellipse cx="192.5" cy="60.6094" fill="#006DAA" rx="16" ry="16" style="stroke:#004C76;stroke-width:0.5;"/><path d="M192.5,80.6094 C196.5,80.6094 199.5,80.6094 203.5,76.6094 C211.5,76.6094 219.5,84.6094 219.5,92.6094 L219.5,96.6094 C219.5,100.6094 215.5,104.6094 211.5,104.6094 L173.5,104.6094 C169.5,104.6094 165.5,100.6094 165.5,96.6094 L165.5,92.6094 C165.5,84.6094 173.5,76.6094 181.5,76.6094 C185.5,80.6094 188.5,80.6094 192.5,80.6094 " fill="#006DAA" style="stroke:#004C76;stroke-width:0.5;"/><text fill="#006DAA" font-family="sans-serif" font-size="16" font-weight="bold" lengthAdjust="spacing" textLength="76" x="154.5" y="121.7188">Sysadmin</text></g><!--entity SoftwareSystem_reader_ss--><g id="elem_SoftwareSystem_reader_ss"><ellipse cx="91.5" cy="218.6094" fill="#006DAA" rx="16" ry="16" style="stroke:#004C76;stroke-width:0.5;"/><path d="M91.5,238.6094 C95.5,238.6094 98.5,238.6094 102.5,234.6094 C110.5,234.6094 118.5,242.6094 118.5,250.6094 L118.5,254.6094 C118.5,258.6094 114.5,262.6094 110.5,262.6094 L72.5,262.6094 C68.5,262.6094 64.5,258.6094 64.5,254.6094 L64.5,250.6094 C64.5,242.6094 72.5,234.6094 80.5,234.6094 C84.5,238.6094 87.5,238.6094 91.5,238.6094 " fill="#006DAA" style="stroke:#004C76;stroke-width:0.5;"/><text fill="#006DAA" font-family="sans-serif" font-size="16" font-weight="bold" lengthAdjust="spacing" textLength="55" x="64" y="279.7188">Reader</text><text fill="#006DAA" font-family="sans-serif" font-size="14" lengthAdjust="spacing" textLength="4" x="89.5" y="297.7676">&#160;</text><text fill="#006DAA" font-family="sans-serif" font-size="14" lengthAdjust="spacing" textLength="39" x="8.5" y="315.377">Allows</text><text fill="#006DAA" font-family="sans-serif" font-size="14" lengthAdjust="spacing" textLength="4" x="47.5" y="315.377">&#160;</text><text fill="#006DAA" font-family="sans-serif" font-size="14" lengthAdjust="spacing" textLength="35" x="51.5" y="315.377">users</text><text fill="#006DAA" font-family="sans-serif" font-size="14" lengthAdjust="spacing" textLength="4" x="86.5" y="315.377">&#160;</text><text fill="#006DAA" font-family="sans-serif" font-size="14" lengthAdjust="spacing" textLength="12" x="90.5" y="315.377">to</text><text fill="#006DAA" font-family="sans-serif" font-size="14" lengthAdjust="spacing" textLength="4" x="102.5" y="315.377">&#160;</text><text fill="#006DAA" font-family="sans-serif" font-size="14" lengthAdjust="spacing" textLength="44" x="106.5" y="315.377">access</text><text fill="#006DAA" font-family="sans-serif" font-size="14" lengthAdjust="spacing" textLength="4" x="150.5" y="315.377">&#160;</text><text fill="#006DAA" font-family="sans-serif" font-size="14" lengthAdjust="spacing" textLength="20" x="154.5" y="315.377">the</text><text fill="#006DAA" font-family="sans-serif" font-size="14" lengthAdjust="spacing" textLength="42" x="70.5" y="332.9863">reader</text></g><!--entity SoftwareSystem_aws_ss--><g id="elem_SoftwareSystem_aws_ss"><ellipse cx="91.5" cy="429.6094" fill="#006DAA" rx="16" ry="16" style="stroke:#004C76;stroke-width:0.5;"/><path d="M91.5,449.6094 C95.5,449.6094 98.5,449.6094 102.5,445.6094 C110.5,445.6094 118.5,453.6094 118.5,461.6094 L118.5,465.6094 C118.5,469.6094 114.5,473.6094 110.5,473.6094 L72.5,473.6094 C68.5,473.6094 64.5,469.6094 64.5,465.6094 L64.5,461.6094 C64.5,453.6094 72.5,445.6094 80.5,445.6094 C84.5,449.6094 87.5,449.6094 91.5,449.6094 " fill="#006DAA" style="stroke:#004C76;stroke-width:0.5;"/><text fill="#006DAA" font-family="sans-serif" font-size="16" font-weight="bold" lengthAdjust="spacing" textLength="63" x="6" y="490.7188">Amazon</text><text fill="#006DAA" font-family="sans-serif" font-size="16" font-weight="bold" lengthAdjust="spacing" textLength="4" x="69" y="490.7188">&#160;</text><text fill="#006DAA" font-family="sans-serif" font-size="16" font-weight="bold" lengthAdjust="spacing" textLength="34" x="73" y="490.7188">Web</text><text fill="#006DAA" font-family="sans-serif" font-size="16" font-weight="bold" lengthAdjust="spacing" textLength="4" x="107" y="490.7188">&#160;</text><text fill="#006DAA" font-family="sans-serif" font-size="16" font-weight="bold" lengthAdjust="spacing" textLength="66" x="111" y="490.7188">Services</text><text fill="#006DAA" font-family="sans-serif" font-size="14" lengthAdjust="spacing" textLength="4" x="89.5" y="508.7676">&#160;</text><text fill="#006DAA" font-family="sans-serif" font-size="14" lengthAdjust="spacing" textLength="41" x="50" y="526.377">Stores</text><text fill="#006DAA" font-family="sans-serif" font-size="14" lengthAdjust="spacing" textLength="4" x="91" y="526.377">&#160;</text><text fill="#006DAA" font-family="sans-serif" font-size="14" lengthAdjust="spacing" textLength="38" x="95" y="526.377">books</text></g><!--link Person_user to SoftwareSystem_reader_ss--><g id="link_Person_user_SoftwareSystem_reader_ss"><path d="M91.5,125.2094 C91.5,147.6394 91.5,168.2894 91.5,194.0294 " fill="none" id="Person_user-to-SoftwareSystem_reader_ss" style="stroke:#666666;stroke-width:1.0;"/><polygon fill="#666666" points="91.5,202.0294,94.5,194.0294,88.5,194.0294,91.5,202.0294" style="stroke:#666666;stroke-width:1.0;"/><text fill="#666666" font-family="sans-serif" font-size="12" font-weight="bold" lengthAdjust="spacing" textLength="29" x="92.5" y="168.5664">Uses</text></g><!--link SoftwareSystem_reader_ss to SoftwareSystem_aws_ss--><g id="link_SoftwareSystem_reader_ss_SoftwareSystem_aws_ss"><path d="M91.5,336.1494 C91.5,360.9594 91.5,380.9194 91.5,404.8594 " fill="none" id="SoftwareSystem_reader_ss-to-SoftwareSystem_aws_ss" style="stroke:#666666;stroke-width:1.0;"/><polygon fill="#666666" points="91.5,412.8594,94.5,404.8594,88.5,404.8594,91.5,412.8594" style="stroke:#666666;stroke-width:1.0;"/><text fill="#666666" font-family="sans-serif" font-size="12" font-weight="bold" lengthAdjust="spacing" textLength="98" x="92.5" y="379.5664">Upload/Download</text><text fill="#666666" font-family="sans-serif" font-size="12" font-weight="bold" lengthAdjust="spacing" textLength="3" x="190.5" y="379.5664">&#160;</text><text fill="#666666" font-family="sans-serif" font-size="12" font-weight="bold" lengthAdjust="spacing" textLength="35" x="193.5" y="379.5664">media</text></g></g></svg>