<svg xmlns="http://www.w3.org/2000/svg" xmlns:xlink="http://www.w3.org/1999/xlink" contentStyleType="text/css" height="397px" preserveAspectRatio="none" style="width:705px;height:397px;background:#FFFFFF;" version="1.1" viewBox="0 0 705 397" width="705px" zoomAndPan="magnify"><defs/><g><!--cluster DeploymentNode_netlify--><g id="cluster_DeploymentNode_netlify"><rect fill="#FFFFFF" height="331" rx="2.5" ry="2.5" style="stroke:#A2A2A2;stroke-width:1.0;" width="310" x="7" y="45"/><text fill="#000000" font-family="sans-serif" font-size="16" font-weight="bold" lengthAdjust="spacing" textLength="48" x="138" y="63.6094">Netlify</text></g><!--cluster DeploymentNode_app_netlify_app--><g id="cluster_DeploymentNode_app_netlify_app"><rect fill="#FFFFFF" height="260" rx="2.5" ry="2.5" style="stroke:#A2A2A2;stroke-width:1.0;" width="262" x="31" y="92"/><text fill="#000000" font-family="sans-serif" font-size="16" font-weight="bold" lengthAdjust="spacing" textLength="112" x="106" y="110.6094">app.netlify.app</text></g><!--cluster ContainerInstance_auto_56c1032f_6f43_4870_8ab7_4b2e59c58960--><g id="cluster_ContainerInstance_auto_56c1032f_6f43_4870_8ab7_4b2e59c58960"><rect fill="#FFFFFF" height="189" rx="2.5" ry="2.5" style="stroke:#A2A2A2;stroke-width:1.0;" width="214" x="55" y="139"/><text fill="#000000" font-family="sans-serif" font-size="16" font-weight="bold" lengthAdjust="spacing" textLength="4" x="160" y="157.6094">&#160;</text></g><!--cluster DeploymentNode_fly_io--><g id="cluster_DeploymentNode_fly_io"><rect fill="#FFFFFF" height="384" rx="2.5" ry="2.5" style="stroke:#A2A2A2;stroke-width:1.0;" width="358" x="341" y="7"/><text fill="#000000" font-family="sans-serif" font-size="16" font-weight="bold" lengthAdjust="spacing" textLength="36" x="502" y="25.6094">fly.io</text></g><!--cluster DeploymentNode_app_fly_io--><g id="cluster_DeploymentNode_app_fly_io"><rect fill="#FFFFFF" height="313" rx="2.5" ry="2.5" style="stroke:#A2A2A2;stroke-width:1.0;" width="310" x="365" y="54"/><text fill="#000000" font-family="sans-serif" font-size="16" font-weight="bold" lengthAdjust="spacing" textLength="69" x="485.5" y="72.6094">app.fly.io</text></g><!--cluster DeploymentNode_Application_Server--><g id="cluster_DeploymentNode_Application_Server"><rect fill="#FFFFFF" height="242" rx="2.5" ry="2.5" style="stroke:#A2A2A2;stroke-width:1.0;" width="262" x="389" y="101"/><text fill="#000000" font-family="sans-serif" font-size="16" font-weight="bold" lengthAdjust="spacing" textLength="140" x="450" y="119.6094">Application Server</text></g><!--cluster ContainerInstance_auto_159a176f_947b_4b2e_ab95_d70bb3940d88--><g id="cluster_ContainerInstance_auto_159a176f_947b_4b2e_ab95_d70bb3940d88"><rect fill="#FFFFFF" height="171" rx="2.5" ry="2.5" style="stroke:#A2A2A2;stroke-width:1.0;" width="214" x="413" y="148"/><text fill="#000000" font-family="sans-serif" font-size="16" font-weight="bold" lengthAdjust="spacing" textLength="4" x="518" y="166.6094">&#160;</text></g><!--entity Container_reader_frontend--><g id="elem_Container_reader_frontend"><ellipse cx="162" cy="194.5" fill="#006DAA" rx="16" ry="16" style="stroke:#004C76;stroke-width:0.5;"/><path d="M162,214.5 C166,214.5 169,214.5 173,210.5 C181,210.5 189,218.5 189,226.5 L189,230.5 C189,234.5 185,238.5 181,238.5 L143,238.5 C139,238.5 135,234.5 135,230.5 L135,226.5 C135,218.5 143,210.5 151,210.5 C155,214.5 158,214.5 162,214.5 " fill="#006DAA" style="stroke:#004C76;stroke-width:0.5;"/><text fill="#006DAA" font-family="sans-serif" font-size="16" font-weight="bold" lengthAdjust="spacing" textLength="48" x="71.5" y="255.6094">Single</text><text fill="#006DAA" font-family="sans-serif" font-size="16" font-weight="bold" lengthAdjust="spacing" textLength="4" x="119.5" y="255.6094">&#160;</text><text fill="#006DAA" font-family="sans-serif" font-size="16" font-weight="bold" lengthAdjust="spacing" textLength="39" x="123.5" y="255.6094">Page</text><text fill="#006DAA" font-family="sans-serif" font-size="16" font-weight="bold" lengthAdjust="spacing" textLength="4" x="162.5" y="255.6094">&#160;</text><text fill="#006DAA" font-family="sans-serif" font-size="16" font-weight="bold" lengthAdjust="spacing" textLength="86" x="166.5" y="255.6094">Application</text><text fill="#006DAA" font-family="sans-serif" font-size="14" lengthAdjust="spacing" textLength="4" x="160" y="273.6582">&#160;</text><text fill="#006DAA" font-family="sans-serif" font-size="14" lengthAdjust="spacing" textLength="39" x="78.5" y="291.2676">Allows</text><text fill="#006DAA" font-family="sans-serif" font-size="14" lengthAdjust="spacing" textLength="4" x="117.5" y="291.2676">&#160;</text><text fill="#006DAA" font-family="sans-serif" font-size="14" lengthAdjust="spacing" textLength="35" x="121.5" y="291.2676">users</text><text fill="#006DAA" font-family="sans-serif" font-size="14" lengthAdjust="spacing" textLength="4" x="156.5" y="291.2676">&#160;</text><text fill="#006DAA" font-family="sans-serif" font-size="14" lengthAdjust="spacing" textLength="12" x="160.5" y="291.2676">to</text><text fill="#006DAA" font-family="sans-serif" font-size="14" lengthAdjust="spacing" textLength="4" x="172.5" y="291.2676">&#160;</text><text fill="#006DAA" font-family="sans-serif" font-size="14" lengthAdjust="spacing" textLength="23" x="176.5" y="291.2676">use</text><text fill="#006DAA" font-family="sans-serif" font-size="14" lengthAdjust="spacing" textLength="4" x="199.5" y="291.2676">&#160;</text><text fill="#006DAA" font-family="sans-serif" font-size="14" lengthAdjust="spacing" textLength="42" x="203.5" y="291.2676">reader</text><text fill="#006DAA" font-family="sans-serif" font-size="14" lengthAdjust="spacing" textLength="86" x="119" y="308.877">functionalities</text></g><!--entity Container_reader_backend--><g id="elem_Container_reader_backend"><ellipse cx="520" cy="203.5" fill="#006DAA" rx="16" ry="16" style="stroke:#004C76;stroke-width:0.5;"/><path d="M520,223.5 C524,223.5 527,223.5 531,219.5 C539,219.5 547,227.5 547,235.5 L547,239.5 C547,243.5 543,247.5 539,247.5 L501,247.5 C497,247.5 493,243.5 493,239.5 L493,235.5 C493,227.5 501,219.5 509,219.5 C513,223.5 516,223.5 520,223.5 " fill="#006DAA" style="stroke:#004C76;stroke-width:0.5;"/><text fill="#006DAA" font-family="sans-serif" font-size="16" font-weight="bold" lengthAdjust="spacing" textLength="68" x="486" y="264.6094">Backend</text><text fill="#006DAA" font-family="sans-serif" font-size="14" lengthAdjust="spacing" textLength="4" x="518" y="282.6582">&#160;</text><text fill="#006DAA" font-family="sans-serif" font-size="14" lengthAdjust="spacing" textLength="57" x="429.5" y="300.2676">Business</text><text fill="#006DAA" font-family="sans-serif" font-size="14" lengthAdjust="spacing" textLength="4" x="486.5" y="300.2676">&#160;</text><text fill="#006DAA" font-family="sans-serif" font-size="14" lengthAdjust="spacing" textLength="34" x="490.5" y="300.2676">Logic</text><text fill="#006DAA" font-family="sans-serif" font-size="14" lengthAdjust="spacing" textLength="4" x="524.5" y="300.2676">&#160;</text><text fill="#006DAA" font-family="sans-serif" font-size="14" lengthAdjust="spacing" textLength="12" x="528.5" y="300.2676">of</text><text fill="#006DAA" font-family="sans-serif" font-size="14" lengthAdjust="spacing" textLength="4" x="540.5" y="300.2676">&#160;</text><text fill="#006DAA" font-family="sans-serif" font-size="14" lengthAdjust="spacing" textLength="20" x="544.5" y="300.2676">the</text><text fill="#006DAA" font-family="sans-serif" font-size="14" lengthAdjust="spacing" textLength="4" x="564.5" y="300.2676">&#160;</text><text fill="#006DAA" font-family="sans-serif" font-size="14" lengthAdjust="spacing" textLength="42" x="568.5" y="300.2676">reader</text></g></g></svg>