<svg xmlns="http://www.w3.org/2000/svg" xmlns:xlink="http://www.w3.org/1999/xlink" contentStyleType="text/css" height="704px" preserveAspectRatio="none" style="width:266px;height:704px;background:#FFFFFF;" version="1.1" viewBox="0 0 266 704" width="266px" zoomAndPan="magnify"><defs><filter height="300%" id="fvjtzi4j5il45" width="300%" x="-1" y="-1"><feGaussianBlur result="blurOut" stdDeviation="2.0"/><feColorMatrix in="blurOut" result="blurOut2" type="matrix" values="0 0 0 0 0 0 0 0 0 0 0 0 0 0 0 0 0 0 .4 0"/><feOffset dx="4.0" dy="4.0" in="blurOut2" result="blurOut3"/><feBlend in="SourceGraphic" in2="blurOut3" mode="normal"/></filter></defs><g><text fill="#000000" font-family="sans-serif" font-size="14" font-weight="bold" lengthAdjust="spacing" textLength="158" x="47" y="24.5332">Application Landscape</text><!--entity Person_user--><g id="elem_Person_user"><ellipse cx="145" cy="60.6094" fill="#438DD5" rx="16" ry="16" style="stroke:#3C7FC0;stroke-width:0.5;"/><path d="M145,80.6094 C149,80.6094 152,80.6094 156,76.6094 C164,76.6094 172,84.6094 172,92.6094 L172,96.6094 C172,100.6094 168,104.6094 164,104.6094 L126,104.6094 C122,104.6094 118,100.6094 118,96.6094 L118,92.6094 C118,84.6094 126,76.6094 134,76.6094 C138,80.6094 141,80.6094 145,80.6094 " fill="#438DD5" style="stroke:#3C7FC0;stroke-width:0.5;"/><text fill="#438DD5" font-family="sans-serif" font-size="16" font-weight="bold" lengthAdjust="spacing" textLength="36" x="127" y="121.7188">User</text></g><!--entity Person_sysadmin--><g id="elem_Person_sysadmin"><ellipse cx="221" cy="60.6094" fill="#438DD5" rx="16" ry="16" style="stroke:#3C7FC0;stroke-width:0.5;"/><path d="M221,80.6094 C225,80.6094 228,80.6094 232,76.6094 C240,76.6094 248,84.6094 248,92.6094 L248,96.6094 C248,100.6094 244,104.6094 240,104.6094 L202,104.6094 C198,104.6094 194,100.6094 194,96.6094 L194,92.6094 C194,84.6094 202,76.6094 210,76.6094 C214,80.6094 217,80.6094 221,80.6094 " fill="#438DD5" style="stroke:#3C7FC0;stroke-width:0.5;"/><text fill="#438DD5" font-family="sans-serif" font-size="16" font-weight="bold" lengthAdjust="spacing" textLength="76" x="183" y="121.7188">Sysadmin</text></g><!--entity SoftwareSystem_reader_ss--><g id="elem_SoftwareSystem_reader_ss"><ellipse cx="145" cy="296.1094" fill="#FF0000" filter="url(#fvjtzi4j5il45)" rx="16" ry="16" style="stroke:#FFA500;stroke-width:5.0;stroke-dasharray:1.0,1.0;"/><path d="M145,316.1094 C149,316.1094 152,316.1094 156,312.1094 C164,312.1094 172,320.1094 172,328.1094 L172,332.1094 C172,336.1094 168,340.1094 164,340.1094 L126,340.1094 C122,340.1094 118,336.1094 118,332.1094 L118,328.1094 C118,320.1094 126,312.1094 134,312.1094 C138,316.1094 141,316.1094 145,316.1094 " fill="#FF0000" filter="url(#fvjtzi4j5il45)" style="stroke:#FFA500;stroke-width:5.0;stroke-dasharray:1.0,1.0;"/><text fill="#FF0000" font-family="sans-serif" font-size="16" font-weight="bold" lengthAdjust="spacing" textLength="55" x="117.5" y="361.7188">Reader</text><text fill="#FF0000" font-family="sans-serif" font-size="12" font-style="italic" lengthAdjust="spacing" textLength="57" x="78.5" y="377.6914">[Awesome</text><text fill="#FF0000" font-family="sans-serif" font-size="12" font-style="italic" lengthAdjust="spacing" textLength="3" x="135.5" y="377.6914">&#160;</text><text fill="#FF0000" font-family="sans-serif" font-size="12" font-style="italic" lengthAdjust="spacing" textLength="73" x="138.5" y="377.6914">technologies]</text><text fill="#FF0000" font-family="sans-serif" font-size="14" lengthAdjust="spacing" textLength="4" x="143" y="394.8613">&#160;</text><text fill="#FF0000" font-family="sans-serif" font-size="14" lengthAdjust="spacing" textLength="39" x="62" y="412.4707">Allows</text><text fill="#FF0000" font-family="sans-serif" font-size="14" lengthAdjust="spacing" textLength="4" x="101" y="412.4707">&#160;</text><text fill="#FF0000" font-family="sans-serif" font-size="14" lengthAdjust="spacing" textLength="35" x="105" y="412.4707">users</text><text fill="#FF0000" font-family="sans-serif" font-size="14" lengthAdjust="spacing" textLength="4" x="140" y="412.4707">&#160;</text><text fill="#FF0000" font-family="sans-serif" font-size="14" lengthAdjust="spacing" textLength="12" x="144" y="412.4707">to</text><text fill="#FF0000" font-family="sans-serif" font-size="14" lengthAdjust="spacing" textLength="4" x="156" y="412.4707">&#160;</text><text fill="#FF0000" font-family="sans-serif" font-size="14" lengthAdjust="spacing" textLength="44" x="160" y="412.4707">access</text><text fill="#FF0000" font-family="sans-serif" font-size="14" lengthAdjust="spacing" textLength="4" x="204" y="412.4707">&#160;</text><text fill="#FF0000" font-family="sans-serif" font-size="14" lengthAdjust="spacing" textLength="20" x="208" y="412.4707">the</text><text fill="#FF0000" font-family="sans-serif" font-size="14" lengthAdjust="spacing" textLength="42" x="124" y="430.0801">reader</text></g><!--entity SoftwareSystem_aws_ss--><g id="elem_SoftwareSystem_aws_ss"><ellipse cx="145" cy="599.6094" fill="#438DD5" rx="16" ry="16" style="stroke:#3C7FC0;stroke-width:0.5;"/><path d="M145,619.6094 C149,619.6094 152,619.6094 156,615.6094 C164,615.6094 172,623.6094 172,631.6094 L172,635.6094 C172,639.6094 168,643.6094 164,643.6094 L126,643.6094 C122,643.6094 118,639.6094 118,635.6094 L118,631.6094 C118,623.6094 126,615.6094 134,615.6094 C138,619.6094 141,619.6094 145,619.6094 " fill="#438DD5" style="stroke:#3C7FC0;stroke-width:0.5;"/><text fill="#438DD5" font-family="sans-serif" font-size="16" font-weight="bold" lengthAdjust="spacing" textLength="63" x="59.5" y="660.7188">Amazon</text><text fill="#438DD5" font-family="sans-serif" font-size="16" font-weight="bold" lengthAdjust="spacing" textLength="4" x="122.5" y="660.7188">&#160;</text><text fill="#438DD5" font-family="sans-serif" font-size="16" font-weight="bold" lengthAdjust="spacing" textLength="34" x="126.5" y="660.7188">Web</text><text fill="#438DD5" font-family="sans-serif" font-size="16" font-weight="bold" lengthAdjust="spacing" textLength="4" x="160.5" y="660.7188">&#160;</text><text fill="#438DD5" font-family="sans-serif" font-size="16" font-weight="bold" lengthAdjust="spacing" textLength="66" x="164.5" y="660.7188">Services</text><text fill="#438DD5" font-family="sans-serif" font-size="14" lengthAdjust="spacing" textLength="4" x="143" y="678.7676">&#160;</text><text fill="#438DD5" font-family="sans-serif" font-size="14" lengthAdjust="spacing" textLength="41" x="103.5" y="696.377">Stores</text><text fill="#438DD5" font-family="sans-serif" font-size="14" lengthAdjust="spacing" textLength="4" x="144.5" y="696.377">&#160;</text><text fill="#438DD5" font-family="sans-serif" font-size="14" lengthAdjust="spacing" textLength="38" x="148.5" y="696.377">books</text></g><!--link Person_user to SoftwareSystem_reader_ss--><g id="link_Person_user_SoftwareSystem_reader_ss"><path d="M145,125.2494 C145,164.7294 145,217.7394 145,266.8394 " fill="none" id="Person_user-to-SoftwareSystem_reader_ss" style="stroke:#666666;stroke-width:1.0;"/><polygon fill="#666666" points="145,274.8394,148,266.8394,142,266.8394,145,274.8394" style="stroke:#666666;stroke-width:1.0;"/><text fill="#666666" font-family="sans-serif" font-size="0" lengthAdjust="spacing" textLength="0" x="129" y="159.0494">.</text><text fill="#666666" font-family="sans-serif" font-size="12" lengthAdjust="spacing" textLength="3" x="127.5" y="181.5064">&#160;</text><text fill="#666666" font-family="sans-serif" font-size="12" lengthAdjust="spacing" textLength="30" x="114" y="196.6002">Uses</text></g><!--link SoftwareSystem_reader_ss to SoftwareSystem_aws_ss--><g id="link_SoftwareSystem_reader_ss_SoftwareSystem_aws_ss"><path d="M145,433.2894 C145,480.5794 145,531.6194 145,574.6694 " fill="none" id="SoftwareSystem_reader_ss-to-SoftwareSystem_aws_ss" style="stroke:#666666;stroke-width:1.0;"/><polygon fill="#666666" points="145,582.6694,148,574.6694,142,574.6694,145,582.6694" style="stroke:#666666;stroke-width:1.0;"/><text fill="#666666" font-family="sans-serif" font-size="0" lengthAdjust="spacing" textLength="0" x="75.5" y="466.9794">.</text><text fill="#666666" font-family="sans-serif" font-size="12" lengthAdjust="spacing" textLength="3" x="74" y="489.4364">&#160;</text><text fill="#666666" font-family="sans-serif" font-size="12" lengthAdjust="spacing" textLength="99" x="7" y="504.5302">Upload/Download</text><text fill="#666666" font-family="sans-serif" font-size="12" lengthAdjust="spacing" textLength="3" x="106" y="504.5302">&#160;</text><text fill="#666666" font-family="sans-serif" font-size="12" lengthAdjust="spacing" textLength="35" x="109" y="504.5302">media</text></g></g></svg>