<svg xmlns="http://www.w3.org/2000/svg" xmlns:xlink="http://www.w3.org/1999/xlink" contentStyleType="text/css" height="636px" preserveAspectRatio="none" style="width:282px;height:636px;background:#FFFFFF;" version="1.1" viewBox="0 0 282 636" width="282px" zoomAndPan="magnify"><defs><filter height="300%" id="f8suzh6jlagh9" width="300%" x="-1" y="-1"><feGaussianBlur result="blurOut" stdDeviation="2.0"/><feColorMatrix in="blurOut" result="blurOut2" type="matrix" values="0 0 0 0 0 0 0 0 0 0 0 0 0 0 0 0 0 0 .4 0"/><feOffset dx="4.0" dy="4.0" in="blurOut2" result="blurOut3"/><feBlend in="SourceGraphic" in2="blurOut3" mode="normal"/></filter></defs><g><text fill="#000000" font-family="sans-serif" font-size="14" font-weight="bold" lengthAdjust="spacing" textLength="254" x="10" y="24.5332">Application Landscape - without text</text><!--entity Person_user--><g id="elem_Person_user"><ellipse cx="134.75" cy="60.6094" fill="#438DD5" rx="16" ry="16" style="stroke:#3C7FC0;stroke-width:0.5;"/><path d="M134.75,80.6094 C138.75,80.6094 141.75,80.6094 145.75,76.6094 C153.75,76.6094 161.75,84.6094 161.75,92.6094 L161.75,96.6094 C161.75,100.6094 157.75,104.6094 153.75,104.6094 L115.75,104.6094 C111.75,104.6094 107.75,100.6094 107.75,96.6094 L107.75,92.6094 C107.75,84.6094 115.75,76.6094 123.75,76.6094 C127.75,80.6094 130.75,80.6094 134.75,80.6094 " fill="#438DD5" style="stroke:#3C7FC0;stroke-width:0.5;"/><text fill="#438DD5" font-family="sans-serif" font-size="16" font-weight="bold" lengthAdjust="spacing" textLength="36" x="116.75" y="121.7188">User</text></g><!--entity Person_sysadmin--><g id="elem_Person_sysadmin"><ellipse cx="210.75" cy="60.6094" fill="#438DD5" rx="16" ry="16" style="stroke:#3C7FC0;stroke-width:0.5;"/><path d="M210.75,80.6094 C214.75,80.6094 217.75,80.6094 221.75,76.6094 C229.75,76.6094 237.75,84.6094 237.75,92.6094 L237.75,96.6094 C237.75,100.6094 233.75,104.6094 229.75,104.6094 L191.75,104.6094 C187.75,104.6094 183.75,100.6094 183.75,96.6094 L183.75,92.6094 C183.75,84.6094 191.75,76.6094 199.75,76.6094 C203.75,80.6094 206.75,80.6094 210.75,80.6094 " fill="#438DD5" style="stroke:#3C7FC0;stroke-width:0.5;"/><text fill="#438DD5" font-family="sans-serif" font-size="16" font-weight="bold" lengthAdjust="spacing" textLength="76" x="172.75" y="121.7188">Sysadmin</text></g><!--entity SoftwareSystem_reader_ss--><g id="elem_SoftwareSystem_reader_ss"><rect fill="#FF0000" filter="url(#f8suzh6jlagh9)" height="108.0469" rx="2.5" ry="2.5" style="stroke:#FFA500;stroke-width:5.0;stroke-dasharray:1.0,1.0;" width="186" x="41.75" y="275.1094"/><text fill="#000000" font-family="sans-serif" font-size="16" font-weight="bold" lengthAdjust="spacing" textLength="55" x="107.25" y="301.7188">Reader</text><text fill="#000000" font-family="sans-serif" font-size="12" font-style="italic" lengthAdjust="spacing" textLength="57" x="68.25" y="317.6914">[Awesome</text><text fill="#000000" font-family="sans-serif" font-size="12" font-style="italic" lengthAdjust="spacing" textLength="3" x="125.25" y="317.6914">&#160;</text><text fill="#000000" font-family="sans-serif" font-size="12" font-style="italic" lengthAdjust="spacing" textLength="73" x="128.25" y="317.6914">technologies]</text><text fill="#000000" font-family="sans-serif" font-size="14" lengthAdjust="spacing" textLength="4" x="132.75" y="334.8613">&#160;</text><text fill="#000000" font-family="sans-serif" font-size="14" lengthAdjust="spacing" textLength="39" x="51.75" y="352.4707">Allows</text><text fill="#000000" font-family="sans-serif" font-size="14" lengthAdjust="spacing" textLength="4" x="90.75" y="352.4707">&#160;</text><text fill="#000000" font-family="sans-serif" font-size="14" lengthAdjust="spacing" textLength="35" x="94.75" y="352.4707">users</text><text fill="#000000" font-family="sans-serif" font-size="14" lengthAdjust="spacing" textLength="4" x="129.75" y="352.4707">&#160;</text><text fill="#000000" font-family="sans-serif" font-size="14" lengthAdjust="spacing" textLength="12" x="133.75" y="352.4707">to</text><text fill="#000000" font-family="sans-serif" font-size="14" lengthAdjust="spacing" textLength="4" x="145.75" y="352.4707">&#160;</text><text fill="#000000" font-family="sans-serif" font-size="14" lengthAdjust="spacing" textLength="44" x="149.75" y="352.4707">access</text><text fill="#000000" font-family="sans-serif" font-size="14" lengthAdjust="spacing" textLength="4" x="193.75" y="352.4707">&#160;</text><text fill="#000000" font-family="sans-serif" font-size="14" lengthAdjust="spacing" textLength="20" x="197.75" y="352.4707">the</text><text fill="#000000" font-family="sans-serif" font-size="14" lengthAdjust="spacing" textLength="42" x="113.75" y="370.0801">reader</text></g><!--entity SoftwareSystem_aws_ss--><g id="elem_SoftwareSystem_aws_ss"><rect fill="#438DD5" height="96.9531" rx="2.5" ry="2.5" style="stroke:#3C7FC0;stroke-width:0.5;" width="191" x="39.25" y="533.1094"/><text fill="#FFFFFF" font-family="sans-serif" font-size="16" font-weight="bold" lengthAdjust="spacing" textLength="63" x="49.25" y="559.7188">Amazon</text><text fill="#FFFFFF" font-family="sans-serif" font-size="16" font-weight="bold" lengthAdjust="spacing" textLength="4" x="112.25" y="559.7188">&#160;</text><text fill="#FFFFFF" font-family="sans-serif" font-size="16" font-weight="bold" lengthAdjust="spacing" textLength="34" x="116.25" y="559.7188">Web</text><text fill="#FFFFFF" font-family="sans-serif" font-size="16" font-weight="bold" lengthAdjust="spacing" textLength="4" x="150.25" y="559.7188">&#160;</text><text fill="#FFFFFF" font-family="sans-serif" font-size="16" font-weight="bold" lengthAdjust="spacing" textLength="66" x="154.25" y="559.7188">Services</text><text fill="#FFFFFF" font-family="sans-serif" font-size="14" lengthAdjust="spacing" textLength="4" x="132.75" y="577.7676">&#160;</text><text fill="#FFFFFF" font-family="sans-serif" font-size="14" lengthAdjust="spacing" textLength="41" x="93.25" y="595.377">Stores</text><text fill="#FFFFFF" font-family="sans-serif" font-size="14" lengthAdjust="spacing" textLength="4" x="134.25" y="595.377">&#160;</text><text fill="#FFFFFF" font-family="sans-serif" font-size="14" lengthAdjust="spacing" textLength="38" x="138.25" y="595.377">books</text><text fill="#FFFFFF" font-family="sans-serif" font-size="14" lengthAdjust="spacing" textLength="44" x="93.25" y="614.9863">vendor</text><text fill="#FFFFFF" font-family="sans-serif" font-size="14" font-weight="bold" lengthAdjust="spacing" textLength="31" x="145.25" y="614.9863">AWS</text><line style="stroke:#FFFFFF;stroke-width:0.5;" x1="89.25" x2="180.25" y1="600.4531" y2="600.4531"/><line style="stroke:#FFFFFF;stroke-width:0.5;" x1="89.25" x2="180.25" y1="618.0625" y2="618.0625"/><line style="stroke:#FFFFFF;stroke-width:0.5;" x1="89.25" x2="89.25" y1="600.4531" y2="618.0625"/><line style="stroke:#FFFFFF;stroke-width:0.5;" x1="141.25" x2="141.25" y1="600.4531" y2="618.0625"/><line style="stroke:#FFFFFF;stroke-width:0.5;" x1="180.25" x2="180.25" y1="600.4531" y2="618.0625"/></g><!--link Person_user to SoftwareSystem_reader_ss--><g id="link_Person_user_SoftwareSystem_reader_ss"><path d="M134.75,125.2594 C134.75,166.2694 134.75,221.8194 134.75,267.0594 " fill="none" id="Person_user-to-SoftwareSystem_reader_ss" style="stroke:#666666;stroke-width:1.0;"/><polygon fill="#666666" points="134.75,275.0594,137.75,267.0594,131.75,267.0594,134.75,275.0594" style="stroke:#666666;stroke-width:1.0;"/><text fill="#666666" font-family="sans-serif" font-size="0" lengthAdjust="spacing" textLength="0" x="133.75" y="189.1594">.</text></g><!--link SoftwareSystem_reader_ss to SoftwareSystem_aws_ss--><g id="link_SoftwareSystem_reader_ss_SoftwareSystem_aws_ss"><path d="M134.75,383.2794 C134.75,427.7594 134.75,482.2094 134.75,525.0794 " fill="none" id="SoftwareSystem_reader_ss-to-SoftwareSystem_aws_ss" style="stroke:#666666;stroke-width:1.0;"/><polygon fill="#666666" points="134.75,533.0794,137.75,525.0794,131.75,525.0794,134.75,533.0794" style="stroke:#666666;stroke-width:1.0;"/><text fill="#666666" font-family="sans-serif" font-size="0" lengthAdjust="spacing" textLength="0" x="133.75" y="447.1794">.</text></g></g></svg>