<svg xmlns="http://www.w3.org/2000/svg" xmlns:xlink="http://www.w3.org/1999/xlink" contentStyleType="text/css" height="636px" preserveAspectRatio="none" style="width:266px;height:636px;background:#FFFFFF;" version="1.1" viewBox="0 0 266 636" width="266px" zoomAndPan="magnify"><defs><filter height="300%" id="f194b7k6pmqlkn" width="300%" x="-1" y="-1"><feGaussianBlur result="blurOut" stdDeviation="2.0"/><feColorMatrix in="blurOut" result="blurOut2" type="matrix" values="0 0 0 0 0 0 0 0 0 0 0 0 0 0 0 0 0 0 .4 0"/><feOffset dx="4.0" dy="4.0" in="blurOut2" result="blurOut3"/><feBlend in="SourceGraphic" in2="blurOut3" mode="normal"/></filter></defs><g><text fill="#000000" font-family="sans-serif" font-size="14" font-weight="bold" lengthAdjust="spacing" textLength="158" x="47" y="24.5332">Application Landscape</text><!--entity Person_user--><g id="elem_Person_user"><ellipse cx="145" cy="60.6094" fill="#438DD5" rx="16" ry="16" style="stroke:#3C7FC0;stroke-width:0.5;"/><path d="M145,80.6094 C149,80.6094 152,80.6094 156,76.6094 C164,76.6094 172,84.6094 172,92.6094 L172,96.6094 C172,100.6094 168,104.6094 164,104.6094 L126,104.6094 C122,104.6094 118,100.6094 118,96.6094 L118,92.6094 C118,84.6094 126,76.6094 134,76.6094 C138,80.6094 141,80.6094 145,80.6094 " fill="#438DD5" style="stroke:#3C7FC0;stroke-width:0.5;"/><text fill="#438DD5" font-family="sans-serif" font-size="16" font-weight="bold" lengthAdjust="spacing" textLength="36" x="127" y="121.7188">User</text></g><!--entity Person_sysadmin--><g id="elem_Person_sysadmin"><ellipse cx="221" cy="60.6094" fill="#438DD5" rx="16" ry="16" style="stroke:#3C7FC0;stroke-width:0.5;"/><path d="M221,80.6094 C225,80.6094 228,80.6094 232,76.6094 C240,76.6094 248,84.6094 248,92.6094 L248,96.6094 C248,100.6094 244,104.6094 240,104.6094 L202,104.6094 C198,104.6094 194,100.6094 194,96.6094 L194,92.6094 C194,84.6094 202,76.6094 210,76.6094 C214,80.6094 217,80.6094 221,80.6094 " fill="#438DD5" style="stroke:#3C7FC0;stroke-width:0.5;"/><text fill="#438DD5" font-family="sans-serif" font-size="16" font-weight="bold" lengthAdjust="spacing" textLength="76" x="183" y="121.7188">Sysadmin</text></g><!--entity SoftwareSystem_reader_ss--><g id="elem_SoftwareSystem_reader_ss"><rect fill="#FF0000" filter="url(#f194b7k6pmqlkn)" height="108.0469" rx="2.5" ry="2.5" style="stroke:#FFA500;stroke-width:5.0;stroke-dasharray:1.0,1.0;" width="186" x="52" y="275.1094"/><text fill="#000000" font-family="sans-serif" font-size="16" font-weight="bold" lengthAdjust="spacing" textLength="55" x="117.5" y="301.7188">Reader</text><text fill="#000000" font-family="sans-serif" font-size="12" font-style="italic" lengthAdjust="spacing" textLength="57" x="78.5" y="317.6914">[Awesome</text><text fill="#000000" font-family="sans-serif" font-size="12" font-style="italic" lengthAdjust="spacing" textLength="3" x="135.5" y="317.6914">&#160;</text><text fill="#000000" font-family="sans-serif" font-size="12" font-style="italic" lengthAdjust="spacing" textLength="73" x="138.5" y="317.6914">technologies]</text><text fill="#000000" font-family="sans-serif" font-size="14" lengthAdjust="spacing" textLength="4" x="143" y="334.8613">&#160;</text><text fill="#000000" font-family="sans-serif" font-size="14" lengthAdjust="spacing" textLength="39" x="62" y="352.4707">Allows</text><text fill="#000000" font-family="sans-serif" font-size="14" lengthAdjust="spacing" textLength="4" x="101" y="352.4707">&#160;</text><text fill="#000000" font-family="sans-serif" font-size="14" lengthAdjust="spacing" textLength="35" x="105" y="352.4707">users</text><text fill="#000000" font-family="sans-serif" font-size="14" lengthAdjust="spacing" textLength="4" x="140" y="352.4707">&#160;</text><text fill="#000000" font-family="sans-serif" font-size="14" lengthAdjust="spacing" textLength="12" x="144" y="352.4707">to</text><text fill="#000000" font-family="sans-serif" font-size="14" lengthAdjust="spacing" textLength="4" x="156" y="352.4707">&#160;</text><text fill="#000000" font-family="sans-serif" font-size="14" lengthAdjust="spacing" textLength="44" x="160" y="352.4707">access</text><text fill="#000000" font-family="sans-serif" font-size="14" lengthAdjust="spacing" textLength="4" x="204" y="352.4707">&#160;</text><text fill="#000000" font-family="sans-serif" font-size="14" lengthAdjust="spacing" textLength="20" x="208" y="352.4707">the</text><text fill="#000000" font-family="sans-serif" font-size="14" lengthAdjust="spacing" textLength="42" x="124" y="370.0801">reader</text></g><!--entity SoftwareSystem_aws_ss--><g id="elem_SoftwareSystem_aws_ss"><rect fill="#438DD5" height="96.9531" rx="2.5" ry="2.5" style="stroke:#3C7FC0;stroke-width:0.5;" width="191" x="49.5" y="533.1094"/><text fill="#FFFFFF" font-family="sans-serif" font-size="16" font-weight="bold" lengthAdjust="spacing" textLength="63" x="59.5" y="559.7188">Amazon</text><text fill="#FFFFFF" font-family="sans-serif" font-size="16" font-weight="bold" lengthAdjust="spacing" textLength="4" x="122.5" y="559.7188">&#160;</text><text fill="#FFFFFF" font-family="sans-serif" font-size="16" font-weight="bold" lengthAdjust="spacing" textLength="34" x="126.5" y="559.7188">Web</text><text fill="#FFFFFF" font-family="sans-serif" font-size="16" font-weight="bold" lengthAdjust="spacing" textLength="4" x="160.5" y="559.7188">&#160;</text><text fill="#FFFFFF" font-family="sans-serif" font-size="16" font-weight="bold" lengthAdjust="spacing" textLength="66" x="164.5" y="559.7188">Services</text><text fill="#FFFFFF" font-family="sans-serif" font-size="14" lengthAdjust="spacing" textLength="4" x="143" y="577.7676">&#160;</text><text fill="#FFFFFF" font-family="sans-serif" font-size="14" lengthAdjust="spacing" textLength="41" x="103.5" y="595.377">Stores</text><text fill="#FFFFFF" font-family="sans-serif" font-size="14" lengthAdjust="spacing" textLength="4" x="144.5" y="595.377">&#160;</text><text fill="#FFFFFF" font-family="sans-serif" font-size="14" lengthAdjust="spacing" textLength="38" x="148.5" y="595.377">books</text><text fill="#FFFFFF" font-family="sans-serif" font-size="14" lengthAdjust="spacing" textLength="44" x="103.5" y="614.9863">vendor</text><text fill="#FFFFFF" font-family="sans-serif" font-size="14" font-weight="bold" lengthAdjust="spacing" textLength="31" x="155.5" y="614.9863">AWS</text><line style="stroke:#FFFFFF;stroke-width:0.5;" x1="99.5" x2="190.5" y1="600.4531" y2="600.4531"/><line style="stroke:#FFFFFF;stroke-width:0.5;" x1="99.5" x2="190.5" y1="618.0625" y2="618.0625"/><line style="stroke:#FFFFFF;stroke-width:0.5;" x1="99.5" x2="99.5" y1="600.4531" y2="618.0625"/><line style="stroke:#FFFFFF;stroke-width:0.5;" x1="151.5" x2="151.5" y1="600.4531" y2="618.0625"/><line style="stroke:#FFFFFF;stroke-width:0.5;" x1="190.5" x2="190.5" y1="600.4531" y2="618.0625"/></g><!--link Person_user to SoftwareSystem_reader_ss--><g id="link_Person_user_SoftwareSystem_reader_ss"><path d="M145,125.2594 C145,166.2694 145,221.8194 145,267.0594 " fill="none" id="Person_user-to-SoftwareSystem_reader_ss" style="stroke:#666666;stroke-width:1.0;"/><polygon fill="#666666" points="145,275.0594,148,267.0594,142,267.0594,145,275.0594" style="stroke:#666666;stroke-width:1.0;"/><text fill="#666666" font-family="sans-serif" font-size="0" lengthAdjust="spacing" textLength="0" x="129" y="159.1594">.</text><text fill="#666666" font-family="sans-serif" font-size="12" lengthAdjust="spacing" textLength="3" x="127.5" y="181.6164">&#160;</text><text fill="#666666" font-family="sans-serif" font-size="12" lengthAdjust="spacing" textLength="30" x="114" y="196.7102">Uses</text></g><!--link SoftwareSystem_reader_ss to SoftwareSystem_aws_ss--><g id="link_SoftwareSystem_reader_ss_SoftwareSystem_aws_ss"><path d="M145,383.2794 C145,427.7594 145,482.2094 145,525.0794 " fill="none" id="SoftwareSystem_reader_ss-to-SoftwareSystem_aws_ss" style="stroke:#666666;stroke-width:1.0;"/><polygon fill="#666666" points="145,533.0794,148,525.0794,142,525.0794,145,533.0794" style="stroke:#666666;stroke-width:1.0;"/><text fill="#666666" font-family="sans-serif" font-size="0" lengthAdjust="spacing" textLength="0" x="75.5" y="417.1794">.</text><text fill="#666666" font-family="sans-serif" font-size="12" lengthAdjust="spacing" textLength="3" x="74" y="439.6364">&#160;</text><text fill="#666666" font-family="sans-serif" font-size="12" lengthAdjust="spacing" textLength="99" x="7" y="454.7302">Upload/Download</text><text fill="#666666" font-family="sans-serif" font-size="12" lengthAdjust="spacing" textLength="3" x="106" y="454.7302">&#160;</text><text fill="#666666" font-family="sans-serif" font-size="12" lengthAdjust="spacing" textLength="35" x="109" y="454.7302">media</text></g></g></svg>