<svg xmlns="http://www.w3.org/2000/svg" xmlns:xlink="http://www.w3.org/1999/xlink" contentStyleType="text/css" height="680px" preserveAspectRatio="none" style="width:265px;height:680px;background:#FFFFFF;" version="1.1" viewBox="0 0 265 680" width="265px" zoomAndPan="magnify"><defs/><g><text fill="#000000" font-family="sans-serif" font-size="14" font-weight="bold" lengthAdjust="spacing" textLength="158" x="46.5" y="24.5332">Application Landscape</text><!--entity Person_user--><g id="elem_Person_user"><ellipse cx="144" cy="60.6094" fill="#438DD5" rx="16" ry="16" style="stroke:#3C7FC0;stroke-width:0.5;"/><path d="M144,80.6094 C148,80.6094 151,80.6094 155,76.6094 C163,76.6094 171,84.6094 171,92.6094 L171,96.6094 C171,100.6094 167,104.6094 163,104.6094 L125,104.6094 C121,104.6094 117,100.6094 117,96.6094 L117,92.6094 C117,84.6094 125,76.6094 133,76.6094 C137,80.6094 140,80.6094 144,80.6094 " fill="#438DD5" style="stroke:#3C7FC0;stroke-width:0.5;"/><text fill="#438DD5" font-family="sans-serif" font-size="16" font-weight="bold" lengthAdjust="spacing" textLength="36" x="126" y="121.7188">User</text></g><!--entity Person_sysadmin--><g id="elem_Person_sysadmin"><ellipse cx="220" cy="60.6094" fill="#438DD5" rx="16" ry="16" style="stroke:#3C7FC0;stroke-width:0.5;"/><path d="M220,80.6094 C224,80.6094 227,80.6094 231,76.6094 C239,76.6094 247,84.6094 247,92.6094 L247,96.6094 C247,100.6094 243,104.6094 239,104.6094 L201,104.6094 C197,104.6094 193,100.6094 193,96.6094 L193,92.6094 C193,84.6094 201,76.6094 209,76.6094 C213,80.6094 216,80.6094 220,80.6094 " fill="#438DD5" style="stroke:#3C7FC0;stroke-width:0.5;"/><text fill="#438DD5" font-family="sans-serif" font-size="16" font-weight="bold" lengthAdjust="spacing" textLength="76" x="182" y="121.7188">Sysadmin</text></g><!--entity SoftwareSystem_reader_ss--><g id="elem_SoftwareSystem_reader_ss"><ellipse cx="144" cy="291.6094" fill="#438DD5" rx="16" ry="16" style="stroke:#3C7FC0;stroke-width:0.5;"/><path d="M144,311.6094 C148,311.6094 151,311.6094 155,307.6094 C163,307.6094 171,315.6094 171,323.6094 L171,327.6094 C171,331.6094 167,335.6094 163,335.6094 L125,335.6094 C121,335.6094 117,331.6094 117,327.6094 L117,323.6094 C117,315.6094 125,307.6094 133,307.6094 C137,311.6094 140,311.6094 144,311.6094 " fill="#438DD5" style="stroke:#3C7FC0;stroke-width:0.5;"/><text fill="#438DD5" font-family="sans-serif" font-size="16" font-weight="bold" lengthAdjust="spacing" textLength="55" x="116.5" y="352.7188">Reader</text><text fill="#438DD5" font-family="sans-serif" font-size="14" lengthAdjust="spacing" textLength="4" x="142" y="370.7676">&#160;</text><text fill="#438DD5" font-family="sans-serif" font-size="14" lengthAdjust="spacing" textLength="39" x="61" y="388.377">Allows</text><text fill="#438DD5" font-family="sans-serif" font-size="14" lengthAdjust="spacing" textLength="4" x="100" y="388.377">&#160;</text><text fill="#438DD5" font-family="sans-serif" font-size="14" lengthAdjust="spacing" textLength="35" x="104" y="388.377">users</text><text fill="#438DD5" font-family="sans-serif" font-size="14" lengthAdjust="spacing" textLength="4" x="139" y="388.377">&#160;</text><text fill="#438DD5" font-family="sans-serif" font-size="14" lengthAdjust="spacing" textLength="12" x="143" y="388.377">to</text><text fill="#438DD5" font-family="sans-serif" font-size="14" lengthAdjust="spacing" textLength="4" x="155" y="388.377">&#160;</text><text fill="#438DD5" font-family="sans-serif" font-size="14" lengthAdjust="spacing" textLength="44" x="159" y="388.377">access</text><text fill="#438DD5" font-family="sans-serif" font-size="14" lengthAdjust="spacing" textLength="4" x="203" y="388.377">&#160;</text><text fill="#438DD5" font-family="sans-serif" font-size="14" lengthAdjust="spacing" textLength="20" x="207" y="388.377">the</text><text fill="#438DD5" font-family="sans-serif" font-size="14" lengthAdjust="spacing" textLength="42" x="123" y="405.9863">reader</text></g><!--entity SoftwareSystem_aws_ss--><g id="elem_SoftwareSystem_aws_ss"><ellipse cx="144" cy="575.6094" fill="#438DD5" rx="16" ry="16" style="stroke:#3C7FC0;stroke-width:0.5;"/><path d="M144,595.6094 C148,595.6094 151,595.6094 155,591.6094 C163,591.6094 171,599.6094 171,607.6094 L171,611.6094 C171,615.6094 167,619.6094 163,619.6094 L125,619.6094 C121,619.6094 117,615.6094 117,611.6094 L117,607.6094 C117,599.6094 125,591.6094 133,591.6094 C137,595.6094 140,595.6094 144,595.6094 " fill="#438DD5" style="stroke:#3C7FC0;stroke-width:0.5;"/><text fill="#438DD5" font-family="sans-serif" font-size="16" font-weight="bold" lengthAdjust="spacing" textLength="63" x="58.5" y="636.7188">Amazon</text><text fill="#438DD5" font-family="sans-serif" font-size="16" font-weight="bold" lengthAdjust="spacing" textLength="4" x="121.5" y="636.7188">&#160;</text><text fill="#438DD5" font-family="sans-serif" font-size="16" font-weight="bold" lengthAdjust="spacing" textLength="34" x="125.5" y="636.7188">Web</text><text fill="#438DD5" font-family="sans-serif" font-size="16" font-weight="bold" lengthAdjust="spacing" textLength="4" x="159.5" y="636.7188">&#160;</text><text fill="#438DD5" font-family="sans-serif" font-size="16" font-weight="bold" lengthAdjust="spacing" textLength="66" x="163.5" y="636.7188">Services</text><text fill="#438DD5" font-family="sans-serif" font-size="14" lengthAdjust="spacing" textLength="4" x="142" y="654.7676">&#160;</text><text fill="#438DD5" font-family="sans-serif" font-size="14" lengthAdjust="spacing" textLength="41" x="102.5" y="672.377">Stores</text><text fill="#438DD5" font-family="sans-serif" font-size="14" lengthAdjust="spacing" textLength="4" x="143.5" y="672.377">&#160;</text><text fill="#438DD5" font-family="sans-serif" font-size="14" lengthAdjust="spacing" textLength="38" x="147.5" y="672.377">books</text></g><!--link Person_user to SoftwareSystem_reader_ss--><g id="link_Person_user_SoftwareSystem_reader_ss"><path d="M144,125.1294 C144,165.2794 144,219.4894 144,267.0294 " fill="none" id="Person_user-to-SoftwareSystem_reader_ss" style="stroke:#666666;stroke-width:1.0;"/><polygon fill="#666666" points="144,275.0294,147,267.0294,141,267.0294,144,275.0294" style="stroke:#666666;stroke-width:1.0;"/><text fill="#666666" font-family="sans-serif" font-size="12" font-weight="bold" lengthAdjust="spacing" textLength="29" x="114" y="196.5364">Uses</text></g><!--link SoftwareSystem_reader_ss to SoftwareSystem_aws_ss--><g id="link_SoftwareSystem_reader_ss_SoftwareSystem_aws_ss"><path d="M144,409.3794 C144,455.1794 144,507.1794 144,550.9194 " fill="none" id="SoftwareSystem_reader_ss-to-SoftwareSystem_aws_ss" style="stroke:#666666;stroke-width:1.0;"/><polygon fill="#666666" points="144,558.9194,147,550.9194,141,550.9194,144,558.9194" style="stroke:#666666;stroke-width:1.0;"/><text fill="#666666" font-family="sans-serif" font-size="12" font-weight="bold" lengthAdjust="spacing" textLength="98" x="7" y="480.6064">Upload/Download</text><text fill="#666666" font-family="sans-serif" font-size="12" font-weight="bold" lengthAdjust="spacing" textLength="3" x="105" y="480.6064">&#160;</text><text fill="#666666" font-family="sans-serif" font-size="12" font-weight="bold" lengthAdjust="spacing" textLength="35" x="108" y="480.6064">media</text></g></g></svg>