<svg xmlns="http://www.w3.org/2000/svg" xmlns:xlink="http://www.w3.org/1999/xlink" contentStyleType="text/css" height="1049px" preserveAspectRatio="none" style="width:329px;height:1049px;background:#FFFFFF;" version="1.1" viewBox="0 0 329 1049" width="329px" zoomAndPan="magnify"><defs/><g><text fill="#000000" font-family="sans-serif" font-size="14" font-weight="bold" lengthAdjust="spacing" textLength="168" x="73.75" y="24.5332">Reader: System Context</text><!--cluster SoftwareSystem_reader_ss--><g id="cluster_SoftwareSystem_reader_ss"><rect fill="none" height="755" rx="2.5" ry="2.5" style="stroke:#444444;stroke-width:1.0;stroke-dasharray:7.0,7.0;" width="214" x="7" y="288.1094"/><text fill="#444444" font-family="sans-serif" font-size="16" font-weight="bold" lengthAdjust="spacing" textLength="55" x="86.5" y="306.7188">Reader</text></g><!--entity Container_reader_frontend--><g id="elem_Container_reader_frontend"><ellipse cx="114" cy="343.6094" fill="#438DD5" rx="16" ry="16" style="stroke:#3C7FC0;stroke-width:0.5;"/><path d="M114,363.6094 C118,363.6094 121,363.6094 125,359.6094 C133,359.6094 141,367.6094 141,375.6094 L141,379.6094 C141,383.6094 137,387.6094 133,387.6094 L95,387.6094 C91,387.6094 87,383.6094 87,379.6094 L87,375.6094 C87,367.6094 95,359.6094 103,359.6094 C107,363.6094 110,363.6094 114,363.6094 " fill="#438DD5" style="stroke:#3C7FC0;stroke-width:0.5;"/><text fill="#438DD5" font-family="sans-serif" font-size="16" font-weight="bold" lengthAdjust="spacing" textLength="48" x="23.5" y="404.7188">Single</text><text fill="#438DD5" font-family="sans-serif" font-size="16" font-weight="bold" lengthAdjust="spacing" textLength="4" x="71.5" y="404.7188">&#160;</text><text fill="#438DD5" font-family="sans-serif" font-size="16" font-weight="bold" lengthAdjust="spacing" textLength="39" x="75.5" y="404.7188">Page</text><text fill="#438DD5" font-family="sans-serif" font-size="16" font-weight="bold" lengthAdjust="spacing" textLength="4" x="114.5" y="404.7188">&#160;</text><text fill="#438DD5" font-family="sans-serif" font-size="16" font-weight="bold" lengthAdjust="spacing" textLength="86" x="118.5" y="404.7188">Application</text><text fill="#438DD5" font-family="sans-serif" font-size="14" lengthAdjust="spacing" textLength="4" x="112" y="422.7676">&#160;</text><text fill="#438DD5" font-family="sans-serif" font-size="14" lengthAdjust="spacing" textLength="39" x="30.5" y="440.377">Allows</text><text fill="#438DD5" font-family="sans-serif" font-size="14" lengthAdjust="spacing" textLength="4" x="69.5" y="440.377">&#160;</text><text fill="#438DD5" font-family="sans-serif" font-size="14" lengthAdjust="spacing" textLength="35" x="73.5" y="440.377">users</text><text fill="#438DD5" font-family="sans-serif" font-size="14" lengthAdjust="spacing" textLength="4" x="108.5" y="440.377">&#160;</text><text fill="#438DD5" font-family="sans-serif" font-size="14" lengthAdjust="spacing" textLength="12" x="112.5" y="440.377">to</text><text fill="#438DD5" font-family="sans-serif" font-size="14" lengthAdjust="spacing" textLength="4" x="124.5" y="440.377">&#160;</text><text fill="#438DD5" font-family="sans-serif" font-size="14" lengthAdjust="spacing" textLength="23" x="128.5" y="440.377">use</text><text fill="#438DD5" font-family="sans-serif" font-size="14" lengthAdjust="spacing" textLength="4" x="151.5" y="440.377">&#160;</text><text fill="#438DD5" font-family="sans-serif" font-size="14" lengthAdjust="spacing" textLength="42" x="155.5" y="440.377">reader</text><text fill="#438DD5" font-family="sans-serif" font-size="14" lengthAdjust="spacing" textLength="86" x="71" y="457.9863">functionalities</text></g><!--entity Container_reader_backend--><g id="elem_Container_reader_backend"><ellipse cx="114" cy="644.6094" fill="#438DD5" rx="16" ry="16" style="stroke:#3C7FC0;stroke-width:0.5;"/><path d="M114,664.6094 C118,664.6094 121,664.6094 125,660.6094 C133,660.6094 141,668.6094 141,676.6094 L141,680.6094 C141,684.6094 137,688.6094 133,688.6094 L95,688.6094 C91,688.6094 87,684.6094 87,680.6094 L87,676.6094 C87,668.6094 95,660.6094 103,660.6094 C107,664.6094 110,664.6094 114,664.6094 " fill="#438DD5" style="stroke:#3C7FC0;stroke-width:0.5;"/><text fill="#438DD5" font-family="sans-serif" font-size="16" font-weight="bold" lengthAdjust="spacing" textLength="68" x="80" y="705.7188">Backend</text><text fill="#438DD5" font-family="sans-serif" font-size="14" lengthAdjust="spacing" textLength="4" x="112" y="723.7676">&#160;</text><text fill="#438DD5" font-family="sans-serif" font-size="14" lengthAdjust="spacing" textLength="57" x="23.5" y="741.377">Business</text><text fill="#438DD5" font-family="sans-serif" font-size="14" lengthAdjust="spacing" textLength="4" x="80.5" y="741.377">&#160;</text><text fill="#438DD5" font-family="sans-serif" font-size="14" lengthAdjust="spacing" textLength="34" x="84.5" y="741.377">Logic</text><text fill="#438DD5" font-family="sans-serif" font-size="14" lengthAdjust="spacing" textLength="4" x="118.5" y="741.377">&#160;</text><text fill="#438DD5" font-family="sans-serif" font-size="14" lengthAdjust="spacing" textLength="12" x="122.5" y="741.377">of</text><text fill="#438DD5" font-family="sans-serif" font-size="14" lengthAdjust="spacing" textLength="4" x="134.5" y="741.377">&#160;</text><text fill="#438DD5" font-family="sans-serif" font-size="14" lengthAdjust="spacing" textLength="20" x="138.5" y="741.377">the</text><text fill="#438DD5" font-family="sans-serif" font-size="14" lengthAdjust="spacing" textLength="4" x="158.5" y="741.377">&#160;</text><text fill="#438DD5" font-family="sans-serif" font-size="14" lengthAdjust="spacing" textLength="42" x="162.5" y="741.377">reader</text></g><!--entity Container_reader_database--><g id="elem_Container_reader_database"><ellipse cx="114" cy="927.6094" fill="#438DD5" rx="16" ry="16" style="stroke:#3C7FC0;stroke-width:0.5;"/><path d="M114,947.6094 C118,947.6094 121,947.6094 125,943.6094 C133,943.6094 141,951.6094 141,959.6094 L141,963.6094 C141,967.6094 137,971.6094 133,971.6094 L95,971.6094 C91,971.6094 87,967.6094 87,963.6094 L87,959.6094 C87,951.6094 95,943.6094 103,943.6094 C107,947.6094 110,947.6094 114,947.6094 " fill="#438DD5" style="stroke:#3C7FC0;stroke-width:0.5;"/><text fill="#438DD5" font-family="sans-serif" font-size="16" font-weight="bold" lengthAdjust="spacing" textLength="60" x="84" y="988.7188">RDBMS</text><text fill="#438DD5" font-family="sans-serif" font-size="14" lengthAdjust="spacing" textLength="4" x="112" y="1006.7676">&#160;</text><text fill="#438DD5" font-family="sans-serif" font-size="14" lengthAdjust="spacing" textLength="41" x="59" y="1024.377">Stores</text><text fill="#438DD5" font-family="sans-serif" font-size="14" lengthAdjust="spacing" textLength="4" x="100" y="1024.377">&#160;</text><text fill="#438DD5" font-family="sans-serif" font-size="14" lengthAdjust="spacing" textLength="38" x="104" y="1024.377">books</text><text fill="#438DD5" font-family="sans-serif" font-size="14" lengthAdjust="spacing" textLength="4" x="142" y="1024.377">&#160;</text><text fill="#438DD5" font-family="sans-serif" font-size="14" lengthAdjust="spacing" textLength="23" x="146" y="1024.377">info</text></g><!--entity Person_user--><g id="elem_Person_user"><ellipse cx="114" cy="78.1094" fill="#438DD5" rx="16" ry="16" style="stroke:#3C7FC0;stroke-width:0.5;"/><path d="M114,98.1094 C118,98.1094 121,98.1094 125,94.1094 C133,94.1094 141,102.1094 141,110.1094 L141,114.1094 C141,118.1094 137,122.1094 133,122.1094 L95,122.1094 C91,122.1094 87,118.1094 87,114.1094 L87,110.1094 C87,102.1094 95,94.1094 103,94.1094 C107,98.1094 110,98.1094 114,98.1094 " fill="#438DD5" style="stroke:#3C7FC0;stroke-width:0.5;"/><text fill="#438DD5" font-family="sans-serif" font-size="16" font-weight="bold" lengthAdjust="spacing" textLength="36" x="96" y="139.2188">User</text></g><!--entity Person_sysadmin--><g id="elem_Person_sysadmin"><ellipse cx="275" cy="662.1094" fill="#438DD5" rx="16" ry="16" style="stroke:#3C7FC0;stroke-width:0.5;"/><path d="M275,682.1094 C279,682.1094 282,682.1094 286,678.1094 C294,678.1094 302,686.1094 302,694.1094 L302,698.1094 C302,702.1094 298,706.1094 294,706.1094 L256,706.1094 C252,706.1094 248,702.1094 248,698.1094 L248,694.1094 C248,686.1094 256,678.1094 264,678.1094 C268,682.1094 271,682.1094 275,682.1094 " fill="#438DD5" style="stroke:#3C7FC0;stroke-width:0.5;"/><text fill="#438DD5" font-family="sans-serif" font-size="16" font-weight="bold" lengthAdjust="spacing" textLength="76" x="237" y="723.2188">Sysadmin</text></g><!--entity SoftwareSystem_aws_ss--><g id="elem_SoftwareSystem_aws_ss"><ellipse cx="237" cy="60.6094" fill="#438DD5" rx="16" ry="16" style="stroke:#3C7FC0;stroke-width:0.5;"/><path d="M237,80.6094 C241,80.6094 244,80.6094 248,76.6094 C256,76.6094 264,84.6094 264,92.6094 L264,96.6094 C264,100.6094 260,104.6094 256,104.6094 L218,104.6094 C214,104.6094 210,100.6094 210,96.6094 L210,92.6094 C210,84.6094 218,76.6094 226,76.6094 C230,80.6094 233,80.6094 237,80.6094 " fill="#438DD5" style="stroke:#3C7FC0;stroke-width:0.5;"/><text fill="#438DD5" font-family="sans-serif" font-size="16" font-weight="bold" lengthAdjust="spacing" textLength="63" x="151.5" y="121.7188">Amazon</text><text fill="#438DD5" font-family="sans-serif" font-size="16" font-weight="bold" lengthAdjust="spacing" textLength="4" x="214.5" y="121.7188">&#160;</text><text fill="#438DD5" font-family="sans-serif" font-size="16" font-weight="bold" lengthAdjust="spacing" textLength="34" x="218.5" y="121.7188">Web</text><text fill="#438DD5" font-family="sans-serif" font-size="16" font-weight="bold" lengthAdjust="spacing" textLength="4" x="252.5" y="121.7188">&#160;</text><text fill="#438DD5" font-family="sans-serif" font-size="16" font-weight="bold" lengthAdjust="spacing" textLength="66" x="256.5" y="121.7188">Services</text><text fill="#438DD5" font-family="sans-serif" font-size="14" lengthAdjust="spacing" textLength="4" x="235" y="139.7676">&#160;</text><text fill="#438DD5" font-family="sans-serif" font-size="14" lengthAdjust="spacing" textLength="41" x="195.5" y="157.377">Stores</text><text fill="#438DD5" font-family="sans-serif" font-size="14" lengthAdjust="spacing" textLength="4" x="236.5" y="157.377">&#160;</text><text fill="#438DD5" font-family="sans-serif" font-size="14" lengthAdjust="spacing" textLength="38" x="240.5" y="157.377">books</text></g><!--link Person_user to Container_reader_frontend--><g id="link_Person_user_Container_reader_frontend"><path d="M114,142.8294 C114,190.2194 114,262.1594 114,318.9394 " fill="none" id="Person_user-to-Container_reader_frontend" style="stroke:#666666;stroke-width:1.0;"/><polygon fill="#666666" points="114,326.9394,117,318.9394,111,318.9394,114,326.9394" style="stroke:#666666;stroke-width:1.0;"/><text fill="#666666" font-family="sans-serif" font-size="12" font-weight="bold" lengthAdjust="spacing" textLength="29" x="115" y="248.5664">Uses</text></g><!--link Person_sysadmin to Container_reader_database--><g id="link_Person_sysadmin_Container_reader_database"><path d="M271.29,726.6494 C267.14,770.7894 261,836.1094 261,836.1094 C261,836.1094 216.8227,875.7847 175.1127,913.2347 " fill="none" id="Person_sysadmin-to-Container_reader_database" style="stroke:#666666;stroke-width:1.0;"/><polygon fill="#666666" points="169.16,918.5794,177.1169,915.4669,173.1084,911.0024,169.16,918.5794" style="stroke:#666666;stroke-width:1.0;"/><text fill="#666666" font-family="sans-serif" font-size="12" font-weight="bold" lengthAdjust="spacing" textLength="43" x="263" y="832.5664">Access</text></g><!--link Container_reader_frontend to Container_reader_backend--><g id="link_Container_reader_frontend_Container_reader_backend"><path d="M114,461.2794 C114,511.5994 114,572.1094 114,620.0394 " fill="none" id="Container_reader_frontend-to-Container_reader_backend" style="stroke:#666666;stroke-width:1.0;"/><polygon fill="#666666" points="114,628.0394,117,620.0394,111,620.0394,114,628.0394" style="stroke:#666666;stroke-width:1.0;"/><text fill="#666666" font-family="sans-serif" font-size="12" font-weight="bold" lengthAdjust="spacing" textLength="29" x="115" y="549.5664">Uses</text></g><!--link Container_reader_backend to Container_reader_database--><g id="link_Container_reader_backend_Container_reader_database"><path d="M114,744.3094 C114,792.9394 114,854.3894 114,902.9894 " fill="none" id="Container_reader_backend-to-Container_reader_database" style="stroke:#666666;stroke-width:1.0;"/><polygon fill="#666666" points="114,910.9894,117,902.9894,111,902.9894,114,910.9894" style="stroke:#666666;stroke-width:1.0;"/><text fill="#666666" font-family="sans-serif" font-size="12" font-weight="bold" lengthAdjust="spacing" textLength="36" x="115" y="832.5664">Reads</text><text fill="#666666" font-family="sans-serif" font-size="12" font-weight="bold" lengthAdjust="spacing" textLength="3" x="151" y="832.5664">&#160;</text><text fill="#666666" font-family="sans-serif" font-size="12" font-weight="bold" lengthAdjust="spacing" textLength="27" x="154" y="832.5664">from</text><text fill="#666666" font-family="sans-serif" font-size="12" font-weight="bold" lengthAdjust="spacing" textLength="3" x="181" y="832.5664">&#160;</text><text fill="#666666" font-family="sans-serif" font-size="12" font-weight="bold" lengthAdjust="spacing" textLength="21" x="184" y="832.5664">and</text><text fill="#666666" font-family="sans-serif" font-size="12" font-weight="bold" lengthAdjust="spacing" textLength="3" x="205" y="832.5664">&#160;</text><text fill="#666666" font-family="sans-serif" font-size="12" font-weight="bold" lengthAdjust="spacing" textLength="36" x="208" y="832.5664">writes</text><text fill="#666666" font-family="sans-serif" font-size="12" font-weight="bold" lengthAdjust="spacing" textLength="3" x="244" y="832.5664">&#160;</text><text fill="#666666" font-family="sans-serif" font-size="12" font-weight="bold" lengthAdjust="spacing" textLength="11" x="247" y="832.5664">to</text></g></g></svg>