<svg xmlns="http://www.w3.org/2000/svg" xmlns:xlink="http://www.w3.org/1999/xlink" contentStyleType="text/css" height="1208px" preserveAspectRatio="none" style="width:506px;height:1208px;background:#FFFFFF;" version="1.1" viewBox="0 0 506 1208" width="506px" zoomAndPan="magnify"><defs><filter height="300%" id="f13ze8ywiphb4m" width="300%" x="-1" y="-1"><feGaussianBlur result="blurOut" stdDeviation="2.0"/><feColorMatrix in="blurOut" result="blurOut2" type="matrix" values="0 0 0 0 0 0 0 0 0 0 0 0 0 0 0 0 0 0 .4 0"/><feOffset dx="4.0" dy="4.0" in="blurOut2" result="blurOut3"/><feBlend in="SourceGraphic" in2="blurOut3" mode="normal"/></filter></defs><g><text fill="#000000" font-family="sans-serif" font-size="14" font-weight="bold" lengthAdjust="spacing" textLength="168" x="162.25" y="24.5332">Reader: System Context</text><!--cluster SoftwareSystem_reader_ss--><g id="cluster_SoftwareSystem_reader_ss"><rect fill="none" height="874" rx="2.5" ry="2.5" style="stroke:#444444;stroke-width:1.0;stroke-dasharray:7.0,7.0;" width="214" x="98" y="328.1094"/><text fill="#444444" font-family="sans-serif" font-size="16" font-weight="bold" lengthAdjust="spacing" textLength="55" x="177.5" y="346.7188">Reader</text></g><!--entity Container_reader_frontend--><g id="elem_Container_reader_frontend"><ellipse cx="205" cy="388.1094" fill="#FF0000" filter="url(#f13ze8ywiphb4m)" rx="16" ry="16" style="stroke:#FFA500;stroke-width:5.0;stroke-dasharray:1.0,1.0;"/><path d="M205,408.1094 C209,408.1094 212,408.1094 216,404.1094 C224,404.1094 232,412.1094 232,420.1094 L232,424.1094 C232,428.1094 228,432.1094 224,432.1094 L186,432.1094 C182,432.1094 178,428.1094 178,424.1094 L178,420.1094 C178,412.1094 186,404.1094 194,404.1094 C198,408.1094 201,408.1094 205,408.1094 " fill="#FF0000" filter="url(#f13ze8ywiphb4m)" style="stroke:#FFA500;stroke-width:5.0;stroke-dasharray:1.0,1.0;"/><text fill="#FF0000" font-family="sans-serif" font-size="16" font-weight="bold" lengthAdjust="spacing" textLength="48" x="114.5" y="453.7188">Single</text><text fill="#FF0000" font-family="sans-serif" font-size="16" font-weight="bold" lengthAdjust="spacing" textLength="4" x="162.5" y="453.7188">&#160;</text><text fill="#FF0000" font-family="sans-serif" font-size="16" font-weight="bold" lengthAdjust="spacing" textLength="39" x="166.5" y="453.7188">Page</text><text fill="#FF0000" font-family="sans-serif" font-size="16" font-weight="bold" lengthAdjust="spacing" textLength="4" x="205.5" y="453.7188">&#160;</text><text fill="#FF0000" font-family="sans-serif" font-size="16" font-weight="bold" lengthAdjust="spacing" textLength="86" x="209.5" y="453.7188">Application</text><text fill="#FF0000" font-family="sans-serif" font-size="12" font-style="italic" lengthAdjust="spacing" textLength="25" x="186" y="469.6914">[Vue</text><text fill="#FF0000" font-family="sans-serif" font-size="12" font-style="italic" lengthAdjust="spacing" textLength="3" x="211" y="469.6914">&#160;</text><text fill="#FF0000" font-family="sans-serif" font-size="12" font-style="italic" lengthAdjust="spacing" textLength="10" x="214" y="469.6914">3]</text><text fill="#FF0000" font-family="sans-serif" font-size="14" lengthAdjust="spacing" textLength="4" x="203" y="486.8613">&#160;</text><text fill="#FF0000" font-family="sans-serif" font-size="14" lengthAdjust="spacing" textLength="39" x="121.5" y="504.4707">Allows</text><text fill="#FF0000" font-family="sans-serif" font-size="14" lengthAdjust="spacing" textLength="4" x="160.5" y="504.4707">&#160;</text><text fill="#FF0000" font-family="sans-serif" font-size="14" lengthAdjust="spacing" textLength="35" x="164.5" y="504.4707">users</text><text fill="#FF0000" font-family="sans-serif" font-size="14" lengthAdjust="spacing" textLength="4" x="199.5" y="504.4707">&#160;</text><text fill="#FF0000" font-family="sans-serif" font-size="14" lengthAdjust="spacing" textLength="12" x="203.5" y="504.4707">to</text><text fill="#FF0000" font-family="sans-serif" font-size="14" lengthAdjust="spacing" textLength="4" x="215.5" y="504.4707">&#160;</text><text fill="#FF0000" font-family="sans-serif" font-size="14" lengthAdjust="spacing" textLength="23" x="219.5" y="504.4707">use</text><text fill="#FF0000" font-family="sans-serif" font-size="14" lengthAdjust="spacing" textLength="4" x="242.5" y="504.4707">&#160;</text><text fill="#FF0000" font-family="sans-serif" font-size="14" lengthAdjust="spacing" textLength="42" x="246.5" y="504.4707">reader</text><text fill="#FF0000" font-family="sans-serif" font-size="14" lengthAdjust="spacing" textLength="86" x="162" y="522.0801">functionalities</text></g><!--entity Container_reader_backend--><g id="elem_Container_reader_backend"><ellipse cx="205" cy="733.6094" fill="#438DD5" rx="16" ry="16" style="stroke:#3C7FC0;stroke-width:0.5;"/><path d="M205,753.6094 C209,753.6094 212,753.6094 216,749.6094 C224,749.6094 232,757.6094 232,765.6094 L232,769.6094 C232,773.6094 228,777.6094 224,777.6094 L186,777.6094 C182,777.6094 178,773.6094 178,769.6094 L178,765.6094 C178,757.6094 186,749.6094 194,749.6094 C198,753.6094 201,753.6094 205,753.6094 " fill="#438DD5" style="stroke:#3C7FC0;stroke-width:0.5;"/><text fill="#438DD5" font-family="sans-serif" font-size="16" font-weight="bold" lengthAdjust="spacing" textLength="68" x="171" y="794.7188">Backend</text><text fill="#438DD5" font-family="sans-serif" font-size="12" font-style="italic" lengthAdjust="spacing" textLength="39" x="140.5" y="810.6914">[Spring</text><text fill="#438DD5" font-family="sans-serif" font-size="12" font-style="italic" lengthAdjust="spacing" textLength="3" x="179.5" y="810.6914">&#160;</text><text fill="#438DD5" font-family="sans-serif" font-size="12" font-style="italic" lengthAdjust="spacing" textLength="25" x="182.5" y="810.6914">Boot</text><text fill="#438DD5" font-family="sans-serif" font-size="12" font-style="italic" lengthAdjust="spacing" textLength="3" x="207.5" y="810.6914">&#160;</text><text fill="#438DD5" font-family="sans-serif" font-size="12" font-style="italic" lengthAdjust="spacing" textLength="10" x="210.5" y="810.6914">3,</text><text fill="#438DD5" font-family="sans-serif" font-size="12" font-style="italic" lengthAdjust="spacing" textLength="3" x="220.5" y="810.6914">&#160;</text><text fill="#438DD5" font-family="sans-serif" font-size="12" font-style="italic" lengthAdjust="spacing" textLength="26" x="223.5" y="810.6914">Java</text><text fill="#438DD5" font-family="sans-serif" font-size="12" font-style="italic" lengthAdjust="spacing" textLength="3" x="249.5" y="810.6914">&#160;</text><text fill="#438DD5" font-family="sans-serif" font-size="12" font-style="italic" lengthAdjust="spacing" textLength="17" x="252.5" y="810.6914">21]</text><text fill="#438DD5" font-family="sans-serif" font-size="14" lengthAdjust="spacing" textLength="4" x="203" y="827.8613">&#160;</text><text fill="#438DD5" font-family="sans-serif" font-size="14" lengthAdjust="spacing" textLength="57" x="114.5" y="845.4707">Business</text><text fill="#438DD5" font-family="sans-serif" font-size="14" lengthAdjust="spacing" textLength="4" x="171.5" y="845.4707">&#160;</text><text fill="#438DD5" font-family="sans-serif" font-size="14" lengthAdjust="spacing" textLength="34" x="175.5" y="845.4707">Logic</text><text fill="#438DD5" font-family="sans-serif" font-size="14" lengthAdjust="spacing" textLength="4" x="209.5" y="845.4707">&#160;</text><text fill="#438DD5" font-family="sans-serif" font-size="14" lengthAdjust="spacing" textLength="12" x="213.5" y="845.4707">of</text><text fill="#438DD5" font-family="sans-serif" font-size="14" lengthAdjust="spacing" textLength="4" x="225.5" y="845.4707">&#160;</text><text fill="#438DD5" font-family="sans-serif" font-size="14" lengthAdjust="spacing" textLength="20" x="229.5" y="845.4707">the</text><text fill="#438DD5" font-family="sans-serif" font-size="14" lengthAdjust="spacing" textLength="4" x="249.5" y="845.4707">&#160;</text><text fill="#438DD5" font-family="sans-serif" font-size="14" lengthAdjust="spacing" textLength="42" x="253.5" y="845.4707">reader</text></g><!--entity Container_reader_database--><g id="elem_Container_reader_database"><ellipse cx="169" cy="1071.6094" fill="#438DD5" rx="16" ry="16" style="stroke:#3C7FC0;stroke-width:0.5;"/><path d="M169,1091.6094 C173,1091.6094 176,1091.6094 180,1087.6094 C188,1087.6094 196,1095.6094 196,1103.6094 L196,1107.6094 C196,1111.6094 192,1115.6094 188,1115.6094 L150,1115.6094 C146,1115.6094 142,1111.6094 142,1107.6094 L142,1103.6094 C142,1095.6094 150,1087.6094 158,1087.6094 C162,1091.6094 165,1091.6094 169,1091.6094 " fill="#438DD5" style="stroke:#3C7FC0;stroke-width:0.5;"/><text fill="#438DD5" font-family="sans-serif" font-size="16" font-weight="bold" lengthAdjust="spacing" textLength="60" x="139" y="1132.7188">RDBMS</text><text fill="#438DD5" font-family="sans-serif" font-size="12" font-style="italic" lengthAdjust="spacing" textLength="54" x="142" y="1148.6914">[Postgres]</text><text fill="#438DD5" font-family="sans-serif" font-size="14" lengthAdjust="spacing" textLength="4" x="167" y="1165.8613">&#160;</text><text fill="#438DD5" font-family="sans-serif" font-size="14" lengthAdjust="spacing" textLength="41" x="114" y="1183.4707">Stores</text><text fill="#438DD5" font-family="sans-serif" font-size="14" lengthAdjust="spacing" textLength="4" x="155" y="1183.4707">&#160;</text><text fill="#438DD5" font-family="sans-serif" font-size="14" lengthAdjust="spacing" textLength="38" x="159" y="1183.4707">books</text><text fill="#438DD5" font-family="sans-serif" font-size="14" lengthAdjust="spacing" textLength="4" x="197" y="1183.4707">&#160;</text><text fill="#438DD5" font-family="sans-serif" font-size="14" lengthAdjust="spacing" textLength="23" x="201" y="1183.4707">info</text></g><!--entity Person_user--><g id="elem_Person_user"><ellipse cx="205" cy="60.6094" fill="#438DD5" rx="16" ry="16" style="stroke:#3C7FC0;stroke-width:0.5;"/><path d="M205,80.6094 C209,80.6094 212,80.6094 216,76.6094 C224,76.6094 232,84.6094 232,92.6094 L232,96.6094 C232,100.6094 228,104.6094 224,104.6094 L186,104.6094 C182,104.6094 178,100.6094 178,96.6094 L178,92.6094 C178,84.6094 186,76.6094 194,76.6094 C198,80.6094 201,80.6094 205,80.6094 " fill="#438DD5" style="stroke:#3C7FC0;stroke-width:0.5;"/><text fill="#438DD5" font-family="sans-serif" font-size="16" font-weight="bold" lengthAdjust="spacing" textLength="36" x="187" y="121.7188">User</text></g><!--entity Person_sysadmin--><g id="elem_Person_sysadmin"><ellipse cx="44" cy="758.6094" fill="#438DD5" rx="16" ry="16" style="stroke:#3C7FC0;stroke-width:0.5;"/><path d="M44,778.6094 C48,778.6094 51,778.6094 55,774.6094 C63,774.6094 71,782.6094 71,790.6094 L71,794.6094 C71,798.6094 67,802.6094 63,802.6094 L25,802.6094 C21,802.6094 17,798.6094 17,794.6094 L17,790.6094 C17,782.6094 25,774.6094 33,774.6094 C37,778.6094 40,778.6094 44,778.6094 " fill="#438DD5" style="stroke:#3C7FC0;stroke-width:0.5;"/><text fill="#438DD5" font-family="sans-serif" font-size="16" font-weight="bold" lengthAdjust="spacing" textLength="76" x="6" y="819.7188">Sysadmin</text></g><!--entity SoftwareSystem_aws_ss--><g id="elem_SoftwareSystem_aws_ss"><ellipse cx="414" cy="1079.1094" fill="#438DD5" rx="16" ry="16" style="stroke:#3C7FC0;stroke-width:0.5;"/><path d="M414,1099.1094 C418,1099.1094 421,1099.1094 425,1095.1094 C433,1095.1094 441,1103.1094 441,1111.1094 L441,1115.1094 C441,1119.1094 437,1123.1094 433,1123.1094 L395,1123.1094 C391,1123.1094 387,1119.1094 387,1115.1094 L387,1111.1094 C387,1103.1094 395,1095.1094 403,1095.1094 C407,1099.1094 410,1099.1094 414,1099.1094 " fill="#438DD5" style="stroke:#3C7FC0;stroke-width:0.5;"/><text fill="#438DD5" font-family="sans-serif" font-size="16" font-weight="bold" lengthAdjust="spacing" textLength="63" x="328.5" y="1140.2188">Amazon</text><text fill="#438DD5" font-family="sans-serif" font-size="16" font-weight="bold" lengthAdjust="spacing" textLength="4" x="391.5" y="1140.2188">&#160;</text><text fill="#438DD5" font-family="sans-serif" font-size="16" font-weight="bold" lengthAdjust="spacing" textLength="34" x="395.5" y="1140.2188">Web</text><text fill="#438DD5" font-family="sans-serif" font-size="16" font-weight="bold" lengthAdjust="spacing" textLength="4" x="429.5" y="1140.2188">&#160;</text><text fill="#438DD5" font-family="sans-serif" font-size="16" font-weight="bold" lengthAdjust="spacing" textLength="66" x="433.5" y="1140.2188">Services</text><text fill="#438DD5" font-family="sans-serif" font-size="14" lengthAdjust="spacing" textLength="4" x="412" y="1158.2676">&#160;</text><text fill="#438DD5" font-family="sans-serif" font-size="14" lengthAdjust="spacing" textLength="41" x="372.5" y="1175.877">Stores</text><text fill="#438DD5" font-family="sans-serif" font-size="14" lengthAdjust="spacing" textLength="4" x="413.5" y="1175.877">&#160;</text><text fill="#438DD5" font-family="sans-serif" font-size="14" lengthAdjust="spacing" textLength="38" x="417.5" y="1175.877">books</text></g><!--link Container_reader_backend to Container_reader_database--><g id="link_Container_reader_backend_Container_reader_database"><path d="M186.41,848.4594 C175.96,884.8894 165,923.1094 165,923.1094 C165,923.1094 165,980.1094 165,980.1094 C165,980.1094 165.8717,1010.3326 166.9117,1046.7626 " fill="none" id="Container_reader_backend-to-Container_reader_database" style="stroke:#666666;stroke-width:1.0;"/><polygon fill="#666666" points="167.14,1054.7594,169.9105,1046.677,163.9129,1046.8482,167.14,1054.7594" style="stroke:#666666;stroke-width:1.0;"/><text fill="#666666" font-family="sans-serif" font-size="0" lengthAdjust="spacing" textLength="0" x="235" y="924.1094">.</text><text fill="#666666" font-family="sans-serif" font-size="12" font-style="italic" lengthAdjust="spacing" textLength="51" x="171" y="946.5664">[Postgres</text><text fill="#666666" font-family="sans-serif" font-size="12" font-style="italic" lengthAdjust="spacing" textLength="3" x="222" y="946.5664">&#160;</text><text fill="#666666" font-family="sans-serif" font-size="12" font-style="italic" lengthAdjust="spacing" textLength="74" x="225" y="946.5664">Protocol/SSL]</text><text fill="#666666" font-family="sans-serif" font-size="12" lengthAdjust="spacing" textLength="3" x="233.5" y="961.6602">&#160;</text><text fill="#666666" font-family="sans-serif" font-size="12" lengthAdjust="spacing" textLength="37" x="166" y="976.7539">Reads</text><text fill="#666666" font-family="sans-serif" font-size="12" lengthAdjust="spacing" textLength="3" x="203" y="976.7539">&#160;</text><text fill="#666666" font-family="sans-serif" font-size="12" lengthAdjust="spacing" textLength="25" x="206" y="976.7539">from</text><text fill="#666666" font-family="sans-serif" font-size="12" lengthAdjust="spacing" textLength="3" x="231" y="976.7539">&#160;</text><text fill="#666666" font-family="sans-serif" font-size="12" lengthAdjust="spacing" textLength="21" x="234" y="976.7539">and</text><text fill="#666666" font-family="sans-serif" font-size="12" lengthAdjust="spacing" textLength="3" x="255" y="976.7539">&#160;</text><text fill="#666666" font-family="sans-serif" font-size="12" lengthAdjust="spacing" textLength="33" x="258" y="976.7539">writes</text><text fill="#666666" font-family="sans-serif" font-size="12" lengthAdjust="spacing" textLength="3" x="291" y="976.7539">&#160;</text><text fill="#666666" font-family="sans-serif" font-size="12" lengthAdjust="spacing" textLength="10" x="294" y="976.7539">to</text></g><!--link Container_reader_backend to SoftwareSystem_aws_ss--><g id="link_Container_reader_backend_SoftwareSystem_aws_ss"><path d="M250.56,848.4594 C276.15,884.8894 303,923.1094 303,923.1094 C303,923.1094 323,980.1094 323,980.1094 C323,980.1094 347.2196,1017.2386 372.3496,1055.7686 " fill="none" id="Container_reader_backend-to-SoftwareSystem_aws_ss" style="stroke:#666666;stroke-width:1.0;"/><polygon fill="#666666" points="376.72,1062.4694,374.8624,1054.1297,369.8369,1057.4075,376.72,1062.4694" style="stroke:#666666;stroke-width:1.0;"/><text fill="#666666" font-family="sans-serif" font-size="0" lengthAdjust="spacing" textLength="0" x="362.5" y="931.6094">.</text><text fill="#666666" font-family="sans-serif" font-size="12" lengthAdjust="spacing" textLength="3" x="361" y="954.0664">&#160;</text><text fill="#666666" font-family="sans-serif" font-size="12" lengthAdjust="spacing" textLength="40" x="324" y="969.1602">Upload</text><text fill="#666666" font-family="sans-serif" font-size="12" lengthAdjust="spacing" textLength="3" x="364" y="969.1602">&#160;</text><text fill="#666666" font-family="sans-serif" font-size="12" lengthAdjust="spacing" textLength="34" x="367" y="969.1602">books</text></g><!--link Container_reader_frontend to Container_reader_backend--><g id="link_Container_reader_frontend_Container_reader_backend"><path d="M205,525.1094 C205,583.4094 205,654.1794 205,708.9794 " fill="none" id="Container_reader_frontend-to-Container_reader_backend" style="stroke:#666666;stroke-width:1.0;"/><polygon fill="#666666" points="205,716.9794,208,708.9794,202,708.9794,205,716.9794" style="stroke:#666666;stroke-width:1.0;"/><text fill="#666666" font-family="sans-serif" font-size="0" lengthAdjust="spacing" textLength="0" x="221" y="601.1094">.</text><text fill="#666666" font-family="sans-serif" font-size="12" lengthAdjust="spacing" textLength="3" x="219.5" y="623.5664">&#160;</text><text fill="#666666" font-family="sans-serif" font-size="12" lengthAdjust="spacing" textLength="30" x="206" y="638.6602">Uses</text></g><!--link Container_reader_frontend to SoftwareSystem_aws_ss--><g id="link_Container_reader_frontend_SoftwareSystem_aws_ss"><path d="M236.98,525.1794 C292.3,660.2194 400,923.1094 400,923.1094 C400,923.1094 405.232,996.5096 409.362,1054.5296 " fill="none" id="Container_reader_frontend-to-SoftwareSystem_aws_ss" style="stroke:#666666;stroke-width:1.0;"/><polygon fill="#666666" points="409.93,1062.5094,412.3544,1054.3166,406.3696,1054.7426,409.93,1062.5094" style="stroke:#666666;stroke-width:1.0;"/><text fill="#666666" font-family="sans-serif" font-size="0" lengthAdjust="spacing" textLength="0" x="415.5" y="762.6094">.</text><text fill="#666666" font-family="sans-serif" font-size="12" lengthAdjust="spacing" textLength="3" x="414" y="785.0664">&#160;</text><text fill="#666666" font-family="sans-serif" font-size="12" lengthAdjust="spacing" textLength="56" x="369" y="800.1602">Download</text><text fill="#666666" font-family="sans-serif" font-size="12" lengthAdjust="spacing" textLength="3" x="425" y="800.1602">&#160;</text><text fill="#666666" font-family="sans-serif" font-size="12" lengthAdjust="spacing" textLength="34" x="428" y="800.1602">books</text></g><!--link Person_sysadmin to Container_reader_database--><g id="link_Person_sysadmin_Container_reader_database"><path d="M58.71,823.1394 C79.94,880.2094 116.6413,978.8512 142.1513,1047.4412 " fill="none" id="Person_sysadmin-to-Container_reader_database" style="stroke:#FF0000;stroke-width:2.0;"/><polygon fill="#FF0000" points="144.94,1054.9394,144.9631,1046.3954,139.3394,1048.487,144.94,1054.9394" style="stroke:#FF0000;stroke-width:2.0;"/><text fill="#FF0000" font-family="sans-serif" font-size="0" lengthAdjust="spacing" textLength="0" x="134" y="931.6094">.</text><text fill="#FF0000" font-family="sans-serif" font-size="12" lengthAdjust="spacing" textLength="3" x="132.5" y="954.0664">&#160;</text><text fill="#FF0000" font-family="sans-serif" font-size="12" lengthAdjust="spacing" textLength="40" x="114" y="969.1602">Access</text></g><!--link Person_user to Container_reader_frontend--><g id="link_Person_user_Container_reader_frontend"><path d="M205,125.1094 C205,183.1094 205,284.5094 205,359.0794 " fill="none" id="Person_user-to-Container_reader_frontend" style="stroke:#666666;stroke-width:1.0;"/><polygon fill="#666666" points="205,367.0794,208,359.0794,202,359.0794,205,367.0794" style="stroke:#666666;stroke-width:1.0;"/><a href="https://google.com" target="_top" title="https://google.com" xlink:actuate="onRequest" xlink:href="https://google.com" xlink:show="new" xlink:title="https://google.com" xlink:type="simple"><text fill="#0000FF" font-family="sans-serif" font-size="12" font-weight="bold" lengthAdjust="spacing" text-decoration="underline" textLength="29" x="250" y="213.5664">Uses</text></a><text fill="#666666" font-family="sans-serif" font-size="12" font-style="italic" lengthAdjust="spacing" textLength="30" x="249.5" y="228.6602">[TCP]</text><text fill="#666666" font-family="sans-serif" font-size="12" lengthAdjust="spacing" textLength="3" x="263" y="243.7539">&#160;</text><text fill="#666666" font-family="sans-serif" font-size="12" lengthAdjust="spacing" textLength="27" x="206" y="258.8477">User</text><text fill="#666666" font-family="sans-serif" font-size="12" lengthAdjust="spacing" textLength="3" x="233" y="258.8477">&#160;</text><text fill="#666666" font-family="sans-serif" font-size="12" lengthAdjust="spacing" textLength="54" x="236" y="258.8477">accesses</text><text fill="#666666" font-family="sans-serif" font-size="12" lengthAdjust="spacing" textLength="3" x="290" y="258.8477">&#160;</text><text fill="#666666" font-family="sans-serif" font-size="12" lengthAdjust="spacing" textLength="10" x="293" y="258.8477">to</text><text fill="#666666" font-family="sans-serif" font-size="12" lengthAdjust="spacing" textLength="3" x="303" y="258.8477">&#160;</text><text fill="#666666" font-family="sans-serif" font-size="12" lengthAdjust="spacing" textLength="17" x="306" y="258.8477">the</text><text fill="#666666" font-family="sans-serif" font-size="12" lengthAdjust="spacing" textLength="40" x="235.5" y="273.9414">system</text><text fill="#666666" font-family="sans-serif" font-size="12" lengthAdjust="spacing" textLength="3" x="275.5" y="273.9414">&#160;</text><text fill="#666666" font-family="sans-serif" font-size="12" lengthAdjust="spacing" textLength="15" x="278.5" y="273.9414">via</text><text fill="#666666" font-family="sans-serif" font-size="12" lengthAdjust="spacing" textLength="45" x="230" y="289.0352">frontend</text><text fill="#666666" font-family="sans-serif" font-size="12" lengthAdjust="spacing" textLength="3" x="275" y="289.0352">&#160;</text><text fill="#666666" font-family="sans-serif" font-size="12" lengthAdjust="spacing" textLength="21" x="278" y="289.0352">app</text></g></g></svg>