<svg xmlns="http://www.w3.org/2000/svg" xmlns:xlink="http://www.w3.org/1999/xlink" contentStyleType="text/css" height="804px" preserveAspectRatio="none" style="width:354px;height:804px;background:#FFFFFF;" version="1.1" viewBox="0 0 354 804" width="354px" zoomAndPan="magnify"><defs/><g><text fill="#000000" font-family="sans-serif" font-size="14" font-weight="bold" lengthAdjust="spacing" textLength="168" x="86.25" y="24.5332">Reader: System Context</text><!--cluster SoftwareSystem_reader_ss--><g id="cluster_SoftwareSystem_reader_ss"><rect fill="none" height="575" rx="2.5" ry="2.5" style="stroke:#444444;stroke-width:1.0;stroke-dasharray:7.0,7.0;" width="214" x="7" y="223.1094"/><text fill="#444444" font-family="sans-serif" font-size="16" font-weight="bold" lengthAdjust="spacing" textLength="55" x="86.5" y="241.7188">Reader</text></g><!--entity Container_reader_frontend--><g id="elem_Container_reader_frontend"><ellipse cx="114" cy="278.6094" fill="#006DAA" rx="16" ry="16" style="stroke:#004C76;stroke-width:0.5;"/><path d="M114,298.6094 C118,298.6094 121,298.6094 125,294.6094 C133,294.6094 141,302.6094 141,310.6094 L141,314.6094 C141,318.6094 137,322.6094 133,322.6094 L95,322.6094 C91,322.6094 87,318.6094 87,314.6094 L87,310.6094 C87,302.6094 95,294.6094 103,294.6094 C107,298.6094 110,298.6094 114,298.6094 " fill="#006DAA" style="stroke:#004C76;stroke-width:0.5;"/><text fill="#006DAA" font-family="sans-serif" font-size="16" font-weight="bold" lengthAdjust="spacing" textLength="48" x="23.5" y="339.7188">Single</text><text fill="#006DAA" font-family="sans-serif" font-size="16" font-weight="bold" lengthAdjust="spacing" textLength="4" x="71.5" y="339.7188">&#160;</text><text fill="#006DAA" font-family="sans-serif" font-size="16" font-weight="bold" lengthAdjust="spacing" textLength="39" x="75.5" y="339.7188">Page</text><text fill="#006DAA" font-family="sans-serif" font-size="16" font-weight="bold" lengthAdjust="spacing" textLength="4" x="114.5" y="339.7188">&#160;</text><text fill="#006DAA" font-family="sans-serif" font-size="16" font-weight="bold" lengthAdjust="spacing" textLength="86" x="118.5" y="339.7188">Application</text><text fill="#006DAA" font-family="sans-serif" font-size="14" lengthAdjust="spacing" textLength="4" x="112" y="357.7676">&#160;</text><text fill="#006DAA" font-family="sans-serif" font-size="14" lengthAdjust="spacing" textLength="39" x="30.5" y="375.377">Allows</text><text fill="#006DAA" font-family="sans-serif" font-size="14" lengthAdjust="spacing" textLength="4" x="69.5" y="375.377">&#160;</text><text fill="#006DAA" font-family="sans-serif" font-size="14" lengthAdjust="spacing" textLength="35" x="73.5" y="375.377">users</text><text fill="#006DAA" font-family="sans-serif" font-size="14" lengthAdjust="spacing" textLength="4" x="108.5" y="375.377">&#160;</text><text fill="#006DAA" font-family="sans-serif" font-size="14" lengthAdjust="spacing" textLength="12" x="112.5" y="375.377">to</text><text fill="#006DAA" font-family="sans-serif" font-size="14" lengthAdjust="spacing" textLength="4" x="124.5" y="375.377">&#160;</text><text fill="#006DAA" font-family="sans-serif" font-size="14" lengthAdjust="spacing" textLength="23" x="128.5" y="375.377">use</text><text fill="#006DAA" font-family="sans-serif" font-size="14" lengthAdjust="spacing" textLength="4" x="151.5" y="375.377">&#160;</text><text fill="#006DAA" font-family="sans-serif" font-size="14" lengthAdjust="spacing" textLength="42" x="155.5" y="375.377">reader</text><text fill="#006DAA" font-family="sans-serif" font-size="14" lengthAdjust="spacing" textLength="86" x="71" y="392.9863">functionalities</text></g><!--entity Container_reader_backend--><g id="elem_Container_reader_backend"><ellipse cx="114" cy="489.6094" fill="#006DAA" rx="16" ry="16" style="stroke:#004C76;stroke-width:0.5;"/><path d="M114,509.6094 C118,509.6094 121,509.6094 125,505.6094 C133,505.6094 141,513.6094 141,521.6094 L141,525.6094 C141,529.6094 137,533.6094 133,533.6094 L95,533.6094 C91,533.6094 87,529.6094 87,525.6094 L87,521.6094 C87,513.6094 95,505.6094 103,505.6094 C107,509.6094 110,509.6094 114,509.6094 " fill="#006DAA" style="stroke:#004C76;stroke-width:0.5;"/><text fill="#006DAA" font-family="sans-serif" font-size="16" font-weight="bold" lengthAdjust="spacing" textLength="68" x="80" y="550.7188">Backend</text><text fill="#006DAA" font-family="sans-serif" font-size="14" lengthAdjust="spacing" textLength="4" x="112" y="568.7676">&#160;</text><text fill="#006DAA" font-family="sans-serif" font-size="14" lengthAdjust="spacing" textLength="57" x="23.5" y="586.377">Business</text><text fill="#006DAA" font-family="sans-serif" font-size="14" lengthAdjust="spacing" textLength="4" x="80.5" y="586.377">&#160;</text><text fill="#006DAA" font-family="sans-serif" font-size="14" lengthAdjust="spacing" textLength="34" x="84.5" y="586.377">Logic</text><text fill="#006DAA" font-family="sans-serif" font-size="14" lengthAdjust="spacing" textLength="4" x="118.5" y="586.377">&#160;</text><text fill="#006DAA" font-family="sans-serif" font-size="14" lengthAdjust="spacing" textLength="12" x="122.5" y="586.377">of</text><text fill="#006DAA" font-family="sans-serif" font-size="14" lengthAdjust="spacing" textLength="4" x="134.5" y="586.377">&#160;</text><text fill="#006DAA" font-family="sans-serif" font-size="14" lengthAdjust="spacing" textLength="20" x="138.5" y="586.377">the</text><text fill="#006DAA" font-family="sans-serif" font-size="14" lengthAdjust="spacing" textLength="4" x="158.5" y="586.377">&#160;</text><text fill="#006DAA" font-family="sans-serif" font-size="14" lengthAdjust="spacing" textLength="42" x="162.5" y="586.377">reader</text></g><!--entity Container_reader_database--><g id="elem_Container_reader_database"><ellipse cx="114" cy="682.6094" fill="#006DAA" rx="16" ry="16" style="stroke:#004C76;stroke-width:0.5;"/><path d="M114,702.6094 C118,702.6094 121,702.6094 125,698.6094 C133,698.6094 141,706.6094 141,714.6094 L141,718.6094 C141,722.6094 137,726.6094 133,726.6094 L95,726.6094 C91,726.6094 87,722.6094 87,718.6094 L87,714.6094 C87,706.6094 95,698.6094 103,698.6094 C107,702.6094 110,702.6094 114,702.6094 " fill="#006DAA" style="stroke:#004C76;stroke-width:0.5;"/><text fill="#006DAA" font-family="sans-serif" font-size="16" font-weight="bold" lengthAdjust="spacing" textLength="60" x="84" y="743.7188">RDBMS</text><text fill="#006DAA" font-family="sans-serif" font-size="14" lengthAdjust="spacing" textLength="4" x="112" y="761.7676">&#160;</text><text fill="#006DAA" font-family="sans-serif" font-size="14" lengthAdjust="spacing" textLength="41" x="59" y="779.377">Stores</text><text fill="#006DAA" font-family="sans-serif" font-size="14" lengthAdjust="spacing" textLength="4" x="100" y="779.377">&#160;</text><text fill="#006DAA" font-family="sans-serif" font-size="14" lengthAdjust="spacing" textLength="38" x="104" y="779.377">books</text><text fill="#006DAA" font-family="sans-serif" font-size="14" lengthAdjust="spacing" textLength="4" x="142" y="779.377">&#160;</text><text fill="#006DAA" font-family="sans-serif" font-size="14" lengthAdjust="spacing" textLength="23" x="146" y="779.377">info</text></g><!--entity Person_user--><g id="elem_Person_user"><ellipse cx="114" cy="78.1094" fill="#006DAA" rx="16" ry="16" style="stroke:#004C76;stroke-width:0.5;"/><path d="M114,98.1094 C118,98.1094 121,98.1094 125,94.1094 C133,94.1094 141,102.1094 141,110.1094 L141,114.1094 C141,118.1094 137,122.1094 133,122.1094 L95,122.1094 C91,122.1094 87,118.1094 87,114.1094 L87,110.1094 C87,102.1094 95,94.1094 103,94.1094 C107,98.1094 110,98.1094 114,98.1094 " fill="#006DAA" style="stroke:#004C76;stroke-width:0.5;"/><text fill="#006DAA" font-family="sans-serif" font-size="16" font-weight="bold" lengthAdjust="spacing" textLength="36" x="96" y="139.2188">User</text></g><!--entity Person_sysadmin--><g id="elem_Person_sysadmin"><ellipse cx="278" cy="507.1094" fill="#006DAA" rx="16" ry="16" style="stroke:#004C76;stroke-width:0.5;"/><path d="M278,527.1094 C282,527.1094 285,527.1094 289,523.1094 C297,523.1094 305,531.1094 305,539.1094 L305,543.1094 C305,547.1094 301,551.1094 297,551.1094 L259,551.1094 C255,551.1094 251,547.1094 251,543.1094 L251,539.1094 C251,531.1094 259,523.1094 267,523.1094 C271,527.1094 274,527.1094 278,527.1094 " fill="#006DAA" style="stroke:#004C76;stroke-width:0.5;"/><text fill="#006DAA" font-family="sans-serif" font-size="16" font-weight="bold" lengthAdjust="spacing" textLength="76" x="240" y="568.2188">Sysadmin</text></g><!--entity SoftwareSystem_aws_ss--><g id="elem_SoftwareSystem_aws_ss"><ellipse cx="262" cy="60.6094" fill="#006DAA" rx="16" ry="16" style="stroke:#004C76;stroke-width:0.5;"/><path d="M262,80.6094 C266,80.6094 269,80.6094 273,76.6094 C281,76.6094 289,84.6094 289,92.6094 L289,96.6094 C289,100.6094 285,104.6094 281,104.6094 L243,104.6094 C239,104.6094 235,100.6094 235,96.6094 L235,92.6094 C235,84.6094 243,76.6094 251,76.6094 C255,80.6094 258,80.6094 262,80.6094 " fill="#006DAA" style="stroke:#004C76;stroke-width:0.5;"/><text fill="#006DAA" font-family="sans-serif" font-size="16" font-weight="bold" lengthAdjust="spacing" textLength="63" x="176.5" y="121.7188">Amazon</text><text fill="#006DAA" font-family="sans-serif" font-size="16" font-weight="bold" lengthAdjust="spacing" textLength="4" x="239.5" y="121.7188">&#160;</text><text fill="#006DAA" font-family="sans-serif" font-size="16" font-weight="bold" lengthAdjust="spacing" textLength="34" x="243.5" y="121.7188">Web</text><text fill="#006DAA" font-family="sans-serif" font-size="16" font-weight="bold" lengthAdjust="spacing" textLength="4" x="277.5" y="121.7188">&#160;</text><text fill="#006DAA" font-family="sans-serif" font-size="16" font-weight="bold" lengthAdjust="spacing" textLength="66" x="281.5" y="121.7188">Services</text><text fill="#006DAA" font-family="sans-serif" font-size="14" lengthAdjust="spacing" textLength="4" x="260" y="139.7676">&#160;</text><text fill="#006DAA" font-family="sans-serif" font-size="14" lengthAdjust="spacing" textLength="41" x="220.5" y="157.377">Stores</text><text fill="#006DAA" font-family="sans-serif" font-size="14" lengthAdjust="spacing" textLength="4" x="261.5" y="157.377">&#160;</text><text fill="#006DAA" font-family="sans-serif" font-size="14" lengthAdjust="spacing" textLength="38" x="265.5" y="157.377">books</text></g><!--link Person_user to Container_reader_frontend--><g id="link_Person_user_Container_reader_frontend"><path d="M114,142.8194 C114,175.7394 114,215.2494 114,253.9194 " fill="none" id="Person_user-to-Container_reader_frontend" style="stroke:#666666;stroke-width:1.0;"/><polygon fill="#666666" points="114,261.9194,117,253.9194,111,253.9194,114,261.9194" style="stroke:#666666;stroke-width:1.0;"/><text fill="#666666" font-family="sans-serif" font-size="12" font-weight="bold" lengthAdjust="spacing" textLength="29" x="115" y="203.5664">Uses</text></g><!--link Person_sysadmin to Container_reader_database--><g id="link_Person_sysadmin_Container_reader_database"><path d="M269.22,571.7394 C263.21,592.4394 253.62,617.3094 239,636.1094 C220.34,660.1194 200.0532,675.9491 175.8432,690.6891 " fill="none" id="Person_sysadmin-to-Container_reader_database" style="stroke:#666666;stroke-width:1.0;"/><polygon fill="#666666" points="169.01,694.8494,177.4033,693.2515,174.283,688.1267,169.01,694.8494" style="stroke:#666666;stroke-width:1.0;"/><text fill="#666666" font-family="sans-serif" font-size="12" font-weight="bold" lengthAdjust="spacing" textLength="43" x="249" y="632.5664">Access</text></g><!--link Container_reader_frontend to Container_reader_backend--><g id="link_Container_reader_frontend_Container_reader_backend"><path d="M114,396.1494 C114,420.9594 114,440.9194 114,464.8594 " fill="none" id="Container_reader_frontend-to-Container_reader_backend" style="stroke:#666666;stroke-width:1.0;"/><polygon fill="#666666" points="114,472.8594,117,464.8594,111,464.8594,114,472.8594" style="stroke:#666666;stroke-width:1.0;"/><text fill="#666666" font-family="sans-serif" font-size="12" font-weight="bold" lengthAdjust="spacing" textLength="29" x="115" y="439.5664">Uses</text></g><!--link Container_reader_backend to Container_reader_database--><g id="link_Container_reader_backend_Container_reader_database"><path d="M95.9,589.2194 C93.45,599.0894 91.32,609.3294 90,619.1094 C87.92,634.4394 88.0011,643.0351 91.4111,658.1651 " fill="none" id="Container_reader_backend-to-Container_reader_database" style="stroke:#666666;stroke-width:1.0;"/><polygon fill="#666666" points="93.17,665.9694,94.3377,657.5055,88.4845,658.8247,93.17,665.9694" style="stroke:#666666;stroke-width:1.0;"/><text fill="#666666" font-family="sans-serif" font-size="12" font-weight="bold" lengthAdjust="spacing" textLength="36" x="91" y="632.5664">Reads</text><text fill="#666666" font-family="sans-serif" font-size="12" font-weight="bold" lengthAdjust="spacing" textLength="3" x="127" y="632.5664">&#160;</text><text fill="#666666" font-family="sans-serif" font-size="12" font-weight="bold" lengthAdjust="spacing" textLength="27" x="130" y="632.5664">from</text><text fill="#666666" font-family="sans-serif" font-size="12" font-weight="bold" lengthAdjust="spacing" textLength="3" x="157" y="632.5664">&#160;</text><text fill="#666666" font-family="sans-serif" font-size="12" font-weight="bold" lengthAdjust="spacing" textLength="21" x="160" y="632.5664">and</text><text fill="#666666" font-family="sans-serif" font-size="12" font-weight="bold" lengthAdjust="spacing" textLength="3" x="181" y="632.5664">&#160;</text><text fill="#666666" font-family="sans-serif" font-size="12" font-weight="bold" lengthAdjust="spacing" textLength="36" x="184" y="632.5664">writes</text><text fill="#666666" font-family="sans-serif" font-size="12" font-weight="bold" lengthAdjust="spacing" textLength="3" x="220" y="632.5664">&#160;</text><text fill="#666666" font-family="sans-serif" font-size="12" font-weight="bold" lengthAdjust="spacing" textLength="11" x="223" y="632.5664">to</text></g></g></svg>