<svg xmlns="http://www.w3.org/2000/svg" xmlns:xlink="http://www.w3.org/1999/xlink" contentStyleType="text/css" height="793px" preserveAspectRatio="none" style="width:570px;height:793px;background:#FFFFFF;" version="1.1" viewBox="0 0 570 793" width="570px" zoomAndPan="magnify"><defs/><g><text fill="#000000" font-family="sans-serif" font-size="14" font-weight="bold" lengthAdjust="spacing" textLength="168" x="194" y="24.5332">Reader: System Context</text><!--cluster SoftwareSystem_reader_ss--><g id="cluster_SoftwareSystem_reader_ss"><rect fill="none" height="591" rx="2.5" ry="2.5" style="stroke:#444444;stroke-width:1.0;stroke-dasharray:7.0,7.0;" width="249" x="7" y="196.1094"/><text fill="#444444" font-family="sans-serif" font-size="16" font-weight="bold" lengthAdjust="spacing" textLength="55" x="104" y="214.7188">Reader</text></g><!--entity Container_reader_frontend--><g id="elem_Container_reader_frontend"><ellipse cx="122" cy="259.6094" fill="#006DAA" rx="16" ry="16" style="stroke:#004C76;stroke-width:0.5;"/><path d="M122,279.6094 C126,279.6094 129,279.6094 133,275.6094 C141,275.6094 149,283.6094 149,291.6094 L149,295.6094 C149,299.6094 145,303.6094 141,303.6094 L103,303.6094 C99,303.6094 95,299.6094 95,295.6094 L95,291.6094 C95,283.6094 103,275.6094 111,275.6094 C115,279.6094 118,279.6094 122,279.6094 " fill="#006DAA" style="stroke:#004C76;stroke-width:0.5;"/><text fill="#006DAA" font-family="sans-serif" font-size="16" font-weight="bold" lengthAdjust="spacing" textLength="48" x="31.5" y="320.7188">Single</text><text fill="#006DAA" font-family="sans-serif" font-size="16" font-weight="bold" lengthAdjust="spacing" textLength="4" x="79.5" y="320.7188">&#160;</text><text fill="#006DAA" font-family="sans-serif" font-size="16" font-weight="bold" lengthAdjust="spacing" textLength="39" x="83.5" y="320.7188">Page</text><text fill="#006DAA" font-family="sans-serif" font-size="16" font-weight="bold" lengthAdjust="spacing" textLength="4" x="122.5" y="320.7188">&#160;</text><text fill="#006DAA" font-family="sans-serif" font-size="16" font-weight="bold" lengthAdjust="spacing" textLength="86" x="126.5" y="320.7188">Application</text><text fill="#006DAA" font-family="sans-serif" font-size="14" lengthAdjust="spacing" textLength="4" x="120" y="338.7676">&#160;</text><text fill="#006DAA" font-family="sans-serif" font-size="14" lengthAdjust="spacing" textLength="39" x="38.5" y="356.377">Allows</text><text fill="#006DAA" font-family="sans-serif" font-size="14" lengthAdjust="spacing" textLength="4" x="77.5" y="356.377">&#160;</text><text fill="#006DAA" font-family="sans-serif" font-size="14" lengthAdjust="spacing" textLength="35" x="81.5" y="356.377">users</text><text fill="#006DAA" font-family="sans-serif" font-size="14" lengthAdjust="spacing" textLength="4" x="116.5" y="356.377">&#160;</text><text fill="#006DAA" font-family="sans-serif" font-size="14" lengthAdjust="spacing" textLength="12" x="120.5" y="356.377">to</text><text fill="#006DAA" font-family="sans-serif" font-size="14" lengthAdjust="spacing" textLength="4" x="132.5" y="356.377">&#160;</text><text fill="#006DAA" font-family="sans-serif" font-size="14" lengthAdjust="spacing" textLength="23" x="136.5" y="356.377">use</text><text fill="#006DAA" font-family="sans-serif" font-size="14" lengthAdjust="spacing" textLength="4" x="159.5" y="356.377">&#160;</text><text fill="#006DAA" font-family="sans-serif" font-size="14" lengthAdjust="spacing" textLength="42" x="163.5" y="356.377">reader</text><text fill="#006DAA" font-family="sans-serif" font-size="14" lengthAdjust="spacing" textLength="86" x="79" y="373.9863">functionalities</text></g><!--entity Container_reader_backend--><g id="elem_Container_reader_backend"><ellipse cx="122" cy="470.6094" fill="#006DAA" rx="16" ry="16" style="stroke:#004C76;stroke-width:0.5;"/><path d="M122,490.6094 C126,490.6094 129,490.6094 133,486.6094 C141,486.6094 149,494.6094 149,502.6094 L149,506.6094 C149,510.6094 145,514.6094 141,514.6094 L103,514.6094 C99,514.6094 95,510.6094 95,506.6094 L95,502.6094 C95,494.6094 103,486.6094 111,486.6094 C115,490.6094 118,490.6094 122,490.6094 " fill="#006DAA" style="stroke:#004C76;stroke-width:0.5;"/><text fill="#006DAA" font-family="sans-serif" font-size="16" font-weight="bold" lengthAdjust="spacing" textLength="68" x="88" y="531.7188">Backend</text><text fill="#006DAA" font-family="sans-serif" font-size="14" lengthAdjust="spacing" textLength="4" x="120" y="549.7676">&#160;</text><text fill="#006DAA" font-family="sans-serif" font-size="14" lengthAdjust="spacing" textLength="57" x="31.5" y="567.377">Business</text><text fill="#006DAA" font-family="sans-serif" font-size="14" lengthAdjust="spacing" textLength="4" x="88.5" y="567.377">&#160;</text><text fill="#006DAA" font-family="sans-serif" font-size="14" lengthAdjust="spacing" textLength="34" x="92.5" y="567.377">Logic</text><text fill="#006DAA" font-family="sans-serif" font-size="14" lengthAdjust="spacing" textLength="4" x="126.5" y="567.377">&#160;</text><text fill="#006DAA" font-family="sans-serif" font-size="14" lengthAdjust="spacing" textLength="12" x="130.5" y="567.377">of</text><text fill="#006DAA" font-family="sans-serif" font-size="14" lengthAdjust="spacing" textLength="4" x="142.5" y="567.377">&#160;</text><text fill="#006DAA" font-family="sans-serif" font-size="14" lengthAdjust="spacing" textLength="20" x="146.5" y="567.377">the</text><text fill="#006DAA" font-family="sans-serif" font-size="14" lengthAdjust="spacing" textLength="4" x="166.5" y="567.377">&#160;</text><text fill="#006DAA" font-family="sans-serif" font-size="14" lengthAdjust="spacing" textLength="42" x="170.5" y="567.377">reader</text></g><!--entity Container_reader_database--><g id="elem_Container_reader_database"><ellipse cx="122" cy="663.6094" fill="#006DAA" rx="16" ry="16" style="stroke:#004C76;stroke-width:0.5;"/><path d="M122,683.6094 C126,683.6094 129,683.6094 133,679.6094 C141,679.6094 149,687.6094 149,695.6094 L149,699.6094 C149,703.6094 145,707.6094 141,707.6094 L103,707.6094 C99,707.6094 95,703.6094 95,699.6094 L95,695.6094 C95,687.6094 103,679.6094 111,679.6094 C115,683.6094 118,683.6094 122,683.6094 " fill="#006DAA" style="stroke:#004C76;stroke-width:0.5;"/><text fill="#006DAA" font-family="sans-serif" font-size="16" font-weight="bold" lengthAdjust="spacing" textLength="60" x="92" y="724.7188">RDBMS</text><text fill="#006DAA" font-family="sans-serif" font-size="14" lengthAdjust="spacing" textLength="4" x="120" y="742.7676">&#160;</text><text fill="#006DAA" font-family="sans-serif" font-size="14" lengthAdjust="spacing" textLength="41" x="67" y="760.377">Stores</text><text fill="#006DAA" font-family="sans-serif" font-size="14" lengthAdjust="spacing" textLength="4" x="108" y="760.377">&#160;</text><text fill="#006DAA" font-family="sans-serif" font-size="14" lengthAdjust="spacing" textLength="38" x="112" y="760.377">books</text><text fill="#006DAA" font-family="sans-serif" font-size="14" lengthAdjust="spacing" textLength="4" x="150" y="760.377">&#160;</text><text fill="#006DAA" font-family="sans-serif" font-size="14" lengthAdjust="spacing" textLength="23" x="154" y="760.377">info</text></g><!--entity Person_user--><g id="elem_Person_user"><ellipse cx="184" cy="60.6094" fill="#006DAA" rx="16" ry="16" style="stroke:#004C76;stroke-width:0.5;"/><path d="M184,80.6094 C188,80.6094 191,80.6094 195,76.6094 C203,76.6094 211,84.6094 211,92.6094 L211,96.6094 C211,100.6094 207,104.6094 203,104.6094 L165,104.6094 C161,104.6094 157,100.6094 157,96.6094 L157,92.6094 C157,84.6094 165,76.6094 173,76.6094 C177,80.6094 180,80.6094 184,80.6094 " fill="#006DAA" style="stroke:#004C76;stroke-width:0.5;"/><text fill="#006DAA" font-family="sans-serif" font-size="16" font-weight="bold" lengthAdjust="spacing" textLength="36" x="166" y="121.7188">User</text></g><!--entity Person_sysadmin--><g id="elem_Person_sysadmin"><ellipse cx="525" cy="488.1094" fill="#006DAA" rx="16" ry="16" style="stroke:#004C76;stroke-width:0.5;"/><path d="M525,508.1094 C529,508.1094 532,508.1094 536,504.1094 C544,504.1094 552,512.1094 552,520.1094 L552,524.1094 C552,528.1094 548,532.1094 544,532.1094 L506,532.1094 C502,532.1094 498,528.1094 498,524.1094 L498,520.1094 C498,512.1094 506,504.1094 514,504.1094 C518,508.1094 521,508.1094 525,508.1094 " fill="#006DAA" style="stroke:#004C76;stroke-width:0.5;"/><text fill="#006DAA" font-family="sans-serif" font-size="16" font-weight="bold" lengthAdjust="spacing" textLength="76" x="487" y="549.2188">Sysadmin</text></g><!--entity SoftwareSystem_aws_ss--><g id="elem_SoftwareSystem_aws_ss"><ellipse cx="366" cy="470.6094" fill="#006DAA" rx="16" ry="16" style="stroke:#004C76;stroke-width:0.5;"/><path d="M366,490.6094 C370,490.6094 373,490.6094 377,486.6094 C385,486.6094 393,494.6094 393,502.6094 L393,506.6094 C393,510.6094 389,514.6094 385,514.6094 L347,514.6094 C343,514.6094 339,510.6094 339,506.6094 L339,502.6094 C339,494.6094 347,486.6094 355,486.6094 C359,490.6094 362,490.6094 366,490.6094 " fill="#006DAA" style="stroke:#004C76;stroke-width:0.5;"/><text fill="#006DAA" font-family="sans-serif" font-size="16" font-weight="bold" lengthAdjust="spacing" textLength="63" x="280.5" y="531.7188">Amazon</text><text fill="#006DAA" font-family="sans-serif" font-size="16" font-weight="bold" lengthAdjust="spacing" textLength="4" x="343.5" y="531.7188">&#160;</text><text fill="#006DAA" font-family="sans-serif" font-size="16" font-weight="bold" lengthAdjust="spacing" textLength="34" x="347.5" y="531.7188">Web</text><text fill="#006DAA" font-family="sans-serif" font-size="16" font-weight="bold" lengthAdjust="spacing" textLength="4" x="381.5" y="531.7188">&#160;</text><text fill="#006DAA" font-family="sans-serif" font-size="16" font-weight="bold" lengthAdjust="spacing" textLength="66" x="385.5" y="531.7188">Services</text><text fill="#006DAA" font-family="sans-serif" font-size="14" lengthAdjust="spacing" textLength="4" x="364" y="549.7676">&#160;</text><text fill="#006DAA" font-family="sans-serif" font-size="14" lengthAdjust="spacing" textLength="41" x="324.5" y="567.377">Stores</text><text fill="#006DAA" font-family="sans-serif" font-size="14" lengthAdjust="spacing" textLength="4" x="365.5" y="567.377">&#160;</text><text fill="#006DAA" font-family="sans-serif" font-size="14" lengthAdjust="spacing" textLength="38" x="369.5" y="567.377">books</text></g><!--link Person_user to Container_reader_frontend--><g id="link_Person_user_Container_reader_frontend"><path d="M169.54,125.4694 C166.24,135.1194 162.86,145.4394 160,155.1094 C151.57,183.6294 145.3604,207.7187 138.8304,235.0287 " fill="none" id="Person_user-to-Container_reader_frontend" style="stroke:#666666;stroke-width:1.0;"/><polygon fill="#666666" points="136.97,242.8094,141.7482,235.7264,135.9127,234.331,136.97,242.8094" style="stroke:#666666;stroke-width:1.0;"/><text fill="#666666" font-family="sans-serif" font-size="12" font-weight="bold" lengthAdjust="spacing" textLength="29" x="161" y="168.5664">Uses</text></g><!--link Person_sysadmin to Container_reader_database--><g id="link_Person_sysadmin_Container_reader_database"><path d="M490.58,552.6794 C483.85,559.0494 476.54,565.1594 469,570.1094 C375.09,631.8194 256.2681,669.4813 184.8181,688.6013 " fill="none" id="Person_sysadmin-to-Container_reader_database" style="stroke:#666666;stroke-width:1.0;"/><polygon fill="#666666" points="177.09,690.6694,185.5936,691.4994,184.0426,685.7033,177.09,690.6694" style="stroke:#666666;stroke-width:1.0;"/><text fill="#666666" font-family="sans-serif" font-size="12" font-weight="bold" lengthAdjust="spacing" textLength="43" x="417" y="613.5664">Access</text></g><!--link Container_reader_frontend to Container_reader_backend--><g id="link_Container_reader_frontend_Container_reader_backend"><path d="M122,377.1494 C122,401.9594 122,421.9194 122,445.8594 " fill="none" id="Container_reader_frontend-to-Container_reader_backend" style="stroke:#666666;stroke-width:1.0;"/><polygon fill="#666666" points="122,453.8594,125,445.8594,119,445.8594,122,453.8594" style="stroke:#666666;stroke-width:1.0;"/><text fill="#666666" font-family="sans-serif" font-size="12" font-weight="bold" lengthAdjust="spacing" textLength="29" x="123" y="420.5664">Uses</text></g><!--link Container_reader_backend to Container_reader_database--><g id="link_Container_reader_backend_Container_reader_database"><path d="M122,570.1594 C122,594.4494 122,614.7294 122,639.0294 " fill="none" id="Container_reader_backend-to-Container_reader_database" style="stroke:#666666;stroke-width:1.0;"/><polygon fill="#666666" points="122,647.0294,125,639.0294,119,639.0294,122,647.0294" style="stroke:#666666;stroke-width:1.0;"/><text fill="#666666" font-family="sans-serif" font-size="12" font-weight="bold" lengthAdjust="spacing" textLength="36" x="123" y="613.5664">Reads</text><text fill="#666666" font-family="sans-serif" font-size="12" font-weight="bold" lengthAdjust="spacing" textLength="3" x="159" y="613.5664">&#160;</text><text fill="#666666" font-family="sans-serif" font-size="12" font-weight="bold" lengthAdjust="spacing" textLength="27" x="162" y="613.5664">from</text><text fill="#666666" font-family="sans-serif" font-size="12" font-weight="bold" lengthAdjust="spacing" textLength="3" x="189" y="613.5664">&#160;</text><text fill="#666666" font-family="sans-serif" font-size="12" font-weight="bold" lengthAdjust="spacing" textLength="21" x="192" y="613.5664">and</text><text fill="#666666" font-family="sans-serif" font-size="12" font-weight="bold" lengthAdjust="spacing" textLength="3" x="213" y="613.5664">&#160;</text><text fill="#666666" font-family="sans-serif" font-size="12" font-weight="bold" lengthAdjust="spacing" textLength="36" x="216" y="613.5664">writes</text><text fill="#666666" font-family="sans-serif" font-size="12" font-weight="bold" lengthAdjust="spacing" textLength="3" x="252" y="613.5664">&#160;</text><text fill="#666666" font-family="sans-serif" font-size="12" font-weight="bold" lengthAdjust="spacing" textLength="11" x="255" y="613.5664">to</text></g><!--link Person_user to SoftwareSystem_reader_ss--><g id="link_Person_user_SoftwareSystem_reader_ss"><path d="M206.24,125.4794 C214.55,141.9494 223.34,161.5094 229,180.1094 C230.0375,183.5206 231.0193,187.0004 231.9482,190.5274 C232.4127,192.2909 230.9551,186.2973 231.3936,188.0818 " fill="none" id="Person_user-to-SoftwareSystem_reader_ss" style="stroke:#666666;stroke-width:1.0;"/><polygon fill="#666666" points="233.3024,195.8507,234.3069,187.3659,228.4802,188.7976,233.3024,195.8507" style="stroke:#666666;stroke-width:1.0;"/><text fill="#666666" font-family="sans-serif" font-size="12" font-weight="bold" lengthAdjust="spacing" textLength="29" x="227" y="168.5664">Uses</text></g><!--link SoftwareSystem_reader_ss to SoftwareSystem_aws_ss--><g id="link_SoftwareSystem_reader_ss_SoftwareSystem_aws_ss"><path d="M256.2117,325.0197 C256.2904,325.1532 256.3696,325.2874 256.4493,325.4225 C256.768,325.9628 257.0945,326.5162 257.4284,327.0823 C262.7719,336.1403 270.0363,348.4538 278.2925,362.4481 C294.805,390.4369 311.2199,418.2592 328.2349,447.0992 " fill="none" id="SoftwareSystem_reader_ss-to-SoftwareSystem_aws_ss" style="stroke:#666666;stroke-width:1.0;"/><polygon fill="#666666" points="332.3,453.9894,330.8187,445.5748,325.6511,448.6236,332.3,453.9894" style="stroke:#666666;stroke-width:1.0;"/><text fill="#666666" font-family="sans-serif" font-size="12" font-weight="bold" lengthAdjust="spacing" textLength="98" x="315" y="420.5664">Upload/Download</text><text fill="#666666" font-family="sans-serif" font-size="12" font-weight="bold" lengthAdjust="spacing" textLength="3" x="413" y="420.5664">&#160;</text><text fill="#666666" font-family="sans-serif" font-size="12" font-weight="bold" lengthAdjust="spacing" textLength="35" x="416" y="420.5664">media</text></g></g></svg>