<svg xmlns="http://www.w3.org/2000/svg" xmlns:xlink="http://www.w3.org/1999/xlink" contentStyleType="text/css" height="1163px" preserveAspectRatio="none" style="width:506px;height:1163px;background:#FFFFFF;" version="1.1" viewBox="0 0 506 1163" width="506px" zoomAndPan="magnify"><defs><filter height="300%" id="f18n6hxo00105o" width="300%" x="-1" y="-1"><feGaussianBlur result="blurOut" stdDeviation="2.0"/><feColorMatrix in="blurOut" result="blurOut2" type="matrix" values="0 0 0 0 0 0 0 0 0 0 0 0 0 0 0 0 0 0 .4 0"/><feOffset dx="4.0" dy="4.0" in="blurOut2" result="blurOut3"/><feBlend in="SourceGraphic" in2="blurOut3" mode="normal"/></filter></defs><g><text fill="#000000" font-family="sans-serif" font-size="14" font-weight="bold" lengthAdjust="spacing" textLength="168" x="162.25" y="24.5332">Reader: System Context</text><!--cluster SoftwareSystem_reader_ss--><g id="cluster_SoftwareSystem_reader_ss"><rect fill="none" height="829" rx="2.5" ry="2.5" style="stroke:#444444;stroke-width:1.0;stroke-dasharray:7.0,7.0;" width="214" x="98" y="328.1094"/><text fill="#444444" font-family="sans-serif" font-size="16" font-weight="bold" lengthAdjust="spacing" textLength="55" x="177.5" y="346.7188">Reader</text></g><!--entity Container_reader_frontend--><g id="elem_Container_reader_frontend"><ellipse cx="205" cy="388.1094" fill="#FF0000" filter="url(#f18n6hxo00105o)" rx="16" ry="16" style="stroke:#FFA500;stroke-width:5.0;stroke-dasharray:1.0,1.0;"/><path d="M205,408.1094 C209,408.1094 212,408.1094 216,404.1094 C224,404.1094 232,412.1094 232,420.1094 L232,424.1094 C232,428.1094 228,432.1094 224,432.1094 L186,432.1094 C182,432.1094 178,428.1094 178,424.1094 L178,420.1094 C178,412.1094 186,404.1094 194,404.1094 C198,408.1094 201,408.1094 205,408.1094 " fill="#FF0000" filter="url(#f18n6hxo00105o)" style="stroke:#FFA500;stroke-width:5.0;stroke-dasharray:1.0,1.0;"/><text fill="#FF0000" font-family="sans-serif" font-size="16" font-weight="bold" lengthAdjust="spacing" textLength="48" x="114.5" y="453.7188">Single</text><text fill="#FF0000" font-family="sans-serif" font-size="16" font-weight="bold" lengthAdjust="spacing" textLength="4" x="162.5" y="453.7188">&#160;</text><text fill="#FF0000" font-family="sans-serif" font-size="16" font-weight="bold" lengthAdjust="spacing" textLength="39" x="166.5" y="453.7188">Page</text><text fill="#FF0000" font-family="sans-serif" font-size="16" font-weight="bold" lengthAdjust="spacing" textLength="4" x="205.5" y="453.7188">&#160;</text><text fill="#FF0000" font-family="sans-serif" font-size="16" font-weight="bold" lengthAdjust="spacing" textLength="86" x="209.5" y="453.7188">Application</text><text fill="#FF0000" font-family="sans-serif" font-size="12" font-style="italic" lengthAdjust="spacing" textLength="57" x="138.5" y="469.6914">[Awesome</text><text fill="#FF0000" font-family="sans-serif" font-size="12" font-style="italic" lengthAdjust="spacing" textLength="3" x="195.5" y="469.6914">&#160;</text><text fill="#FF0000" font-family="sans-serif" font-size="12" font-style="italic" lengthAdjust="spacing" textLength="73" x="198.5" y="469.6914">technologies]</text><text fill="#FF0000" font-family="sans-serif" font-size="14" lengthAdjust="spacing" textLength="4" x="203" y="486.8613">&#160;</text><text fill="#FF0000" font-family="sans-serif" font-size="14" lengthAdjust="spacing" textLength="39" x="121.5" y="504.4707">Allows</text><text fill="#FF0000" font-family="sans-serif" font-size="14" lengthAdjust="spacing" textLength="4" x="160.5" y="504.4707">&#160;</text><text fill="#FF0000" font-family="sans-serif" font-size="14" lengthAdjust="spacing" textLength="35" x="164.5" y="504.4707">users</text><text fill="#FF0000" font-family="sans-serif" font-size="14" lengthAdjust="spacing" textLength="4" x="199.5" y="504.4707">&#160;</text><text fill="#FF0000" font-family="sans-serif" font-size="14" lengthAdjust="spacing" textLength="12" x="203.5" y="504.4707">to</text><text fill="#FF0000" font-family="sans-serif" font-size="14" lengthAdjust="spacing" textLength="4" x="215.5" y="504.4707">&#160;</text><text fill="#FF0000" font-family="sans-serif" font-size="14" lengthAdjust="spacing" textLength="23" x="219.5" y="504.4707">use</text><text fill="#FF0000" font-family="sans-serif" font-size="14" lengthAdjust="spacing" textLength="4" x="242.5" y="504.4707">&#160;</text><text fill="#FF0000" font-family="sans-serif" font-size="14" lengthAdjust="spacing" textLength="42" x="246.5" y="504.4707">reader</text><text fill="#FF0000" font-family="sans-serif" font-size="14" lengthAdjust="spacing" textLength="86" x="162" y="522.0801">functionalities</text></g><!--entity Container_reader_backend--><g id="elem_Container_reader_backend"><ellipse cx="205" cy="733.6094" fill="#438DD5" rx="16" ry="16" style="stroke:#3C7FC0;stroke-width:0.5;"/><path d="M205,753.6094 C209,753.6094 212,753.6094 216,749.6094 C224,749.6094 232,757.6094 232,765.6094 L232,769.6094 C232,773.6094 228,777.6094 224,777.6094 L186,777.6094 C182,777.6094 178,773.6094 178,769.6094 L178,765.6094 C178,757.6094 186,749.6094 194,749.6094 C198,753.6094 201,753.6094 205,753.6094 " fill="#438DD5" style="stroke:#3C7FC0;stroke-width:0.5;"/><text fill="#438DD5" font-family="sans-serif" font-size="16" font-weight="bold" lengthAdjust="spacing" textLength="68" x="171" y="794.7188">Backend</text><text fill="#438DD5" font-family="sans-serif" font-size="14" lengthAdjust="spacing" textLength="4" x="203" y="812.7676">&#160;</text><text fill="#438DD5" font-family="sans-serif" font-size="14" lengthAdjust="spacing" textLength="57" x="114.5" y="830.377">Business</text><text fill="#438DD5" font-family="sans-serif" font-size="14" lengthAdjust="spacing" textLength="4" x="171.5" y="830.377">&#160;</text><text fill="#438DD5" font-family="sans-serif" font-size="14" lengthAdjust="spacing" textLength="34" x="175.5" y="830.377">Logic</text><text fill="#438DD5" font-family="sans-serif" font-size="14" lengthAdjust="spacing" textLength="4" x="209.5" y="830.377">&#160;</text><text fill="#438DD5" font-family="sans-serif" font-size="14" lengthAdjust="spacing" textLength="12" x="213.5" y="830.377">of</text><text fill="#438DD5" font-family="sans-serif" font-size="14" lengthAdjust="spacing" textLength="4" x="225.5" y="830.377">&#160;</text><text fill="#438DD5" font-family="sans-serif" font-size="14" lengthAdjust="spacing" textLength="20" x="229.5" y="830.377">the</text><text fill="#438DD5" font-family="sans-serif" font-size="14" lengthAdjust="spacing" textLength="4" x="249.5" y="830.377">&#160;</text><text fill="#438DD5" font-family="sans-serif" font-size="14" lengthAdjust="spacing" textLength="42" x="253.5" y="830.377">reader</text></g><!--entity Container_reader_database--><g id="elem_Container_reader_database"><ellipse cx="169" cy="1041.6094" fill="#438DD5" rx="16" ry="16" style="stroke:#3C7FC0;stroke-width:0.5;"/><path d="M169,1061.6094 C173,1061.6094 176,1061.6094 180,1057.6094 C188,1057.6094 196,1065.6094 196,1073.6094 L196,1077.6094 C196,1081.6094 192,1085.6094 188,1085.6094 L150,1085.6094 C146,1085.6094 142,1081.6094 142,1077.6094 L142,1073.6094 C142,1065.6094 150,1057.6094 158,1057.6094 C162,1061.6094 165,1061.6094 169,1061.6094 " fill="#438DD5" style="stroke:#3C7FC0;stroke-width:0.5;"/><text fill="#438DD5" font-family="sans-serif" font-size="16" font-weight="bold" lengthAdjust="spacing" textLength="60" x="139" y="1102.7188">RDBMS</text><text fill="#438DD5" font-family="sans-serif" font-size="14" lengthAdjust="spacing" textLength="4" x="167" y="1120.7676">&#160;</text><text fill="#438DD5" font-family="sans-serif" font-size="14" lengthAdjust="spacing" textLength="41" x="114" y="1138.377">Stores</text><text fill="#438DD5" font-family="sans-serif" font-size="14" lengthAdjust="spacing" textLength="4" x="155" y="1138.377">&#160;</text><text fill="#438DD5" font-family="sans-serif" font-size="14" lengthAdjust="spacing" textLength="38" x="159" y="1138.377">books</text><text fill="#438DD5" font-family="sans-serif" font-size="14" lengthAdjust="spacing" textLength="4" x="197" y="1138.377">&#160;</text><text fill="#438DD5" font-family="sans-serif" font-size="14" lengthAdjust="spacing" textLength="23" x="201" y="1138.377">info</text></g><!--entity Person_user--><g id="elem_Person_user"><ellipse cx="205" cy="60.6094" fill="#438DD5" rx="16" ry="16" style="stroke:#3C7FC0;stroke-width:0.5;"/><path d="M205,80.6094 C209,80.6094 212,80.6094 216,76.6094 C224,76.6094 232,84.6094 232,92.6094 L232,96.6094 C232,100.6094 228,104.6094 224,104.6094 L186,104.6094 C182,104.6094 178,100.6094 178,96.6094 L178,92.6094 C178,84.6094 186,76.6094 194,76.6094 C198,80.6094 201,80.6094 205,80.6094 " fill="#438DD5" style="stroke:#3C7FC0;stroke-width:0.5;"/><text fill="#438DD5" font-family="sans-serif" font-size="16" font-weight="bold" lengthAdjust="spacing" textLength="36" x="187" y="121.7188">User</text></g><!--entity Person_sysadmin--><g id="elem_Person_sysadmin"><ellipse cx="44" cy="751.1094" fill="#438DD5" rx="16" ry="16" style="stroke:#3C7FC0;stroke-width:0.5;"/><path d="M44,771.1094 C48,771.1094 51,771.1094 55,767.1094 C63,767.1094 71,775.1094 71,783.1094 L71,787.1094 C71,791.1094 67,795.1094 63,795.1094 L25,795.1094 C21,795.1094 17,791.1094 17,787.1094 L17,783.1094 C17,775.1094 25,767.1094 33,767.1094 C37,771.1094 40,771.1094 44,771.1094 " fill="#438DD5" style="stroke:#3C7FC0;stroke-width:0.5;"/><text fill="#438DD5" font-family="sans-serif" font-size="16" font-weight="bold" lengthAdjust="spacing" textLength="76" x="6" y="812.2188">Sysadmin</text></g><!--entity SoftwareSystem_aws_ss--><g id="elem_SoftwareSystem_aws_ss"><ellipse cx="414" cy="1041.6094" fill="#438DD5" rx="16" ry="16" style="stroke:#3C7FC0;stroke-width:0.5;"/><path d="M414,1061.6094 C418,1061.6094 421,1061.6094 425,1057.6094 C433,1057.6094 441,1065.6094 441,1073.6094 L441,1077.6094 C441,1081.6094 437,1085.6094 433,1085.6094 L395,1085.6094 C391,1085.6094 387,1081.6094 387,1077.6094 L387,1073.6094 C387,1065.6094 395,1057.6094 403,1057.6094 C407,1061.6094 410,1061.6094 414,1061.6094 " fill="#438DD5" style="stroke:#3C7FC0;stroke-width:0.5;"/><text fill="#438DD5" font-family="sans-serif" font-size="16" font-weight="bold" lengthAdjust="spacing" textLength="63" x="328.5" y="1102.7188">Amazon</text><text fill="#438DD5" font-family="sans-serif" font-size="16" font-weight="bold" lengthAdjust="spacing" textLength="4" x="391.5" y="1102.7188">&#160;</text><text fill="#438DD5" font-family="sans-serif" font-size="16" font-weight="bold" lengthAdjust="spacing" textLength="34" x="395.5" y="1102.7188">Web</text><text fill="#438DD5" font-family="sans-serif" font-size="16" font-weight="bold" lengthAdjust="spacing" textLength="4" x="429.5" y="1102.7188">&#160;</text><text fill="#438DD5" font-family="sans-serif" font-size="16" font-weight="bold" lengthAdjust="spacing" textLength="66" x="433.5" y="1102.7188">Services</text><text fill="#438DD5" font-family="sans-serif" font-size="14" lengthAdjust="spacing" textLength="4" x="412" y="1120.7676">&#160;</text><text fill="#438DD5" font-family="sans-serif" font-size="14" lengthAdjust="spacing" textLength="41" x="372.5" y="1138.377">Stores</text><text fill="#438DD5" font-family="sans-serif" font-size="14" lengthAdjust="spacing" textLength="4" x="413.5" y="1138.377">&#160;</text><text fill="#438DD5" font-family="sans-serif" font-size="14" lengthAdjust="spacing" textLength="38" x="417.5" y="1138.377">books</text></g><!--link Container_reader_backend to Container_reader_database--><g id="link_Container_reader_backend_Container_reader_database"><path d="M187.69,833.2394 C176.88,868.9094 165,908.1094 165,908.1094 C165,908.1094 165,950.1094 165,950.1094 C165,950.1094 165.9479,981.313 167.0279,1016.983 " fill="none" id="Container_reader_backend-to-Container_reader_database" style="stroke:#666666;stroke-width:1.0;"/><polygon fill="#666666" points="167.27,1024.9794,170.0265,1016.8922,164.0293,1017.0738,167.27,1024.9794" style="stroke:#666666;stroke-width:1.0;"/><text fill="#666666" font-family="sans-serif" font-size="0" lengthAdjust="spacing" textLength="0" x="235" y="909.1094">.</text><text fill="#666666" font-family="sans-serif" font-size="12" lengthAdjust="spacing" textLength="3" x="233.5" y="931.5664">&#160;</text><text fill="#666666" font-family="sans-serif" font-size="12" lengthAdjust="spacing" textLength="37" x="166" y="946.6602">Reads</text><text fill="#666666" font-family="sans-serif" font-size="12" lengthAdjust="spacing" textLength="3" x="203" y="946.6602">&#160;</text><text fill="#666666" font-family="sans-serif" font-size="12" lengthAdjust="spacing" textLength="25" x="206" y="946.6602">from</text><text fill="#666666" font-family="sans-serif" font-size="12" lengthAdjust="spacing" textLength="3" x="231" y="946.6602">&#160;</text><text fill="#666666" font-family="sans-serif" font-size="12" lengthAdjust="spacing" textLength="21" x="234" y="946.6602">and</text><text fill="#666666" font-family="sans-serif" font-size="12" lengthAdjust="spacing" textLength="3" x="255" y="946.6602">&#160;</text><text fill="#666666" font-family="sans-serif" font-size="12" lengthAdjust="spacing" textLength="33" x="258" y="946.6602">writes</text><text fill="#666666" font-family="sans-serif" font-size="12" lengthAdjust="spacing" textLength="3" x="291" y="946.6602">&#160;</text><text fill="#666666" font-family="sans-serif" font-size="12" lengthAdjust="spacing" textLength="10" x="294" y="946.6602">to</text></g><!--link Container_reader_backend to SoftwareSystem_aws_ss--><g id="link_Container_reader_backend_SoftwareSystem_aws_ss"><path d="M247.41,833.2394 C273.9,868.9094 303,908.1094 303,908.1094 C303,908.1094 323,950.1094 323,950.1094 C323,950.1094 345.4781,982.7237 370.0781,1018.3937 " fill="none" id="Container_reader_backend-to-SoftwareSystem_aws_ss" style="stroke:#666666;stroke-width:1.0;"/><polygon fill="#666666" points="374.62,1024.9794,372.5478,1016.6905,367.6085,1020.0969,374.62,1024.9794" style="stroke:#666666;stroke-width:1.0;"/><text fill="#666666" font-family="sans-serif" font-size="0" lengthAdjust="spacing" textLength="0" x="362.5" y="909.1094">.</text><text fill="#666666" font-family="sans-serif" font-size="12" lengthAdjust="spacing" textLength="3" x="361" y="931.5664">&#160;</text><text fill="#666666" font-family="sans-serif" font-size="12" lengthAdjust="spacing" textLength="40" x="324" y="946.6602">Upload</text><text fill="#666666" font-family="sans-serif" font-size="12" lengthAdjust="spacing" textLength="3" x="364" y="946.6602">&#160;</text><text fill="#666666" font-family="sans-serif" font-size="12" lengthAdjust="spacing" textLength="34" x="367" y="946.6602">books</text></g><!--link Container_reader_frontend to Container_reader_backend--><g id="link_Container_reader_frontend_Container_reader_backend"><path d="M205,525.4294 C205,584.3894 205,655.8294 205,708.9094 " fill="none" id="Container_reader_frontend-to-Container_reader_backend" style="stroke:#666666;stroke-width:1.0;"/><polygon fill="#666666" points="205,716.9094,208,708.9094,202,708.9094,205,716.9094" style="stroke:#666666;stroke-width:1.0;"/><text fill="#666666" font-family="sans-serif" font-size="0" lengthAdjust="spacing" textLength="0" x="221" y="601.1094">.</text><text fill="#666666" font-family="sans-serif" font-size="12" lengthAdjust="spacing" textLength="3" x="219.5" y="623.5664">&#160;</text><text fill="#666666" font-family="sans-serif" font-size="12" lengthAdjust="spacing" textLength="30" x="206" y="638.6602">Uses</text></g><!--link Container_reader_frontend to SoftwareSystem_aws_ss--><g id="link_Container_reader_frontend_SoftwareSystem_aws_ss"><path d="M238.08,525.3094 C293.71,656.8394 400,908.1094 400,908.1094 C400,908.1094 404.658,965.9952 408.738,1016.6752 " fill="none" id="Container_reader_frontend-to-SoftwareSystem_aws_ss" style="stroke:#666666;stroke-width:1.0;"/><polygon fill="#666666" points="409.38,1024.6494,411.7284,1016.4344,405.7477,1016.9159,409.38,1024.6494" style="stroke:#666666;stroke-width:1.0;"/><text fill="#666666" font-family="sans-serif" font-size="0" lengthAdjust="spacing" textLength="0" x="412.5" y="755.1094">.</text><text fill="#666666" font-family="sans-serif" font-size="12" lengthAdjust="spacing" textLength="3" x="411" y="777.5664">&#160;</text><text fill="#666666" font-family="sans-serif" font-size="12" lengthAdjust="spacing" textLength="56" x="366" y="792.6602">Download</text><text fill="#666666" font-family="sans-serif" font-size="12" lengthAdjust="spacing" textLength="3" x="422" y="792.6602">&#160;</text><text fill="#666666" font-family="sans-serif" font-size="12" lengthAdjust="spacing" textLength="34" x="425" y="792.6602">books</text></g><!--link Person_sysadmin to Container_reader_database--><g id="link_Person_sysadmin_Container_reader_database"><path d="M60.21,815.7994 C81.98,869.0794 117.7655,956.6731 142.6555,1017.6231 " fill="none" id="Person_sysadmin-to-Container_reader_database" style="stroke:#FF0000;stroke-width:2.0;"/><polygon fill="#FF0000" points="145.68,1025.0294,145.4329,1016.4889,139.8782,1018.7573,145.68,1025.0294" style="stroke:#FF0000;stroke-width:2.0;"/><text fill="#FF0000" font-family="sans-serif" font-size="0" lengthAdjust="spacing" textLength="0" x="134" y="909.1094">.</text><text fill="#FF0000" font-family="sans-serif" font-size="12" lengthAdjust="spacing" textLength="3" x="132.5" y="931.5664">&#160;</text><text fill="#FF0000" font-family="sans-serif" font-size="12" lengthAdjust="spacing" textLength="40" x="114" y="946.6602">Access</text></g><!--link Person_user to Container_reader_frontend--><g id="link_Person_user_Container_reader_frontend"><path d="M205,125.1094 C205,183.1094 205,284.5094 205,359.0794 " fill="none" id="Person_user-to-Container_reader_frontend" style="stroke:#666666;stroke-width:1.0;"/><polygon fill="#666666" points="205,367.0794,208,359.0794,202,359.0794,205,367.0794" style="stroke:#666666;stroke-width:1.0;"/><a href="https://google.com" target="_top" title="https://google.com" xlink:actuate="onRequest" xlink:href="https://google.com" xlink:show="new" xlink:title="https://google.com" xlink:type="simple"><text fill="#0000FF" font-family="sans-serif" font-size="12" font-weight="bold" lengthAdjust="spacing" text-decoration="underline" textLength="29" x="250" y="213.5664">Uses</text></a><text fill="#666666" font-family="sans-serif" font-size="12" font-style="italic" lengthAdjust="spacing" textLength="30" x="249.5" y="228.6602">[TCP]</text><text fill="#666666" font-family="sans-serif" font-size="12" lengthAdjust="spacing" textLength="3" x="263" y="243.7539">&#160;</text><text fill="#666666" font-family="sans-serif" font-size="12" lengthAdjust="spacing" textLength="27" x="206" y="258.8477">User</text><text fill="#666666" font-family="sans-serif" font-size="12" lengthAdjust="spacing" textLength="3" x="233" y="258.8477">&#160;</text><text fill="#666666" font-family="sans-serif" font-size="12" lengthAdjust="spacing" textLength="54" x="236" y="258.8477">accesses</text><text fill="#666666" font-family="sans-serif" font-size="12" lengthAdjust="spacing" textLength="3" x="290" y="258.8477">&#160;</text><text fill="#666666" font-family="sans-serif" font-size="12" lengthAdjust="spacing" textLength="10" x="293" y="258.8477">to</text><text fill="#666666" font-family="sans-serif" font-size="12" lengthAdjust="spacing" textLength="3" x="303" y="258.8477">&#160;</text><text fill="#666666" font-family="sans-serif" font-size="12" lengthAdjust="spacing" textLength="17" x="306" y="258.8477">the</text><text fill="#666666" font-family="sans-serif" font-size="12" lengthAdjust="spacing" textLength="40" x="235.5" y="273.9414">system</text><text fill="#666666" font-family="sans-serif" font-size="12" lengthAdjust="spacing" textLength="3" x="275.5" y="273.9414">&#160;</text><text fill="#666666" font-family="sans-serif" font-size="12" lengthAdjust="spacing" textLength="15" x="278.5" y="273.9414">via</text><text fill="#666666" font-family="sans-serif" font-size="12" lengthAdjust="spacing" textLength="45" x="230" y="289.0352">frontend</text><text fill="#666666" font-family="sans-serif" font-size="12" lengthAdjust="spacing" textLength="3" x="275" y="289.0352">&#160;</text><text fill="#666666" font-family="sans-serif" font-size="12" lengthAdjust="spacing" textLength="21" x="278" y="289.0352">app</text></g></g></svg>