<svg xmlns="http://www.w3.org/2000/svg" xmlns:xlink="http://www.w3.org/1999/xlink" contentStyleType="text/css" height="1198px" preserveAspectRatio="none" style="width:329px;height:1198px;background:#FFFFFF;" version="1.1" viewBox="0 0 329 1198" width="329px" zoomAndPan="magnify"><defs><filter height="300%" id="f1py9376slz3lh" width="300%" x="-1" y="-1"><feGaussianBlur result="blurOut" stdDeviation="2.0"/><feColorMatrix in="blurOut" result="blurOut2" type="matrix" values="0 0 0 0 0 0 0 0 0 0 0 0 0 0 0 0 0 0 .4 0"/><feOffset dx="4.0" dy="4.0" in="blurOut2" result="blurOut3"/><feBlend in="SourceGraphic" in2="blurOut3" mode="normal"/></filter></defs><g><text fill="#000000" font-family="sans-serif" font-size="14" font-weight="bold" lengthAdjust="spacing" textLength="168" x="73.75" y="24.5332">Reader: System Context</text><!--cluster SoftwareSystem_reader_ss--><g id="cluster_SoftwareSystem_reader_ss"><rect fill="none" height="829" rx="2.5" ry="2.5" style="stroke:#444444;stroke-width:1.0;stroke-dasharray:7.0,7.0;" width="214" x="7" y="363.1094"/><text fill="#444444" font-family="sans-serif" font-size="16" font-weight="bold" lengthAdjust="spacing" textLength="55" x="86.5" y="381.7188">Reader</text></g><!--entity Container_reader_frontend--><g id="elem_Container_reader_frontend"><ellipse cx="114" cy="423.1094" fill="#FF0000" filter="url(#f1py9376slz3lh)" rx="16" ry="16" style="stroke:#FFA500;stroke-width:5.0;stroke-dasharray:1.0,1.0;"/><path d="M114,443.1094 C118,443.1094 121,443.1094 125,439.1094 C133,439.1094 141,447.1094 141,455.1094 L141,459.1094 C141,463.1094 137,467.1094 133,467.1094 L95,467.1094 C91,467.1094 87,463.1094 87,459.1094 L87,455.1094 C87,447.1094 95,439.1094 103,439.1094 C107,443.1094 110,443.1094 114,443.1094 " fill="#FF0000" filter="url(#f1py9376slz3lh)" style="stroke:#FFA500;stroke-width:5.0;stroke-dasharray:1.0,1.0;"/><text fill="#FF0000" font-family="sans-serif" font-size="16" font-weight="bold" lengthAdjust="spacing" textLength="48" x="23.5" y="488.7188">Single</text><text fill="#FF0000" font-family="sans-serif" font-size="16" font-weight="bold" lengthAdjust="spacing" textLength="4" x="71.5" y="488.7188">&#160;</text><text fill="#FF0000" font-family="sans-serif" font-size="16" font-weight="bold" lengthAdjust="spacing" textLength="39" x="75.5" y="488.7188">Page</text><text fill="#FF0000" font-family="sans-serif" font-size="16" font-weight="bold" lengthAdjust="spacing" textLength="4" x="114.5" y="488.7188">&#160;</text><text fill="#FF0000" font-family="sans-serif" font-size="16" font-weight="bold" lengthAdjust="spacing" textLength="86" x="118.5" y="488.7188">Application</text><text fill="#FF0000" font-family="sans-serif" font-size="12" font-style="italic" lengthAdjust="spacing" textLength="57" x="47.5" y="504.6914">[Awesome</text><text fill="#FF0000" font-family="sans-serif" font-size="12" font-style="italic" lengthAdjust="spacing" textLength="3" x="104.5" y="504.6914">&#160;</text><text fill="#FF0000" font-family="sans-serif" font-size="12" font-style="italic" lengthAdjust="spacing" textLength="73" x="107.5" y="504.6914">technologies]</text><text fill="#FF0000" font-family="sans-serif" font-size="14" lengthAdjust="spacing" textLength="4" x="112" y="521.8613">&#160;</text><text fill="#FF0000" font-family="sans-serif" font-size="14" lengthAdjust="spacing" textLength="39" x="30.5" y="539.4707">Allows</text><text fill="#FF0000" font-family="sans-serif" font-size="14" lengthAdjust="spacing" textLength="4" x="69.5" y="539.4707">&#160;</text><text fill="#FF0000" font-family="sans-serif" font-size="14" lengthAdjust="spacing" textLength="35" x="73.5" y="539.4707">users</text><text fill="#FF0000" font-family="sans-serif" font-size="14" lengthAdjust="spacing" textLength="4" x="108.5" y="539.4707">&#160;</text><text fill="#FF0000" font-family="sans-serif" font-size="14" lengthAdjust="spacing" textLength="12" x="112.5" y="539.4707">to</text><text fill="#FF0000" font-family="sans-serif" font-size="14" lengthAdjust="spacing" textLength="4" x="124.5" y="539.4707">&#160;</text><text fill="#FF0000" font-family="sans-serif" font-size="14" lengthAdjust="spacing" textLength="23" x="128.5" y="539.4707">use</text><text fill="#FF0000" font-family="sans-serif" font-size="14" lengthAdjust="spacing" textLength="4" x="151.5" y="539.4707">&#160;</text><text fill="#FF0000" font-family="sans-serif" font-size="14" lengthAdjust="spacing" textLength="42" x="155.5" y="539.4707">reader</text><text fill="#FF0000" font-family="sans-serif" font-size="14" lengthAdjust="spacing" textLength="86" x="71" y="557.0801">functionalities</text></g><!--entity Container_reader_backend--><g id="elem_Container_reader_backend"><ellipse cx="114" cy="768.6094" fill="#438DD5" rx="16" ry="16" style="stroke:#3C7FC0;stroke-width:0.5;"/><path d="M114,788.6094 C118,788.6094 121,788.6094 125,784.6094 C133,784.6094 141,792.6094 141,800.6094 L141,804.6094 C141,808.6094 137,812.6094 133,812.6094 L95,812.6094 C91,812.6094 87,808.6094 87,804.6094 L87,800.6094 C87,792.6094 95,784.6094 103,784.6094 C107,788.6094 110,788.6094 114,788.6094 " fill="#438DD5" style="stroke:#3C7FC0;stroke-width:0.5;"/><text fill="#438DD5" font-family="sans-serif" font-size="16" font-weight="bold" lengthAdjust="spacing" textLength="68" x="80" y="829.7188">Backend</text><text fill="#438DD5" font-family="sans-serif" font-size="14" lengthAdjust="spacing" textLength="4" x="112" y="847.7676">&#160;</text><text fill="#438DD5" font-family="sans-serif" font-size="14" lengthAdjust="spacing" textLength="57" x="23.5" y="865.377">Business</text><text fill="#438DD5" font-family="sans-serif" font-size="14" lengthAdjust="spacing" textLength="4" x="80.5" y="865.377">&#160;</text><text fill="#438DD5" font-family="sans-serif" font-size="14" lengthAdjust="spacing" textLength="34" x="84.5" y="865.377">Logic</text><text fill="#438DD5" font-family="sans-serif" font-size="14" lengthAdjust="spacing" textLength="4" x="118.5" y="865.377">&#160;</text><text fill="#438DD5" font-family="sans-serif" font-size="14" lengthAdjust="spacing" textLength="12" x="122.5" y="865.377">of</text><text fill="#438DD5" font-family="sans-serif" font-size="14" lengthAdjust="spacing" textLength="4" x="134.5" y="865.377">&#160;</text><text fill="#438DD5" font-family="sans-serif" font-size="14" lengthAdjust="spacing" textLength="20" x="138.5" y="865.377">the</text><text fill="#438DD5" font-family="sans-serif" font-size="14" lengthAdjust="spacing" textLength="4" x="158.5" y="865.377">&#160;</text><text fill="#438DD5" font-family="sans-serif" font-size="14" lengthAdjust="spacing" textLength="42" x="162.5" y="865.377">reader</text></g><!--entity Container_reader_database--><g id="elem_Container_reader_database"><ellipse cx="114" cy="1076.6094" fill="#438DD5" rx="16" ry="16" style="stroke:#3C7FC0;stroke-width:0.5;"/><path d="M114,1096.6094 C118,1096.6094 121,1096.6094 125,1092.6094 C133,1092.6094 141,1100.6094 141,1108.6094 L141,1112.6094 C141,1116.6094 137,1120.6094 133,1120.6094 L95,1120.6094 C91,1120.6094 87,1116.6094 87,1112.6094 L87,1108.6094 C87,1100.6094 95,1092.6094 103,1092.6094 C107,1096.6094 110,1096.6094 114,1096.6094 " fill="#438DD5" style="stroke:#3C7FC0;stroke-width:0.5;"/><text fill="#438DD5" font-family="sans-serif" font-size="16" font-weight="bold" lengthAdjust="spacing" textLength="60" x="84" y="1137.7188">RDBMS</text><text fill="#438DD5" font-family="sans-serif" font-size="14" lengthAdjust="spacing" textLength="4" x="112" y="1155.7676">&#160;</text><text fill="#438DD5" font-family="sans-serif" font-size="14" lengthAdjust="spacing" textLength="41" x="59" y="1173.377">Stores</text><text fill="#438DD5" font-family="sans-serif" font-size="14" lengthAdjust="spacing" textLength="4" x="100" y="1173.377">&#160;</text><text fill="#438DD5" font-family="sans-serif" font-size="14" lengthAdjust="spacing" textLength="38" x="104" y="1173.377">books</text><text fill="#438DD5" font-family="sans-serif" font-size="14" lengthAdjust="spacing" textLength="4" x="142" y="1173.377">&#160;</text><text fill="#438DD5" font-family="sans-serif" font-size="14" lengthAdjust="spacing" textLength="23" x="146" y="1173.377">info</text></g><!--entity Person_user--><g id="elem_Person_user"><ellipse cx="114" cy="78.1094" fill="#438DD5" rx="16" ry="16" style="stroke:#3C7FC0;stroke-width:0.5;"/><path d="M114,98.1094 C118,98.1094 121,98.1094 125,94.1094 C133,94.1094 141,102.1094 141,110.1094 L141,114.1094 C141,118.1094 137,122.1094 133,122.1094 L95,122.1094 C91,122.1094 87,118.1094 87,114.1094 L87,110.1094 C87,102.1094 95,94.1094 103,94.1094 C107,98.1094 110,98.1094 114,98.1094 " fill="#438DD5" style="stroke:#3C7FC0;stroke-width:0.5;"/><text fill="#438DD5" font-family="sans-serif" font-size="16" font-weight="bold" lengthAdjust="spacing" textLength="36" x="96" y="139.2188">User</text></g><!--entity Person_sysadmin--><g id="elem_Person_sysadmin"><ellipse cx="275" cy="786.1094" fill="#438DD5" rx="16" ry="16" style="stroke:#3C7FC0;stroke-width:0.5;"/><path d="M275,806.1094 C279,806.1094 282,806.1094 286,802.1094 C294,802.1094 302,810.1094 302,818.1094 L302,822.1094 C302,826.1094 298,830.1094 294,830.1094 L256,830.1094 C252,830.1094 248,826.1094 248,822.1094 L248,818.1094 C248,810.1094 256,802.1094 264,802.1094 C268,806.1094 271,806.1094 275,806.1094 " fill="#438DD5" style="stroke:#3C7FC0;stroke-width:0.5;"/><text fill="#438DD5" font-family="sans-serif" font-size="16" font-weight="bold" lengthAdjust="spacing" textLength="76" x="237" y="847.2188">Sysadmin</text></g><!--entity SoftwareSystem_aws_ss--><g id="elem_SoftwareSystem_aws_ss"><ellipse cx="237" cy="60.6094" fill="#438DD5" rx="16" ry="16" style="stroke:#3C7FC0;stroke-width:0.5;"/><path d="M237,80.6094 C241,80.6094 244,80.6094 248,76.6094 C256,76.6094 264,84.6094 264,92.6094 L264,96.6094 C264,100.6094 260,104.6094 256,104.6094 L218,104.6094 C214,104.6094 210,100.6094 210,96.6094 L210,92.6094 C210,84.6094 218,76.6094 226,76.6094 C230,80.6094 233,80.6094 237,80.6094 " fill="#438DD5" style="stroke:#3C7FC0;stroke-width:0.5;"/><text fill="#438DD5" font-family="sans-serif" font-size="16" font-weight="bold" lengthAdjust="spacing" textLength="63" x="151.5" y="121.7188">Amazon</text><text fill="#438DD5" font-family="sans-serif" font-size="16" font-weight="bold" lengthAdjust="spacing" textLength="4" x="214.5" y="121.7188">&#160;</text><text fill="#438DD5" font-family="sans-serif" font-size="16" font-weight="bold" lengthAdjust="spacing" textLength="34" x="218.5" y="121.7188">Web</text><text fill="#438DD5" font-family="sans-serif" font-size="16" font-weight="bold" lengthAdjust="spacing" textLength="4" x="252.5" y="121.7188">&#160;</text><text fill="#438DD5" font-family="sans-serif" font-size="16" font-weight="bold" lengthAdjust="spacing" textLength="66" x="256.5" y="121.7188">Services</text><text fill="#438DD5" font-family="sans-serif" font-size="14" lengthAdjust="spacing" textLength="4" x="235" y="139.7676">&#160;</text><text fill="#438DD5" font-family="sans-serif" font-size="14" lengthAdjust="spacing" textLength="41" x="195.5" y="157.377">Stores</text><text fill="#438DD5" font-family="sans-serif" font-size="14" lengthAdjust="spacing" textLength="4" x="236.5" y="157.377">&#160;</text><text fill="#438DD5" font-family="sans-serif" font-size="14" lengthAdjust="spacing" textLength="38" x="240.5" y="157.377">books</text></g><!--link Person_sysadmin to Container_reader_database--><g id="link_Person_sysadmin_Container_reader_database"><path d="M270.64,851.0294 C265.03,902.3994 256,985.1094 256,985.1094 C256,985.1094 215.0388,1023.182 175.1688,1060.252 " fill="none" id="Person_sysadmin-to-Container_reader_database" style="stroke:#FF0000;stroke-width:2.0;"/><polygon fill="#FF0000" points="169.31,1065.6994,177.2116,1062.4491,173.1261,1058.0549,169.31,1065.6994" style="stroke:#FF0000;stroke-width:2.0;"/><text fill="#FF0000" font-family="sans-serif" font-size="0" lengthAdjust="spacing" textLength="0" x="281" y="944.1094">.</text><text fill="#FF0000" font-family="sans-serif" font-size="12" lengthAdjust="spacing" textLength="3" x="279.5" y="966.5664">&#160;</text><text fill="#FF0000" font-family="sans-serif" font-size="12" lengthAdjust="spacing" textLength="40" x="261" y="981.6602">Access</text></g><!--link Container_reader_backend to Container_reader_database--><g id="link_Container_reader_backend_Container_reader_database"><path d="M114,868.3094 C114,923.0594 114,997.1894 114,1051.9294 " fill="none" id="Container_reader_backend-to-Container_reader_database" style="stroke:#666666;stroke-width:1.0;"/><polygon fill="#666666" points="114,1059.9294,117,1051.9294,111,1051.9294,114,1059.9294" style="stroke:#666666;stroke-width:1.0;"/><text fill="#666666" font-family="sans-serif" font-size="0" lengthAdjust="spacing" textLength="0" x="184" y="944.1094">.</text><text fill="#666666" font-family="sans-serif" font-size="12" lengthAdjust="spacing" textLength="3" x="182.5" y="966.5664">&#160;</text><text fill="#666666" font-family="sans-serif" font-size="12" lengthAdjust="spacing" textLength="37" x="115" y="981.6602">Reads</text><text fill="#666666" font-family="sans-serif" font-size="12" lengthAdjust="spacing" textLength="3" x="152" y="981.6602">&#160;</text><text fill="#666666" font-family="sans-serif" font-size="12" lengthAdjust="spacing" textLength="25" x="155" y="981.6602">from</text><text fill="#666666" font-family="sans-serif" font-size="12" lengthAdjust="spacing" textLength="3" x="180" y="981.6602">&#160;</text><text fill="#666666" font-family="sans-serif" font-size="12" lengthAdjust="spacing" textLength="21" x="183" y="981.6602">and</text><text fill="#666666" font-family="sans-serif" font-size="12" lengthAdjust="spacing" textLength="3" x="204" y="981.6602">&#160;</text><text fill="#666666" font-family="sans-serif" font-size="12" lengthAdjust="spacing" textLength="33" x="207" y="981.6602">writes</text><text fill="#666666" font-family="sans-serif" font-size="12" lengthAdjust="spacing" textLength="3" x="240" y="981.6602">&#160;</text><text fill="#666666" font-family="sans-serif" font-size="12" lengthAdjust="spacing" textLength="10" x="243" y="981.6602">to</text></g><!--link Container_reader_frontend to Container_reader_backend--><g id="link_Container_reader_frontend_Container_reader_backend"><path d="M114,560.4294 C114,619.3894 114,690.8294 114,743.9094 " fill="none" id="Container_reader_frontend-to-Container_reader_backend" style="stroke:#666666;stroke-width:1.0;"/><polygon fill="#666666" points="114,751.9094,117,743.9094,111,743.9094,114,751.9094" style="stroke:#666666;stroke-width:1.0;"/><text fill="#666666" font-family="sans-serif" font-size="0" lengthAdjust="spacing" textLength="0" x="130" y="636.1094">.</text><text fill="#666666" font-family="sans-serif" font-size="12" lengthAdjust="spacing" textLength="3" x="128.5" y="658.5664">&#160;</text><text fill="#666666" font-family="sans-serif" font-size="12" lengthAdjust="spacing" textLength="30" x="115" y="673.6602">Uses</text></g><!--link Person_user to Container_reader_frontend--><g id="link_Person_user_Container_reader_frontend"><path d="M114,142.7394 C114,203.9994 114,314.8194 114,393.8294 " fill="none" id="Person_user-to-Container_reader_frontend" style="stroke:#666666;stroke-width:1.0;"/><polygon fill="#666666" points="114,401.8294,117,393.8294,111,393.8294,114,401.8294" style="stroke:#666666;stroke-width:1.0;"/><a href="https://google.com" target="_top" title="https://google.com" xlink:actuate="onRequest" xlink:href="https://google.com" xlink:show="new" xlink:title="https://google.com" xlink:type="simple"><text fill="#0000FF" font-family="sans-serif" font-size="12" font-weight="bold" lengthAdjust="spacing" text-decoration="underline" textLength="29" x="159" y="248.5664">Uses</text></a><text fill="#666666" font-family="sans-serif" font-size="12" font-style="italic" lengthAdjust="spacing" textLength="30" x="158.5" y="263.6602">[TCP]</text><text fill="#666666" font-family="sans-serif" font-size="12" lengthAdjust="spacing" textLength="3" x="172" y="278.7539">&#160;</text><text fill="#666666" font-family="sans-serif" font-size="12" lengthAdjust="spacing" textLength="27" x="115" y="293.8477">User</text><text fill="#666666" font-family="sans-serif" font-size="12" lengthAdjust="spacing" textLength="3" x="142" y="293.8477">&#160;</text><text fill="#666666" font-family="sans-serif" font-size="12" lengthAdjust="spacing" textLength="54" x="145" y="293.8477">accesses</text><text fill="#666666" font-family="sans-serif" font-size="12" lengthAdjust="spacing" textLength="3" x="199" y="293.8477">&#160;</text><text fill="#666666" font-family="sans-serif" font-size="12" lengthAdjust="spacing" textLength="10" x="202" y="293.8477">to</text><text fill="#666666" font-family="sans-serif" font-size="12" lengthAdjust="spacing" textLength="3" x="212" y="293.8477">&#160;</text><text fill="#666666" font-family="sans-serif" font-size="12" lengthAdjust="spacing" textLength="17" x="215" y="293.8477">the</text><text fill="#666666" font-family="sans-serif" font-size="12" lengthAdjust="spacing" textLength="40" x="144.5" y="308.9414">system</text><text fill="#666666" font-family="sans-serif" font-size="12" lengthAdjust="spacing" textLength="3" x="184.5" y="308.9414">&#160;</text><text fill="#666666" font-family="sans-serif" font-size="12" lengthAdjust="spacing" textLength="15" x="187.5" y="308.9414">via</text><text fill="#666666" font-family="sans-serif" font-size="12" lengthAdjust="spacing" textLength="45" x="139" y="324.0352">frontend</text><text fill="#666666" font-family="sans-serif" font-size="12" lengthAdjust="spacing" textLength="3" x="184" y="324.0352">&#160;</text><text fill="#666666" font-family="sans-serif" font-size="12" lengthAdjust="spacing" textLength="21" x="187" y="324.0352">app</text></g></g></svg>