<svg xmlns="http://www.w3.org/2000/svg" xmlns:xlink="http://www.w3.org/1999/xlink" contentStyleType="text/css" height="793px" preserveAspectRatio="none" style="width:363px;height:793px;background:#FFFFFF;" version="1.1" viewBox="0 0 363 793" width="363px" zoomAndPan="magnify"><defs/><g><text fill="#000000" font-family="sans-serif" font-size="14" font-weight="bold" lengthAdjust="spacing" textLength="168" x="90.5" y="24.5332">Reader: System Context</text><!--cluster SoftwareSystem_reader_ss--><g id="cluster_SoftwareSystem_reader_ss"><rect fill="none" height="591" rx="2.5" ry="2.5" style="stroke:#444444;stroke-width:1.0;stroke-dasharray:7.0,7.0;" width="249" x="7" y="196.1094"/><text fill="#444444" font-family="sans-serif" font-size="16" font-weight="bold" lengthAdjust="spacing" textLength="55" x="104" y="214.7188">Reader</text></g><!--entity Container_reader_frontend--><g id="elem_Container_reader_frontend"><ellipse cx="141" cy="259.6094" fill="#006DAA" rx="16" ry="16" style="stroke:#004C76;stroke-width:0.5;"/><path d="M141,279.6094 C145,279.6094 148,279.6094 152,275.6094 C160,275.6094 168,283.6094 168,291.6094 L168,295.6094 C168,299.6094 164,303.6094 160,303.6094 L122,303.6094 C118,303.6094 114,299.6094 114,295.6094 L114,291.6094 C114,283.6094 122,275.6094 130,275.6094 C134,279.6094 137,279.6094 141,279.6094 " fill="#006DAA" style="stroke:#004C76;stroke-width:0.5;"/><text fill="#006DAA" font-family="sans-serif" font-size="16" font-weight="bold" lengthAdjust="spacing" textLength="48" x="50.5" y="320.7188">Single</text><text fill="#006DAA" font-family="sans-serif" font-size="16" font-weight="bold" lengthAdjust="spacing" textLength="4" x="98.5" y="320.7188">&#160;</text><text fill="#006DAA" font-family="sans-serif" font-size="16" font-weight="bold" lengthAdjust="spacing" textLength="39" x="102.5" y="320.7188">Page</text><text fill="#006DAA" font-family="sans-serif" font-size="16" font-weight="bold" lengthAdjust="spacing" textLength="4" x="141.5" y="320.7188">&#160;</text><text fill="#006DAA" font-family="sans-serif" font-size="16" font-weight="bold" lengthAdjust="spacing" textLength="86" x="145.5" y="320.7188">Application</text><text fill="#006DAA" font-family="sans-serif" font-size="14" lengthAdjust="spacing" textLength="4" x="139" y="338.7676">&#160;</text><text fill="#006DAA" font-family="sans-serif" font-size="14" lengthAdjust="spacing" textLength="39" x="57.5" y="356.377">Allows</text><text fill="#006DAA" font-family="sans-serif" font-size="14" lengthAdjust="spacing" textLength="4" x="96.5" y="356.377">&#160;</text><text fill="#006DAA" font-family="sans-serif" font-size="14" lengthAdjust="spacing" textLength="35" x="100.5" y="356.377">users</text><text fill="#006DAA" font-family="sans-serif" font-size="14" lengthAdjust="spacing" textLength="4" x="135.5" y="356.377">&#160;</text><text fill="#006DAA" font-family="sans-serif" font-size="14" lengthAdjust="spacing" textLength="12" x="139.5" y="356.377">to</text><text fill="#006DAA" font-family="sans-serif" font-size="14" lengthAdjust="spacing" textLength="4" x="151.5" y="356.377">&#160;</text><text fill="#006DAA" font-family="sans-serif" font-size="14" lengthAdjust="spacing" textLength="23" x="155.5" y="356.377">use</text><text fill="#006DAA" font-family="sans-serif" font-size="14" lengthAdjust="spacing" textLength="4" x="178.5" y="356.377">&#160;</text><text fill="#006DAA" font-family="sans-serif" font-size="14" lengthAdjust="spacing" textLength="42" x="182.5" y="356.377">reader</text><text fill="#006DAA" font-family="sans-serif" font-size="14" lengthAdjust="spacing" textLength="86" x="98" y="373.9863">functionalities</text></g><!--entity Container_reader_backend--><g id="elem_Container_reader_backend"><ellipse cx="141" cy="470.6094" fill="#006DAA" rx="16" ry="16" style="stroke:#004C76;stroke-width:0.5;"/><path d="M141,490.6094 C145,490.6094 148,490.6094 152,486.6094 C160,486.6094 168,494.6094 168,502.6094 L168,506.6094 C168,510.6094 164,514.6094 160,514.6094 L122,514.6094 C118,514.6094 114,510.6094 114,506.6094 L114,502.6094 C114,494.6094 122,486.6094 130,486.6094 C134,490.6094 137,490.6094 141,490.6094 " fill="#006DAA" style="stroke:#004C76;stroke-width:0.5;"/><text fill="#006DAA" font-family="sans-serif" font-size="16" font-weight="bold" lengthAdjust="spacing" textLength="68" x="107" y="531.7188">Backend</text><text fill="#006DAA" font-family="sans-serif" font-size="14" lengthAdjust="spacing" textLength="4" x="139" y="549.7676">&#160;</text><text fill="#006DAA" font-family="sans-serif" font-size="14" lengthAdjust="spacing" textLength="57" x="50.5" y="567.377">Business</text><text fill="#006DAA" font-family="sans-serif" font-size="14" lengthAdjust="spacing" textLength="4" x="107.5" y="567.377">&#160;</text><text fill="#006DAA" font-family="sans-serif" font-size="14" lengthAdjust="spacing" textLength="34" x="111.5" y="567.377">Logic</text><text fill="#006DAA" font-family="sans-serif" font-size="14" lengthAdjust="spacing" textLength="4" x="145.5" y="567.377">&#160;</text><text fill="#006DAA" font-family="sans-serif" font-size="14" lengthAdjust="spacing" textLength="12" x="149.5" y="567.377">of</text><text fill="#006DAA" font-family="sans-serif" font-size="14" lengthAdjust="spacing" textLength="4" x="161.5" y="567.377">&#160;</text><text fill="#006DAA" font-family="sans-serif" font-size="14" lengthAdjust="spacing" textLength="20" x="165.5" y="567.377">the</text><text fill="#006DAA" font-family="sans-serif" font-size="14" lengthAdjust="spacing" textLength="4" x="185.5" y="567.377">&#160;</text><text fill="#006DAA" font-family="sans-serif" font-size="14" lengthAdjust="spacing" textLength="42" x="189.5" y="567.377">reader</text></g><!--entity Container_reader_database--><g id="elem_Container_reader_database"><ellipse cx="141" cy="663.6094" fill="#006DAA" rx="16" ry="16" style="stroke:#004C76;stroke-width:0.5;"/><path d="M141,683.6094 C145,683.6094 148,683.6094 152,679.6094 C160,679.6094 168,687.6094 168,695.6094 L168,699.6094 C168,703.6094 164,707.6094 160,707.6094 L122,707.6094 C118,707.6094 114,703.6094 114,699.6094 L114,695.6094 C114,687.6094 122,679.6094 130,679.6094 C134,683.6094 137,683.6094 141,683.6094 " fill="#006DAA" style="stroke:#004C76;stroke-width:0.5;"/><text fill="#006DAA" font-family="sans-serif" font-size="16" font-weight="bold" lengthAdjust="spacing" textLength="60" x="111" y="724.7188">RDBMS</text><text fill="#006DAA" font-family="sans-serif" font-size="14" lengthAdjust="spacing" textLength="4" x="139" y="742.7676">&#160;</text><text fill="#006DAA" font-family="sans-serif" font-size="14" lengthAdjust="spacing" textLength="41" x="86" y="760.377">Stores</text><text fill="#006DAA" font-family="sans-serif" font-size="14" lengthAdjust="spacing" textLength="4" x="127" y="760.377">&#160;</text><text fill="#006DAA" font-family="sans-serif" font-size="14" lengthAdjust="spacing" textLength="38" x="131" y="760.377">books</text><text fill="#006DAA" font-family="sans-serif" font-size="14" lengthAdjust="spacing" textLength="4" x="169" y="760.377">&#160;</text><text fill="#006DAA" font-family="sans-serif" font-size="14" lengthAdjust="spacing" textLength="23" x="173" y="760.377">info</text></g><!--entity Person_user--><g id="elem_Person_user"><ellipse cx="77" cy="60.6094" fill="#006DAA" rx="16" ry="16" style="stroke:#004C76;stroke-width:0.5;"/><path d="M77,80.6094 C81,80.6094 84,80.6094 88,76.6094 C96,76.6094 104,84.6094 104,92.6094 L104,96.6094 C104,100.6094 100,104.6094 96,104.6094 L58,104.6094 C54,104.6094 50,100.6094 50,96.6094 L50,92.6094 C50,84.6094 58,76.6094 66,76.6094 C70,80.6094 73,80.6094 77,80.6094 " fill="#006DAA" style="stroke:#004C76;stroke-width:0.5;"/><text fill="#006DAA" font-family="sans-serif" font-size="16" font-weight="bold" lengthAdjust="spacing" textLength="36" x="59" y="121.7188">User</text></g><!--entity Person_sysadmin--><g id="elem_Person_sysadmin"><ellipse cx="318" cy="488.1094" fill="#006DAA" rx="16" ry="16" style="stroke:#004C76;stroke-width:0.5;"/><path d="M318,508.1094 C322,508.1094 325,508.1094 329,504.1094 C337,504.1094 345,512.1094 345,520.1094 L345,524.1094 C345,528.1094 341,532.1094 337,532.1094 L299,532.1094 C295,532.1094 291,528.1094 291,524.1094 L291,520.1094 C291,512.1094 299,504.1094 307,504.1094 C311,508.1094 314,508.1094 318,508.1094 " fill="#006DAA" style="stroke:#004C76;stroke-width:0.5;"/><text fill="#006DAA" font-family="sans-serif" font-size="16" font-weight="bold" lengthAdjust="spacing" textLength="76" x="280" y="549.2188">Sysadmin</text></g><!--link Person_user to Container_reader_frontend--><g id="link_Person_user_Container_reader_frontend"><path d="M88.37,125.3094 C97.71,157.9194 108.9269,197.1187 119.8869,235.3787 " fill="none" id="Person_user-to-Container_reader_frontend" style="stroke:#666666;stroke-width:1.0;"/><polygon fill="#666666" points="122.09,243.0694,122.7709,234.5525,117.0029,236.2049,122.09,243.0694" style="stroke:#666666;stroke-width:1.0;"/><text fill="#666666" font-family="sans-serif" font-size="12" font-weight="bold" lengthAdjust="spacing" textLength="29" x="102" y="168.5664">Uses</text></g><!--link Person_sysadmin to Container_reader_database--><g id="link_Person_sysadmin_Container_reader_database"><path d="M309.63,552.7594 C303.72,573.5894 294.1,598.5694 279,617.1094 C257,644.1194 231.369,661.5519 203.319,676.2219 " fill="none" id="Person_sysadmin-to-Container_reader_database" style="stroke:#666666;stroke-width:1.0;"/><polygon fill="#666666" points="196.23,679.9294,204.7093,678.8802,201.9287,673.5635,196.23,679.9294" style="stroke:#666666;stroke-width:1.0;"/><text fill="#666666" font-family="sans-serif" font-size="12" font-weight="bold" lengthAdjust="spacing" textLength="43" x="290" y="613.5664">Access</text></g><!--link Container_reader_frontend to Container_reader_backend--><g id="link_Container_reader_frontend_Container_reader_backend"><path d="M141,377.1494 C141,401.9594 141,421.9194 141,445.8594 " fill="none" id="Container_reader_frontend-to-Container_reader_backend" style="stroke:#666666;stroke-width:1.0;"/><polygon fill="#666666" points="141,453.8594,144,445.8594,138,445.8594,141,453.8594" style="stroke:#666666;stroke-width:1.0;"/><text fill="#666666" font-family="sans-serif" font-size="12" font-weight="bold" lengthAdjust="spacing" textLength="29" x="142" y="420.5664">Uses</text></g><!--link Container_reader_backend to Container_reader_database--><g id="link_Container_reader_backend_Container_reader_database"><path d="M132.7,570.5694 C131.58,580.4094 130.6,590.5394 130,600.1094 C129.04,615.3294 129.0734,623.8022 130.6534,639.0122 " fill="none" id="Container_reader_backend-to-Container_reader_database" style="stroke:#666666;stroke-width:1.0;"/><polygon fill="#666666" points="131.48,646.9694,133.6374,638.7022,127.6695,639.3222,131.48,646.9694" style="stroke:#666666;stroke-width:1.0;"/><text fill="#666666" font-family="sans-serif" font-size="12" font-weight="bold" lengthAdjust="spacing" textLength="36" x="131" y="613.5664">Reads</text><text fill="#666666" font-family="sans-serif" font-size="12" font-weight="bold" lengthAdjust="spacing" textLength="3" x="167" y="613.5664">&#160;</text><text fill="#666666" font-family="sans-serif" font-size="12" font-weight="bold" lengthAdjust="spacing" textLength="27" x="170" y="613.5664">from</text><text fill="#666666" font-family="sans-serif" font-size="12" font-weight="bold" lengthAdjust="spacing" textLength="3" x="197" y="613.5664">&#160;</text><text fill="#666666" font-family="sans-serif" font-size="12" font-weight="bold" lengthAdjust="spacing" textLength="21" x="200" y="613.5664">and</text><text fill="#666666" font-family="sans-serif" font-size="12" font-weight="bold" lengthAdjust="spacing" textLength="3" x="221" y="613.5664">&#160;</text><text fill="#666666" font-family="sans-serif" font-size="12" font-weight="bold" lengthAdjust="spacing" textLength="36" x="224" y="613.5664">writes</text><text fill="#666666" font-family="sans-serif" font-size="12" font-weight="bold" lengthAdjust="spacing" textLength="3" x="260" y="613.5664">&#160;</text><text fill="#666666" font-family="sans-serif" font-size="12" font-weight="bold" lengthAdjust="spacing" textLength="11" x="263" y="613.5664">to</text></g><!--link Person_user to SoftwareSystem_reader_ss--><g id="link_Person_user_SoftwareSystem_reader_ss"><path d="M56.02,125.1194 C48.02,141.6994 39.5,161.4394 34,180.1094 C32.9919,183.5294 32.0359,187.0168 31.1295,190.5505 C30.6763,192.3174 32.1017,186.3165 31.6729,188.1038 " fill="none" id="Person_user-to-SoftwareSystem_reader_ss" style="stroke:#666666;stroke-width:1.0;"/><polygon fill="#666666" points="29.8067,195.883,34.5901,188.8036,28.7557,187.4039,29.8067,195.883" style="stroke:#666666;stroke-width:1.0;"/><text fill="#666666" font-family="sans-serif" font-size="12" font-weight="bold" lengthAdjust="spacing" textLength="29" x="44" y="168.5664">Uses</text></g></g></svg>