<svg xmlns="http://www.w3.org/2000/svg" xmlns:xlink="http://www.w3.org/1999/xlink" contentStyleType="text/css" height="621px" preserveAspectRatio="none" style="width:294px;height:621px;background:#FFFFFF;" version="1.1" viewBox="0 0 294 621" width="294px" zoomAndPan="magnify"><defs/><g><text fill="#000000" font-family="sans-serif" font-size="14" font-weight="bold" lengthAdjust="spacing" textLength="158" x="61" y="24.5332">Application Landscape</text><!--entity Person_user--><g id="elem_Person_user"><ellipse cx="33" cy="60.6094" fill="#438DD5" rx="16" ry="16" style="stroke:#3C7FC0;stroke-width:0.5;"/><path d="M33,80.6094 C37,80.6094 40,80.6094 44,76.6094 C52,76.6094 60,84.6094 60,92.6094 L60,96.6094 C60,100.6094 56,104.6094 52,104.6094 L14,104.6094 C10,104.6094 6,100.6094 6,96.6094 L6,92.6094 C6,84.6094 14,76.6094 22,76.6094 C26,80.6094 29,80.6094 33,80.6094 " fill="#438DD5" style="stroke:#3C7FC0;stroke-width:0.5;"/><text fill="#438DD5" font-family="sans-serif" font-size="16" font-weight="bold" lengthAdjust="spacing" textLength="36" x="15" y="121.7188">User</text></g><!--entity Person_sysadmin--><g id="elem_Person_sysadmin"><ellipse cx="249" cy="60.6094" fill="#438DD5" rx="16" ry="16" style="stroke:#3C7FC0;stroke-width:0.5;"/><path d="M249,80.6094 C253,80.6094 256,80.6094 260,76.6094 C268,76.6094 276,84.6094 276,92.6094 L276,96.6094 C276,100.6094 272,104.6094 268,104.6094 L230,104.6094 C226,104.6094 222,100.6094 222,96.6094 L222,92.6094 C222,84.6094 230,76.6094 238,76.6094 C242,80.6094 245,80.6094 249,80.6094 " fill="#438DD5" style="stroke:#3C7FC0;stroke-width:0.5;"/><text fill="#438DD5" font-family="sans-serif" font-size="16" font-weight="bold" lengthAdjust="spacing" textLength="76" x="211" y="121.7188">Sysadmin</text></g><!--entity SoftwareSystem_reader_ss--><g id="elem_SoftwareSystem_reader_ss"><rect fill="#438DD5" height="92.9531" rx="2.5" ry="2.5" style="stroke:#3C7FC0;stroke-width:0.5;" width="186" x="48" y="275.1094"/><text fill="#FFFFFF" font-family="sans-serif" font-size="16" font-weight="bold" lengthAdjust="spacing" textLength="55" x="113.5" y="301.7188">Reader</text><text fill="#FFFFFF" font-family="sans-serif" font-size="14" lengthAdjust="spacing" textLength="4" x="139" y="319.7676">&#160;</text><text fill="#FFFFFF" font-family="sans-serif" font-size="14" lengthAdjust="spacing" textLength="39" x="58" y="337.377">Allows</text><text fill="#FFFFFF" font-family="sans-serif" font-size="14" lengthAdjust="spacing" textLength="4" x="97" y="337.377">&#160;</text><text fill="#FFFFFF" font-family="sans-serif" font-size="14" lengthAdjust="spacing" textLength="35" x="101" y="337.377">users</text><text fill="#FFFFFF" font-family="sans-serif" font-size="14" lengthAdjust="spacing" textLength="4" x="136" y="337.377">&#160;</text><text fill="#FFFFFF" font-family="sans-serif" font-size="14" lengthAdjust="spacing" textLength="12" x="140" y="337.377">to</text><text fill="#FFFFFF" font-family="sans-serif" font-size="14" lengthAdjust="spacing" textLength="4" x="152" y="337.377">&#160;</text><text fill="#FFFFFF" font-family="sans-serif" font-size="14" lengthAdjust="spacing" textLength="44" x="156" y="337.377">access</text><text fill="#FFFFFF" font-family="sans-serif" font-size="14" lengthAdjust="spacing" textLength="4" x="200" y="337.377">&#160;</text><text fill="#FFFFFF" font-family="sans-serif" font-size="14" lengthAdjust="spacing" textLength="20" x="204" y="337.377">the</text><text fill="#FFFFFF" font-family="sans-serif" font-size="14" lengthAdjust="spacing" textLength="42" x="120" y="354.9863">reader</text></g><!--entity SoftwareSystem_aws_ss--><g id="elem_SoftwareSystem_aws_ss"><rect fill="#438DD5" height="96.9531" rx="2.5" ry="2.5" style="stroke:#3C7FC0;stroke-width:0.5;" width="191" x="45.5" y="518.1094"/><text fill="#FFFFFF" font-family="sans-serif" font-size="16" font-weight="bold" lengthAdjust="spacing" textLength="63" x="55.5" y="544.7188">Amazon</text><text fill="#FFFFFF" font-family="sans-serif" font-size="16" font-weight="bold" lengthAdjust="spacing" textLength="4" x="118.5" y="544.7188">&#160;</text><text fill="#FFFFFF" font-family="sans-serif" font-size="16" font-weight="bold" lengthAdjust="spacing" textLength="34" x="122.5" y="544.7188">Web</text><text fill="#FFFFFF" font-family="sans-serif" font-size="16" font-weight="bold" lengthAdjust="spacing" textLength="4" x="156.5" y="544.7188">&#160;</text><text fill="#FFFFFF" font-family="sans-serif" font-size="16" font-weight="bold" lengthAdjust="spacing" textLength="66" x="160.5" y="544.7188">Services</text><text fill="#FFFFFF" font-family="sans-serif" font-size="14" lengthAdjust="spacing" textLength="4" x="139" y="562.7676">&#160;</text><text fill="#FFFFFF" font-family="sans-serif" font-size="14" lengthAdjust="spacing" textLength="41" x="99.5" y="580.377">Stores</text><text fill="#FFFFFF" font-family="sans-serif" font-size="14" lengthAdjust="spacing" textLength="4" x="140.5" y="580.377">&#160;</text><text fill="#FFFFFF" font-family="sans-serif" font-size="14" lengthAdjust="spacing" textLength="38" x="144.5" y="580.377">books</text><text fill="#FFFFFF" font-family="sans-serif" font-size="14" lengthAdjust="spacing" textLength="44" x="99.5" y="599.9863">vendor</text><text fill="#FFFFFF" font-family="sans-serif" font-size="14" font-weight="bold" lengthAdjust="spacing" textLength="31" x="151.5" y="599.9863">AWS</text><line style="stroke:#FFFFFF;stroke-width:0.5;" x1="95.5" x2="186.5" y1="585.4531" y2="585.4531"/><line style="stroke:#FFFFFF;stroke-width:0.5;" x1="95.5" x2="186.5" y1="603.0625" y2="603.0625"/><line style="stroke:#FFFFFF;stroke-width:0.5;" x1="95.5" x2="95.5" y1="585.4531" y2="603.0625"/><line style="stroke:#FFFFFF;stroke-width:0.5;" x1="147.5" x2="147.5" y1="585.4531" y2="603.0625"/><line style="stroke:#FFFFFF;stroke-width:0.5;" x1="186.5" x2="186.5" y1="585.4531" y2="603.0625"/></g><!--link Person_sysadmin to SoftwareSystem_reader_ss--><g id="link_Person_sysadmin_SoftwareSystem_reader_ss"><path d="M222.5,125.3494 C222.5,166.9094 222.5,223.3094 222.5,266.8994 " fill="none" id="Person_sysadmin-to-SoftwareSystem_reader_ss" style="stroke:#666666;stroke-width:1.0;"/><polygon fill="#666666" points="222.5,274.8994,225.5,266.8994,219.5,266.8994,222.5,274.8994" style="stroke:#666666;stroke-width:1.0;"/><text fill="#666666" font-family="sans-serif" font-size="0" lengthAdjust="spacing" textLength="0" x="201.5" y="159.1294">.</text><text fill="#666666" font-family="sans-serif" font-size="12" lengthAdjust="spacing" textLength="3" x="200" y="181.5864">&#160;</text><text fill="#666666" font-family="sans-serif" font-size="12" lengthAdjust="spacing" textLength="40" x="181.5" y="196.6802">Access</text></g><!--link Person_user to SoftwareSystem_reader_ss--><g id="link_Person_user_SoftwareSystem_reader_ss"><path d="M54.25,125.3494 C54.25,166.9094 54.25,223.3094 54.25,266.8994 " fill="none" id="Person_user-to-SoftwareSystem_reader_ss" style="stroke:#666666;stroke-width:1.0;"/><polygon fill="#666666" points="54.25,274.8994,57.25,266.8994,51.25,266.8994,54.25,274.8994" style="stroke:#666666;stroke-width:1.0;"/><a href="https://google.com" target="_top" title="https://google.com" xlink:actuate="onRequest" xlink:href="https://google.com" xlink:show="new" xlink:title="https://google.com" xlink:type="simple"><text fill="#0000FF" font-family="sans-serif" font-size="12" font-weight="bold" lengthAdjust="spacing" text-decoration="underline" textLength="29" x="99.25" y="121.5864">Uses</text></a><text fill="#666666" font-family="sans-serif" font-size="12" font-style="italic" lengthAdjust="spacing" textLength="30" x="98.75" y="136.6802">[TCP]</text><text fill="#666666" font-family="sans-serif" font-size="12" lengthAdjust="spacing" textLength="3" x="112.25" y="151.7739">&#160;</text><text fill="#666666" font-family="sans-serif" font-size="12" lengthAdjust="spacing" textLength="27" x="55.25" y="166.8677">User</text><text fill="#666666" font-family="sans-serif" font-size="12" lengthAdjust="spacing" textLength="3" x="82.25" y="166.8677">&#160;</text><text fill="#666666" font-family="sans-serif" font-size="12" lengthAdjust="spacing" textLength="54" x="85.25" y="166.8677">accesses</text><text fill="#666666" font-family="sans-serif" font-size="12" lengthAdjust="spacing" textLength="3" x="139.25" y="166.8677">&#160;</text><text fill="#666666" font-family="sans-serif" font-size="12" lengthAdjust="spacing" textLength="10" x="142.25" y="166.8677">to</text><text fill="#666666" font-family="sans-serif" font-size="12" lengthAdjust="spacing" textLength="3" x="152.25" y="166.8677">&#160;</text><text fill="#666666" font-family="sans-serif" font-size="12" lengthAdjust="spacing" textLength="17" x="155.25" y="166.8677">the</text><text fill="#666666" font-family="sans-serif" font-size="12" lengthAdjust="spacing" textLength="40" x="84.75" y="181.9614">system</text><text fill="#666666" font-family="sans-serif" font-size="12" lengthAdjust="spacing" textLength="3" x="124.75" y="181.9614">&#160;</text><text fill="#666666" font-family="sans-serif" font-size="12" lengthAdjust="spacing" textLength="15" x="127.75" y="181.9614">via</text><text fill="#666666" font-family="sans-serif" font-size="12" lengthAdjust="spacing" textLength="45" x="79.25" y="197.0552">frontend</text><text fill="#666666" font-family="sans-serif" font-size="12" lengthAdjust="spacing" textLength="3" x="124.25" y="197.0552">&#160;</text><text fill="#666666" font-family="sans-serif" font-size="12" lengthAdjust="spacing" textLength="21" x="127.25" y="197.0552">app</text></g><!--link SoftwareSystem_reader_ss to SoftwareSystem_aws_ss--><g id="link_SoftwareSystem_reader_ss_SoftwareSystem_aws_ss"><path d="M141,368.2694 C141,411.1694 141,466.5294 141,510.0294 " fill="none" id="SoftwareSystem_reader_ss-to-SoftwareSystem_aws_ss" style="stroke:#666666;stroke-width:1.0;"/><polygon fill="#666666" points="141,518.0294,144,510.0294,138,510.0294,141,518.0294" style="stroke:#666666;stroke-width:1.0;"/><text fill="#666666" font-family="sans-serif" font-size="0" lengthAdjust="spacing" textLength="0" x="101.5" y="402.1494">.</text><text fill="#666666" font-family="sans-serif" font-size="12" lengthAdjust="spacing" textLength="3" x="100" y="424.6064">&#160;</text><text fill="#666666" font-family="sans-serif" font-size="12" lengthAdjust="spacing" textLength="40" x="63" y="439.7002">Upload</text><text fill="#666666" font-family="sans-serif" font-size="12" lengthAdjust="spacing" textLength="3" x="103" y="439.7002">&#160;</text><text fill="#666666" font-family="sans-serif" font-size="12" lengthAdjust="spacing" textLength="34" x="106" y="439.7002">books</text></g></g></svg>